<?xml version="1.0" standalone="no"?><!DOCTYPE svg PUBLIC "-//W3C//DTD SVG 1.1//EN" 	"http://www.w3.org/Graphics/SVG/1.1/DTD/svg11.dtd"><svg width="1440" height="766" version="1.1"	xmlns="http://www.w3.org/2000/svg"><title>Krona (snapshot) - root</title><defs>	<style type="text/css">	text {font-size: 11px; font-family: sans-serif; dominant-baseline:central}	path {stroke-width:0.27499999999999997;}	path.wedge {stroke:none}	path.line {fill:none;stroke:black;}	line {stroke:black;stroke-width:0.27499999999999997;}	line.tick {stroke-width:0.5499999999999999;}	line.pattern {stroke-width:0.18333333333333332;}	circle {fill:none;stroke:black;stroke-width:0.27499999999999997;}	rect {stroke:black;stroke-width:0.27499999999999997;}	.highlight {stroke:black;stroke-width:1.375;}	.searchHighlight {fill:rgb(255, 255, 100);stroke:none;}	</style><pattern id="hiddenPattern" patternUnits="userSpaceOnUse" x="0" y="0" width="6.6" height="6.6"><line class="pattern" x1="0" y1="0" x2="3.3" y2="3.3"/><line class="pattern" x1="3.3" y1="6.6" x2="6.6" y2="3.3"/></pattern></defs><path class="wedge" fill="rgb(220,220,220)" d=" M 645.4332074799754,459.59877499855526 L 646.7328299199017,689.395099994221 A 306.4,306.4 0 0,1 645.0000000000001,689.4 L 645,459.6 A 76.6,76.6 0 0 0 645.4332074799754,459.59877499855526 Z "/><path class="wedge" fill="rgb(207,111,111)" d=" M 645,459.6 L 645,689.4 A 306.4,306.4 0 1,1 656.2352807712978,689.1939393031646 L 647.8088201928244,459.54848482579115 A 76.6,76.6 0 1 0 645,459.6 Z "/><path class="wedge" fill="rgb(207,111,111)" d=" M 649.6567572700397,509.8837656909985 L 656.2376114220963,689.1938537749018 A 306.4,306.4 0 0,1 656.2352807712978,689.1939393031646 L 649.6557914709351,509.88380113308176 A 126.96919068892369,126.96919068892369 0 0 0 649.6567572700397,509.8837656909985 Z "/><path class="wedge" fill="rgb(210,121,121)" d=" M 645,509.9691906889237 L 645,689.4 A 306.4,306.4 0 1,1 656.2399420722435,689.1937682288988 L 649.6577230688745,509.88373024156385 A 126.96919068892369,126.96919068892369 0 1 0 645,509.9691906889237 Z "/><path class="wedge" fill="rgb(210,121,121)" d=" M 651.6604478974614,543.9664550157173 L 657.6673377628894,689.138038397715 A 306.4,306.4 0 0,1 656.2399420722435,689.1937682288988 L 650.9099275588895,543.9957575924609 A 161.1041936341874,161.1041936341874 0 0 0 651.6604478974614,543.9664550157173 Z "/><path class="wedge" fill="rgb(213,130,130)" d=" M 645,544.1041936341874 L 645,689.4 A 306.4,306.4 0 1,1 658.2487058633269,689.1134296187396 L 651.9661294869707,543.9535157941339 A 161.1041936341874,161.1041936341874 0 1 0 645,544.1041936341874 Z "/><path class="wedge" fill="rgb(213,130,130)" d=" M 653.1942189487543,568.5363854328143 L 658.5189851077157,689.1016122820286 A 306.4,306.4 0 0,1 658.2487058633269,689.1134296187396 L 653.0303954599214,568.5435482370951 A 185.71724622030658,185.71724622030658 0 0 0 653.1942189487543,568.5363854328143 Z "/><path class="wedge" fill="rgb(216,140,140)" d=" M 645,568.7172462203066 L 645,689.4 A 306.4,306.4 0 1,1 928.234960617059,499.8713698227801 L 816.6762954279282,453.83886738081515 A 185.71724622030658,185.71724622030658 0 1 0 645,568.7172462203066 Z "/><path class="wedge" fill="rgb(216,140,140)" d=" M 834.1743520026139,460.11037441453874 L 928.7340766173697,498.65437201458735 A 306.4,306.4 0 0,1 928.234960617059,499.8713698227801 L 833.8415758092902,460.9217847833537 A 204.28642954919744,204.28642954919744 0 0 0 834.1743520026139,460.11037441453874 Z "/><path class="wedge" fill="rgb(219,149,149)" d=" M 645,587.2864295491975 L 645,689.4 A 306.4,306.4 0 1,1 928.8251021332446,498.4308078419851 L 834.2350415510341,459.96131721285457 A 204.28642954919744,204.28642954919744 0 1 0 645,587.2864295491975 Z "/><path class="wedge" fill="rgb(219,149,149)" d=" M 850.2261263113729,458.8264721407396 L 932.4096946201016,489.19146593949966 A 306.4,306.4 0 0,1 928.8251021332446,498.4308078419851 L 847.6665326572517,465.423863891285 A 218.78623539446428,218.78623539446428 0 0 0 850.2261263113729,458.8264721407396 Z "/><path class="wedge" fill="rgb(223,159,159)" d=" M 645,601.7862353944643 L 645,689.4 A 306.4,306.4 0 1,1 864.3707832796572,169.0901604804733 L 801.6426495734044,230.25676076269173 A 218.78623539446428,218.78623539446428 0 1 0 645,601.7862353944643 Z "/><path class="wedge" fill="rgb(223,159,159)" d=" M 809.082316864347,221.2299673626923 L 863.1894500358867,167.88532385483953 A 306.4,306.4 0 0,1 864.3707832796572,169.0901604804733 L 809.9707003109108,222.13602576718662 A 230.41820710839582,230.41820710839582 0 0 0 809.082316864347,221.2299673626923 Z "/><path class="wedge" fill="rgb(226,168,168)" d=" M 645,613.4182071083958 L 645,689.4 A 306.4,306.4 0 1,1 862.1002673572244,166.7861384799262 L 808.263232268946,220.40336056319066 A 230.41820710839582,230.41820710839582 0 1 0 645,613.4182071083958 Z "/><path class="wedge" fill="rgb(226,168,168)" d=" M 814.5141694924904,213.1674757414243 L 861.4541673829123,166.13932255346484 A 306.4,306.4 0 0,1 862.1002673572244,166.7861384799262 L 815.0201569811069,213.6740239216432 A 239.95445391733924,239.95445391733924 0 0 0 814.5141694924904,213.1674757414243 Z "/><path class="wedge" fill="rgb(229,178,178)" d=" M 645,622.9544539173393 L 645,689.4 A 306.4,306.4 0 1,1 861.4360092027736,166.121199928677 L 814.4999490740854,213.15328316787824 A 239.95445391733924,239.95445391733924 0 1 0 645,622.9544539173393 Z "/><path class="wedge" fill="rgb(229,178,178)" d=" M 817.6532900640589,205.09028564270122 L 858.3849178739395,163.11858463268865 A 306.4,306.4 0 0,1 861.4360092027736,166.121199928677 L 820.1219788610822,207.51975167438823 A 247.9133417802271,247.9133417802271 0 0 0 817.6532900640589,205.09028564270122 Z "/><path class="wedge" fill="rgb(229,178,178)" d=" M 645,630.9133417802271 L 645,689.4 A 306.4,306.4 0 1,1 858.0625079172563,162.80615876003915 L 817.392422799749,204.83749666702516 A 247.9133417802271,247.9133417802271 0 1 0 645,630.9133417802271 Z "/><path class="wedge" fill="rgb(229,178,178)" d=" M 434.98445157381866,527.0241449830985 L 392.310646520932,556.288922433982 A 306.4,306.4 0 0,1 858.0625079172563,162.80615876003915 L 822.080826054695,199.99216966848348 A 254.65562023812137,254.65562023812137 0 0 0 434.98445157381866,527.0241449830985 Z "/><path class="wedge" fill="rgb(229,178,178)" d=" M 645,637.6556202381214 L 645,689.4 A 306.4,306.4 0 0,1 525.0001079147787,664.9237235486494 L 545.2655125735325,617.312861227552 A 254.65562023812137,254.65562023812137 0 0 0 645,637.6556202381214 Z "/><path class="wedge" fill="rgb(229,180,178)" d=" M 545.2655125735325,617.312861227552 L 525.0001079147787,664.9237235486494 A 306.4,306.4 0 0,1 468.65230032989314,633.564260861484 L 498.4336395657408,591.2493383132755 A 254.65562023812137,254.65562023812137 0 0 0 545.2655125735325,617.312861227552 Z "/><path class="wedge" fill="rgb(229,180,178)" d=" M 498.4336395657408,591.2493383132755 L 468.65230032989314,633.564260861484 A 306.4,306.4 0 0,1 427.00466877781366,598.3113920937052 L 463.81939855939765,561.9499219907175 A 254.65562023812137,254.65562023812137 0 0 0 498.4336395657408,591.2493383132755 Z "/><path class="wedge" fill="rgb(229,181,178)" d=" M 463.81939855939765,561.9499219907175 L 427.00466877781366,598.3113920937052 A 306.4,306.4 0 0,1 392.310646520932,556.288922433982 L 434.98445157381866,527.0241449830985 A 254.65562023812137,254.65562023812137 0 0 0 463.81939855939765,561.9499219907175 Z "/><path class="wedge" fill="rgb(229,193,178)" d=" M 817.392422799749,204.83749666702516 L 858.0625079172563,162.80615876003915 A 306.4,306.4 0 0,1 858.3849178739395,163.11858463268865 L 817.6532900640589,205.09028564270122 A 247.9133417802271,247.9133417802271 0 0 0 817.392422799749,204.83749666702516 Z "/><path class="wedge" fill="url(#hiddenPattern)" d=" M 817.392422799749,204.83749666702516 L 858.0625079172563,162.80615876003915 A 306.4,306.4 0 0,1 858.3849178739395,163.11858463268865 L 817.6532900640589,205.09028564270122 A 247.9133417802271,247.9133417802271 0 0 0 817.392422799749,204.83749666702516 Z "/><path class="wedge" fill="rgb(226,185,168)" d=" M 814.4999490740854,213.15328316787824 L 861.4360092027736,166.121199928677 A 306.4,306.4 0 0,1 861.4541673829123,166.13932255346484 L 814.5141694924904,213.1674757414243 A 239.95445391733924,239.95445391733924 0 0 0 814.4999490740854,213.15328316787824 Z "/><path class="wedge" fill="url(#hiddenPattern)" d=" M 814.4999490740854,213.15328316787824 L 861.4360092027736,166.121199928677 A 306.4,306.4 0 0,1 861.4541673829123,166.13932255346484 L 814.5141694924904,213.1674757414243 A 239.95445391733924,239.95445391733924 0 0 0 814.4999490740854,213.15328316787824 Z "/><path class="wedge" fill="rgb(223,178,159)" d=" M 808.263232268946,220.40336056319066 L 862.1002673572244,166.7861384799262 A 306.4,306.4 0 0,1 863.1894500358867,167.88532385483953 L 809.082316864347,221.2299673626923 A 230.41820710839582,230.41820710839582 0 0 0 808.263232268946,220.40336056319066 Z "/><path class="wedge" fill="url(#hiddenPattern)" d=" M 808.263232268946,220.40336056319066 L 862.1002673572244,166.7861384799262 A 306.4,306.4 0 0,1 863.1894500358867,167.88532385483953 L 809.082316864347,221.2299673626923 A 230.41820710839582,230.41820710839582 0 0 0 808.263232268946,220.40336056319066 Z "/><path class="wedge" fill="rgb(223,178,159)" d=" M 801.6426495734044,230.25676076269173 L 864.3707832796572,169.0901604804733 A 306.4,306.4 0 0,1 932.4096946201016,489.19146593949966 L 850.2261263113729,458.8264721407396 A 218.78623539446428,218.78623539446428 0 0 0 801.6426495734044,230.25676076269173 Z "/><path class="wedge" fill="rgb(223,178,159)" d=" M 861.2066793716886,462.6694543857022 L 932.5021353165955,488.9409372641095 A 306.4,306.4 0 0,1 932.4096946201016,489.19146593949966 L 861.1371623366038,462.8578563707304 A 230.41820710839582,230.41820710839582 0 0 0 861.2066793716886,462.6694543857022 Z "/><path class="wedge" fill="rgb(226,186,168)" d=" M 809.9707003109108,222.13602576718662 L 864.3707832796572,169.0901604804733 A 306.4,306.4 0 0,1 932.6096397688709,488.6487345500185 L 861.2875246169544,462.44971278814 A 230.41820710839582,230.41820710839582 0 0 0 809.9707003109108,222.13602576718662 Z "/><path class="wedge" fill="rgb(226,186,168)" d=" M 870.364329516117,465.3957458642103 L 932.7697389502322,488.21186883862106 A 306.4,306.4 0 0,1 932.6096397688709,488.6487345500185 L 870.2389492562079,465.7378733877533 A 239.95445391733924,239.95445391733924 0 0 0 870.364329516117,465.3957458642103 Z "/><path class="wedge" fill="rgb(229,193,178)" d=" M 816.7982914728757,215.47839840256623 L 864.3707832796572,169.0901604804733 A 306.4,306.4 0 0,1 932.7761451316325,488.1943453479207 L 870.3693464605021,465.3820224972334 A 239.95445391733924,239.95445391733924 0 0 0 816.7982914728757,215.47839840256623 Z "/><path class="wedge" fill="rgb(229,193,178)" d=" M 880.6526218872668,459.9991352568102 L 936.2467833629813,478.1644428382608 A 306.4,306.4 0 0,1 932.7761451316325,488.1943453479207 L 877.8444707056614,468.1144963824618 A 247.9133417802271,247.9133417802271 0 0 0 880.6526218872668,459.9991352568102 Z "/><path class="wedge" fill="rgb(229,193,178)" d=" M 822.4965534327865,209.92198709217374 L 864.3707832796572,169.0901604804733 A 306.4,306.4 0 0,1 938.167711157771,472.0710566599148 L 882.2068765508595,455.06887504065094 A 247.9133417802271,247.9133417802271 0 0 0 822.4965534327865,209.92198709217374 Z "/><path class="wedge" fill="rgb(229,193,178)" d=" M 865.5114175032397,255.6257495818948 L 910.3179154648728,229.7441233316825 A 306.4,306.4 0 0,1 938.167711157771,472.0710566599148 L 888.6579808050672,457.0288680776614 A 254.65562023812137,254.65562023812137 0 0 0 865.5114175032397,255.6257495818948 Z "/><path class="wedge" fill="rgb(229,193,178)" d=" M 827.3237691847376,205.21493845338745 L 864.3707832796572,169.0901604804733 A 306.4,306.4 0 0,1 892.3547942160926,202.17808269373293 L 850.5818816578719,232.71502120015097 A 254.65562023812137,254.65562023812137 0 0 0 827.3237691847376,205.21493845338745 Z "/><path class="wedge" fill="rgb(229,194,178)" d=" M 850.5818816578719,232.71502120015097 L 892.3547942160926,202.17808269373293 A 306.4,306.4 0 0,1 910.3179154648728,229.7441233316825 L 865.5114175032397,255.6257495818948 A 254.65562023812137,254.65562023812137 0 0 0 850.5818816578719,232.71502120015097 Z "/><path class="wedge" fill="rgb(229,198,178)" d=" M 882.2068765508595,455.06887504065094 L 938.167711157771,472.0710566599148 A 306.4,306.4 0 0,1 936.2467833629813,478.1644428382608 L 880.6526218872668,459.9991352568102 A 247.9133417802271,247.9133417802271 0 0 0 882.2068765508595,455.06887504065094 Z "/><path class="wedge" fill="url(#hiddenPattern)" d=" M 882.2068765508595,455.06887504065094 L 938.167711157771,472.0710566599148 A 306.4,306.4 0 0,1 936.2467833629813,478.1644428382608 L 880.6526218872668,459.9991352568102 A 247.9133417802271,247.9133417802271 0 0 0 882.2068765508595,455.06887504065094 Z "/><path class="wedge" fill="rgb(226,191,168)" d=" M 870.3693464605021,465.3820224972334 L 932.7761451316325,488.1943453479207 A 306.4,306.4 0 0,1 932.7697389502322,488.21186883862106 L 870.364329516117,465.3957458642103 A 239.95445391733924,239.95445391733924 0 0 0 870.3693464605021,465.3820224972334 Z "/><path class="wedge" fill="url(#hiddenPattern)" d=" M 870.3693464605021,465.3820224972334 L 932.7761451316325,488.1943453479207 A 306.4,306.4 0 0,1 932.7697389502322,488.21186883862106 L 870.364329516117,465.3957458642103 A 239.95445391733924,239.95445391733924 0 0 0 870.3693464605021,465.3820224972334 Z "/><path class="wedge" fill="rgb(223,184,159)" d=" M 861.2875246169544,462.44971278814 L 932.6096397688709,488.6487345500185 A 306.4,306.4 0 0,1 932.5021353165955,488.9409372641095 L 861.2066793716886,462.6694543857022 A 230.41820710839582,230.41820710839582 0 0 0 861.2875246169544,462.44971278814 Z "/><path class="wedge" fill="url(#hiddenPattern)" d=" M 861.2875246169544,462.44971278814 L 932.6096397688709,488.6487345500185 A 306.4,306.4 0 0,1 932.5021353165955,488.9409372641095 L 861.2066793716886,462.6694543857022 A 230.41820710839582,230.41820710839582 0 0 0 861.2875246169544,462.44971278814 Z "/><path class="wedge" fill="rgb(216,170,140)" d=" M 834.2350415510341,459.96131721285457 L 928.8251021332446,498.4308078419851 A 306.4,306.4 0 0,1 928.7340766173697,498.65437201458735 L 834.1743520026139,460.11037441453874 A 204.28642954919744,204.28642954919744 0 0 0 834.2350415510341,459.96131721285457 Z "/><path class="wedge" fill="url(#hiddenPattern)" d=" M 834.2350415510341,459.96131721285457 L 928.8251021332446,498.4308078419851 A 306.4,306.4 0 0,1 928.7340766173697,498.65437201458735 L 834.1743520026139,460.11037441453874 A 204.28642954919744,204.28642954919744 0 0 0 834.2350415510341,459.96131721285457 Z "/><path class="wedge" fill="rgb(216,170,140)" d=" M 816.6762954279282,453.83886738081515 L 928.234960617059,499.8713698227801 A 306.4,306.4 0 0,1 658.562089018195,689.099705555988 L 653.220345383335,568.5352297150939 A 185.71724622030658,185.71724622030658 0 0 0 816.6762954279282,453.83886738081515 Z "/><path class="wedge" fill="rgb(216,170,140)" d=" M 654.0484811910486,587.0859384820386 L 658.5714087472933,689.0992924928346 A 306.4,306.4 0 0,1 658.562089018195,689.099705555988 L 654.0422674371914,587.0862138841169 A 204.28642954919744,204.28642954919744 0 0 0 654.0484811910486,587.0859384820386 Z "/><path class="wedge" fill="rgb(219,177,149)" d=" M 833.8415758092902,460.9217847833537 L 928.234960617059,499.8713698227801 A 306.4,306.4 0 0,1 658.5772335715917,689.0990341842692 L 654.0523647829503,587.0857662596675 A 204.28642954919744,204.28642954919744 0 0 0 833.8415758092902,460.9217847833537 Z "/><path class="wedge" fill="rgb(219,177,149)" d=" M 655.0143010111509,601.5569275345442 L 659.0245652304609,689.0788649516601 A 306.4,306.4 0 0,1 658.5772335715917,689.0990341842692 L 654.6948819197124,601.5713294616766 A 218.78623539446428,218.78623539446428 0 0 0 655.0143010111509,601.5569275345442 Z "/><path class="wedge" fill="rgb(223,184,159)" d=" M 847.2451395741048,466.4525033580948 L 928.234960617059,499.8713698227801 A 306.4,306.4 0 0,1 659.1771637576561,689.0718347509103 L 655.1232646446097,601.5519075895178 A 218.78623539446428,218.78623539446428 0 0 0 847.2451395741048,466.4525033580948 Z "/><path class="wedge" fill="rgb(223,184,159)" d=" M 655.6702372847383,613.1710151242658 L 659.1888123558995,689.0712949688832 A 306.4,306.4 0 0,1 659.1771637576561,689.0718347509103 L 655.6614773332939,613.1714210498759 A 230.41820710839582,230.41820710839582 0 0 0 655.6702372847383,613.1710151242658 Z "/><path class="wedge" fill="rgb(226,191,168)" d=" M 857.9976886938637,470.88933256157725 L 928.234960617059,499.8713698227801 A 306.4,306.4 0 0,1 659.1911420730825,689.0711869592784 L 655.6719892731729,613.1709338991369 A 230.41820710839582,230.41820710839582 0 0 0 857.9976886938637,470.88933256157725 Z "/><path class="wedge" fill="rgb(226,191,168)" d=" M 657.0404267210262,622.6521814612671 L 660.3745291537422,689.0140255826532 A 306.4,306.4 0 0,1 659.1911420730825,689.0711869592784 L 656.1136675803194,622.6969468885297 A 239.95445391733924,239.95445391733924 0 0 0 657.0404267210262,622.6521814612671 Z "/><path class="wedge" fill="rgb(229,198,178)" d=" M 866.8129579150309,474.5267810848453 L 928.234960617059,499.8713698227801 A 306.4,306.4 0 0,1 660.4176207122041,689.011857566949 L 657.0741734944569,622.6504835989158 A 239.95445391733924,239.95445391733924 0 0 0 866.8129579150309,474.5267810848453 Z "/><path class="wedge" fill="rgb(229,198,178)" d=" M 660.4956812822495,630.4285935259679 L 664.1513563198636,688.8008920050914 A 306.4,306.4 0 0,1 660.4176207122041,689.011857566949 L 657.4746536327108,630.599289274795 A 247.9133417802271,247.9133417802271 0 0 0 660.4956812822495,630.4285935259679 Z "/><path class="wedge" fill="rgb(229,198,178)" d=" M 874.1701227009338,477.56257131592105 L 928.234960617059,499.8713698227801 A 306.4,306.4 0 0,1 682.9223520480248,687.0441665533901 L 675.6836064764753,629.007197712255 A 247.9133417802271,247.9133417802271 0 0 0 874.1701227009338,477.56257131592105 Z "/><path class="wedge" fill="rgb(229,198,178)" d=" M 880.4026585151992,480.1343053860931 L 928.234960617059,499.8713698227801 A 306.4,306.4 0 0,1 682.9223520480248,687.0441665533901 L 676.5180812065214,635.6976364668285 A 254.65562023812137,254.65562023812137 0 0 0 880.4026585151992,480.1343053860931 Z "/><path class="wedge" fill="rgb(229,202,178)" d=" M 675.6836064764753,629.007197712255 L 682.9223520480248,687.0441665533901 A 306.4,306.4 0 0,1 664.1513563198636,688.8008920050914 L 660.4956812822495,630.4285935259679 A 247.9133417802271,247.9133417802271 0 0 0 675.6836064764753,629.007197712255 Z "/><path class="wedge" fill="rgb(229,202,178)" d=" M 675.0085784021154,635.8813360870002 L 681.1061280085258,687.2651927517045 A 306.4,306.4 0 0,1 664.1513563198636,688.8008920050914 L 660.9171035314495,637.1576887171258 A 254.65562023812137,254.65562023812137 0 0 0 675.0085784021154,635.8813360870002 Z "/><path class="wedge" fill="rgb(229,202,178)" d=" M 676.5180812065214,635.6976364668285 L 682.9223520480248,687.0441665533901 A 306.4,306.4 0 0,1 681.1061280085258,687.2651927517045 L 675.0085784021154,635.8813360870002 A 254.65562023812137,254.65562023812137 0 0 0 676.5180812065214,635.6976364668285 Z "/><path class="wedge" fill="url(#hiddenPattern)" d=" M 676.5180812065214,635.6976364668285 L 682.9223520480248,687.0441665533901 A 306.4,306.4 0 0,1 681.1061280085258,687.2651927517045 L 675.0085784021154,635.8813360870002 A 254.65562023812137,254.65562023812137 0 0 0 676.5180812065214,635.6976364668285 Z "/><path class="wedge" fill="rgb(226,196,168)" d=" M 657.0741734944569,622.6504835989158 L 660.4176207122041,689.011857566949 A 306.4,306.4 0 0,1 660.3745291537422,689.0140255826532 L 657.0404267210262,622.6521814612671 A 239.95445391733924,239.95445391733924 0 0 0 657.0741734944569,622.6504835989158 Z "/><path class="wedge" fill="url(#hiddenPattern)" d=" M 657.0741734944569,622.6504835989158 L 660.4176207122041,689.011857566949 A 306.4,306.4 0 0,1 660.3745291537422,689.0140255826532 L 657.0404267210262,622.6521814612671 A 239.95445391733924,239.95445391733924 0 0 0 657.0741734944569,622.6504835989158 Z "/><path class="wedge" fill="rgb(223,190,159)" d=" M 655.6719892731729,613.1709338991369 L 659.1911420730825,689.0711869592784 A 306.4,306.4 0 0,1 659.1888123558995,689.0712949688832 L 655.6702372847383,613.1710151242658 A 230.41820710839582,230.41820710839582 0 0 0 655.6719892731729,613.1709338991369 Z "/><path class="wedge" fill="url(#hiddenPattern)" d=" M 655.6719892731729,613.1709338991369 L 659.1911420730825,689.0711869592784 A 306.4,306.4 0 0,1 659.1888123558995,689.0712949688832 L 655.6702372847383,613.1710151242658 A 230.41820710839582,230.41820710839582 0 0 0 655.6719892731729,613.1709338991369 Z "/><path class="wedge" fill="rgb(219,184,149)" d=" M 655.1232646446097,601.5519075895178 L 659.1771637576561,689.0718347509103 A 306.4,306.4 0 0,1 659.0245652304609,689.0788649516601 L 655.0143010111509,601.5569275345442 A 218.78623539446428,218.78623539446428 0 0 0 655.1232646446097,601.5519075895178 Z "/><path class="wedge" fill="url(#hiddenPattern)" d=" M 655.1232646446097,601.5519075895178 L 659.1771637576561,689.0718347509103 A 306.4,306.4 0 0,1 659.0245652304609,689.0788649516601 L 655.0143010111509,601.5569275345442 A 218.78623539446428,218.78623539446428 0 0 0 655.1232646446097,601.5519075895178 Z "/><path class="wedge" fill="rgb(216,177,140)" d=" M 654.0523647829503,587.0857662596675 L 658.5772335715917,689.0990341842692 A 306.4,306.4 0 0,1 658.5714087472933,689.0992924928346 L 654.0484811910486,587.0859384820386 A 204.28642954919744,204.28642954919744 0 0 0 654.0523647829503,587.0857662596675 Z "/><path class="wedge" fill="url(#hiddenPattern)" d=" M 654.0523647829503,587.0857662596675 L 658.5772335715917,689.0990341842692 A 306.4,306.4 0 0,1 658.5714087472933,689.0992924928346 L 654.0484811910486,587.0859384820386 A 204.28642954919744,204.28642954919744 0 0 0 654.0523647829503,587.0857662596675 Z "/><path class="wedge" fill="rgb(213,171,130)" d=" M 653.220345383335,568.5352297150939 L 658.562089018195,689.099705555988 A 306.4,306.4 0 0,1 658.5189851077157,689.1016122820286 L 653.1942189487543,568.5363854328143 A 185.71724622030658,185.71724622030658 0 0 0 653.220345383335,568.5352297150939 Z "/><path class="wedge" fill="url(#hiddenPattern)" d=" M 653.220345383335,568.5352297150939 L 658.562089018195,689.099705555988 A 306.4,306.4 0 0,1 658.5189851077157,689.1016122820286 L 653.1942189487543,568.5363854328143 A 185.71724622030658,185.71724622030658 0 0 0 653.220345383335,568.5352297150939 Z "/><path class="wedge" fill="rgb(210,165,121)" d=" M 651.9661294869707,543.9535157941339 L 658.2487058633269,689.1134296187396 A 306.4,306.4 0 0,1 657.6673377628894,689.138038397715 L 651.6604478974614,543.9664550157173 A 161.1041936341874,161.1041936341874 0 0 0 651.9661294869707,543.9535157941339 Z "/><path class="wedge" fill="url(#hiddenPattern)" d=" M 651.9661294869707,543.9535157941339 L 658.2487058633269,689.1134296187396 A 306.4,306.4 0 0,1 657.6673377628894,689.138038397715 L 651.6604478974614,543.9664550157173 A 161.1041936341874,161.1041936341874 0 0 0 651.9661294869707,543.9535157941339 Z "/><path class="wedge" fill="rgb(207,159,111)" d=" M 649.6577230688745,509.88373024156385 L 656.2399420722435,689.1937682288988 A 306.4,306.4 0 0,1 656.2376114220963,689.1938537749018 L 649.6567572700397,509.8837656909985 A 126.96919068892369,126.96919068892369 0 0 0 649.6577230688745,509.88373024156385 Z "/><path class="wedge" fill="url(#hiddenPattern)" d=" M 649.6577230688745,509.88373024156385 L 656.2399420722435,689.1937682288988 A 306.4,306.4 0 0,1 656.2376114220963,689.1938537749018 L 649.6567572700397,509.8837656909985 A 126.96919068892369,126.96919068892369 0 0 0 649.6577230688745,509.88373024156385 Z "/><path class="wedge" fill="rgb(101,204,204)" d=" M 647.8088201928244,459.54848482579115 L 656.2352807712978,689.1939393031646 A 306.4,306.4 0 0,1 646.7328299199017,689.395099994221 L 645.4332074799754,459.59877499855526 A 76.6,76.6 0 0 0 647.8088201928244,459.54848482579115 Z "/><path class="wedge" fill="url(#hiddenPattern)" d=" M 647.8088201928244,459.54848482579115 L 656.2352807712978,689.1939393031646 A 306.4,306.4 0 0,1 646.7328299199017,689.395099994221 L 645.4332074799754,459.59877499855526 A 76.6,76.6 0 0 0 647.8088201928244,459.54848482579115 Z "/><rect fill="rgb(101,204,204)" x="1406.51" y="703.1766666666667" width="22" height="22"/><rect fill="url(#hiddenPattern)" style="stroke:none" x="1406.51" y="703.1766666666667" width="22" height="22"/><path class="line" d="M 651.4848353973485,689.331367819016 L 652.5656412969066,740.386595788852 A 357.46666666666664,357.46666666666664 0 0,0 779.5527154439229,714.1766666666667 L 1015.2333333333333,714.1766666666667 L 1322.9501041666667,714.1766666666667"/><text x="1399.1766666666667" y="714.1766666666667" style="font-color:black;font-weight:normal" text-anchor="end">Viruses&#160;&#160;&#160;0.5%</text><circle cx="645" cy="383" r="76.6"/><circle cx="645" cy="383" r="306.4"/><text x="645" y="383" text-anchor="middle" style="font-color:black;font-weight:bold" transform="rotate(360,645,383)">root</text><rect fill="rgb(220,220,220)" x="1406.51" y="732.51" width="22" height="22"/><path class="line" d="M 645.8664184239389,689.3987749961063 L 646.0469222622595,753.2318531202952 A 370.23333333333335,370.23333333333335 0 0,0 729.2927103082535,743.51 L 1004.2333333333333,743.51 L 1300.1229557291667,743.51"/><text x="1399.1766666666667" y="743.51" style="font-color:black;font-weight:normal" text-anchor="end">[other root]&#160;&#160;&#160;0.09%</text><path class="line" d=" M 647.8088201928244,459.54848482579115 A 76.6,76.6 0 1 0 645,459.6"/><line x1="656.2352807712978" y1="689.1939393031646" x2="647.8088201928244" y2="459.54848482579115"/><text x="645" y="291.2892427933229" text-anchor="middle" style="font-color:black;font-weight:normal" transform="rotate(358.94928440420324,645,383)">cellular organisms</text><path class="line" d=" M 649.6577230688745,509.88373024156385 A 126.96919068892369,126.96919068892369 0 1 0 645,509.9691906889237"/><line x1="656.2399420722435" y1="689.1937682288988" x2="649.6577230688745" y2="509.88373024156385"/><text x="645" y="245.7903084274972" text-anchor="middle" style="font-color:black;font-weight:normal" transform="rotate(358.94884828690704,645,383)">Bacteria</text><path class="line" d=" M 651.9661294869707,543.9535157941339 A 161.1041936341874,161.1041936341874 0 1 0 645,544.1041936341874"/><line x1="658.2487058633269" y1="689.1134296187396" x2="651.9661294869707" y2="543.9535157941339"/><text x="645" y="209.589280072753" text-anchor="middle" style="font-color:black;font-weight:normal" transform="rotate(358.76088173225793,645,383)">Terrabacteria group</text><path class="line" d=" M 816.6762954279282,453.83886738081515 A 185.71724622030658,185.71724622030658 0 1 0 645,568.7172462203066"/><line x1="928.234960617059" y1="499.8713698227801" x2="816.6762954279282" y2="453.83886738081515"/><text x="645" y="187.998162115248" text-anchor="middle" style="font-color:black;font-weight:normal" transform="rotate(326.21126733263395,645,383)">Firmicutes</text><path class="line" d=" M 834.2350415510341,459.96131721285457 A 204.28642954919744,204.28642954919744 0 1 0 645,587.2864295491975"/><line x1="928.8251021332446" y1="498.4308078419851" x2="834.2350415510341" y2="459.96131721285457"/><text x="645" y="171.46366752816914" text-anchor="middle" style="font-color:black;font-weight:normal" transform="rotate(326.0657131850373,645,383)">Bacilli</text><path class="line" d=" M 801.6426495734044,230.25676076269173 A 218.78623539446428,218.78623539446428 0 1 0 645,601.7862353944643"/><line x1="864.3707832796572" y1="169.0901604804733" x2="801.6426495734044" y2="230.25676076269173"/><path class="line" d=" M 808.263232268946,220.40336056319066 A 230.41820710839582,230.41820710839582 0 1 0 645,613.4182071083958"/><line x1="862.1002673572244" y1="166.7861384799262" x2="808.263232268946" y2="220.40336056319066"/><path class="line" d=" M 814.4999490740854,213.15328316787824 A 239.95445391733924,239.95445391733924 0 1 0 645,622.9544539173393"/><line x1="861.4360092027736" y1="166.121199928677" x2="814.4999490740854" y2="213.15328316787824"/><path class="line" d=" M 817.392422799749,204.83749666702516 A 247.9133417802271,247.9133417802271 0 1 0 645,630.9133417802271"/><line x1="858.0625079172563" y1="162.80615876003915" x2="817.392422799749" y2="204.83749666702516"/><text x="367.84332910988644" y="383" text-anchor="end" style="font-color:black;font-weight:normal" transform="rotate(22.02850268817856,645,383)">Enterococcus faecalis&#160;&#160;&#160;62%</text><path class="line" d=" M 545.2655125735325,617.312861227552 A 254.65562023812137,254.65562023812137 0 0 0 645,637.6556202381214"/><line x1="525.0001079147787" y1="664.9237235486494" x2="545.2655125735325" y2="617.312861227552"/><text x="364.4721898809393" y="383" text-anchor="end" style="font-color:black;font-weight:normal" transform="rotate(-78.47156636372667,645,383)">Enterococcus faecalis V583&#160;&#160;&#160;6%</text><path class="line" d=" M 498.4336395657408,591.2493383132755 A 254.65562023812137,254.65562023812137 0 0 0 545.2655125735325,617.312861227552"/><line x1="468.65230032989314" y1="633.564260861484" x2="498.4336395657408" y2="591.2493383132755"/><text x="364.4721898809393" y="383" text-anchor="end" style="font-color:black;font-weight:normal" transform="rotate(-60.90258108753116,645,383)">Enterococcus faecalis str. Symbioflor 1&#160;&#160;&#160;3%</text><path class="line" d=" M 463.81939855939765,561.9499219907175 A 254.65562023812137,254.65562023812137 0 0 0 498.4336395657408,591.2493383132755"/><line x1="427.00466877781366" y1="598.3113920937052" x2="463.81939855939765" y2="561.9499219907175"/><text x="364.4721898809393" y="383" text-anchor="end" style="font-color:black;font-weight:normal" transform="rotate(-49.75356949892545,645,383)">Enterococcus faecalis D32&#160;&#160;&#160;3%</text><path class="line" d=" M 434.98445157381866,527.0241449830985 A 254.65562023812137,254.65562023812137 0 0 0 463.81939855939765,561.9499219907175"/><line x1="392.310646520932" y1="556.288922433982" x2="434.98445157381866" y2="527.0241449830985"/><text x="364.4721898809393" y="383" text-anchor="end" style="font-color:black;font-weight:normal" transform="rotate(-39.54330039032497,645,383)">Enterococcus faecalis OG1RF&#160;&#160;&#160;3%</text><path class="line" d=" M 817.6532900640589,205.09028564270122 A 247.9133417802271,247.9133417802271 0 0 0 817.392422799749,204.83749666702516"/><line x1="858.3849178739395" y1="163.11858463268865" x2="817.6532900640589" y2="205.09028564270122"/><path class="line" d=" M 814.5141694924904,213.1674757414243 A 239.95445391733924,239.95445391733924 0 0 0 814.4999490740854,213.15328316787824"/><line x1="861.4541673829123" y1="166.13932255346484" x2="814.5141694924904" y2="213.1674757414243"/><path class="line" d=" M 809.082316864347,221.2299673626923 A 230.41820710839582,230.41820710839582 0 0 0 808.263232268946,220.40336056319066"/><line x1="863.1894500358867" y1="167.88532385483953" x2="809.082316864347" y2="221.2299673626923"/><path class="line" d=" M 850.2261263113729,458.8264721407396 A 218.78623539446428,218.78623539446428 0 0 0 801.6426495734044,230.25676076269173"/><line x1="932.4096946201016" y1="489.19146593949966" x2="850.2261263113729" y2="458.8264721407396"/><path class="line" d=" M 861.2875246169544,462.44971278814 A 230.41820710839582,230.41820710839582 0 0 0 809.9707003109108,222.13602576718662"/><line x1="932.6096397688709" y1="488.6487345500185" x2="861.2875246169544" y2="462.44971278814"/><path class="line" d=" M 870.3693464605021,465.3820224972334 A 239.95445391733924,239.95445391733924 0 0 0 816.7982914728757,215.47839840256623"/><line x1="932.7761451316325" y1="488.1943453479207" x2="870.3693464605021" y2="465.3820224972334"/><path class="line" d=" M 882.2068765508595,455.06887504065094 A 247.9133417802271,247.9133417802271 0 0 0 822.4965534327865,209.92198709217374"/><line x1="938.167711157771" y1="472.0710566599148" x2="882.2068765508595" y2="455.06887504065094"/><text x="922.1566708901136" y="383" text-anchor="start" style="font-color:black;font-weight:normal" transform="rotate(346.3110412785021,645,383)">17%&#160;&#160;&#160;Staphylococcus epidermidis</text><path class="line" d=" M 850.5818816578719,232.71502120015097 A 254.65562023812137,254.65562023812137 0 0 0 827.3237691847376,205.21493845338745"/><line x1="892.3547942160926" y1="202.17808269373293" x2="850.5818816578719" y2="232.71502120015097"/><text x="925.5278101190606" y="383" text-anchor="start" style="font-color:black;font-weight:normal" transform="rotate(319.7772288622426,645,383)">2%&#160;&#160;&#160;Staphylococcus epidermidis ATCC 12228</text><path class="line" d=" M 865.5114175032397,255.6257495818948 A 254.65562023812137,254.65562023812137 0 0 0 850.5818816578719,232.71502120015097"/><line x1="910.3179154648728" y1="229.7441233316825" x2="865.5114175032397" y2="255.6257495818948"/><text x="925.5278101190606" y="383" text-anchor="start" style="font-color:black;font-weight:normal" transform="rotate(326.91014529974586,645,383)">2%&#160;&#160;&#160;Staphylococcus epidermidis RP62A</text><path class="line" d=" M 880.6526218872668,459.9991352568102 A 247.9133417802271,247.9133417802271 0 0 0 882.2068765508595,455.06887504065094"/><line x1="936.2467833629813" y1="478.1644428382608" x2="880.6526218872668" y2="459.9991352568102"/><path class="line" d=" M 870.364329516117,465.3957458642103 A 239.95445391733924,239.95445391733924 0 0 0 870.3693464605021,465.3820224972334"/><line x1="932.7697389502322" y1="488.21186883862106" x2="870.364329516117" y2="465.3957458642103"/><path class="line" d=" M 861.2066793716886,462.6694543857022 A 230.41820710839582,230.41820710839582 0 0 0 861.2875246169544,462.44971278814"/><line x1="932.5021353165955" y1="488.9409372641095" x2="861.2066793716886" y2="462.6694543857022"/><path class="line" d=" M 834.1743520026139,460.11037441453874 A 204.28642954919744,204.28642954919744 0 0 0 834.2350415510341,459.96131721285457"/><line x1="928.7340766173697" y1="498.65437201458735" x2="834.1743520026139" y2="460.11037441453874"/><path class="line" d=" M 653.220345383335,568.5352297150939 A 185.71724622030658,185.71724622030658 0 0 0 816.6762954279282,453.83886738081515"/><line x1="658.562089018195" y1="689.099705555988" x2="653.220345383335" y2="568.5352297150939"/><text x="645" y="578.001837884752" text-anchor="middle" style="font-color:black;font-weight:normal" transform="rotate(324.9428201767244,645,383)">Actinobacteria</text><path class="line" d=" M 654.0523647829503,587.0857662596675 A 204.28642954919744,204.28642954919744 0 0 0 833.8415758092902,460.9217847833537"/><line x1="658.5772335715917" y1="689.0990341842692" x2="654.0523647829503" y2="587.0857662596675"/><text x="645" y="594.5363324718309" text-anchor="middle" style="font-color:black;font-weight:normal" transform="rotate(324.94140279551186,645,383)">Actinobacteria</text><path class="line" d=" M 655.1232646446097,601.5519075895178 A 218.78623539446428,218.78623539446428 0 0 0 847.2451395741048,466.4525033580948"/><line x1="659.1771637576561" y1="689.0718347509103" x2="655.1232646446097" y2="601.5519075895178"/><path class="line" d=" M 655.6719892731729,613.1709338991369 A 230.41820710839582,230.41820710839582 0 0 0 857.9976886938637,470.88933256157725"/><line x1="659.1911420730825" y1="689.0711869592784" x2="655.6719892731729" y2="613.1709338991369"/><path class="line" d=" M 657.0741734944569,622.6504835989158 A 239.95445391733924,239.95445391733924 0 0 0 866.8129579150309,474.5267810848453"/><line x1="660.4176207122041" y1="689.011857566949" x2="657.0741734944569" y2="622.6504835989158"/><path class="line" d=" M 675.6836064764753,629.007197712255 A 247.9133417802271,247.9133417802271 0 0 0 874.1701227009338,477.56257131592105"/><line x1="682.9223520480248" y1="687.0441665533901" x2="675.6836064764753" y2="629.007197712255"/><path class="line" d=" M 676.5180812065214,635.6976364668285 A 254.65562023812137,254.65562023812137 0 0 0 880.4026585151992,480.1343053860931"/><text x="925.5278101190606" y="383" text-anchor="start" style="font-color:black;font-weight:normal" transform="rotate(412.6564752515549,645,383)">17%&#160;&#160;&#160;Cutibacterium avidum 44067</text><path class="line" d=" M 660.4956812822495,630.4285935259679 A 247.9133417802271,247.9133417802271 0 0 0 675.6836064764753,629.007197712255"/><line x1="664.1513563198636" y1="688.8008920050914" x2="660.4956812822495" y2="630.4285935259679"/><text x="922.1566708901136" y="383" text-anchor="start" style="font-color:black;font-weight:normal" transform="rotate(444.6534200076079,645,383)">1%&#160;&#160;&#160;Cutibacterium acnes</text><path class="line" d=" M 675.0085784021154,635.8813360870002 A 254.65562023812137,254.65562023812137 0 0 0 676.5180812065214,635.6976364668285"/><line x1="681.1061280085258" y1="687.2651927517045" x2="675.0085784021154" y2="635.8813360870002"/><path class="line" d=" M 657.0404267210262,622.6521814612671 A 239.95445391733924,239.95445391733924 0 0 0 657.0741734944569,622.6504835989158"/><line x1="660.3745291537422" y1="689.0140255826532" x2="657.0404267210262" y2="622.6521814612671"/><path class="line" d=" M 655.6702372847383,613.1710151242658 A 230.41820710839582,230.41820710839582 0 0 0 655.6719892731729,613.1709338991369"/><line x1="659.1888123558995" y1="689.0712949688832" x2="655.6702372847383" y2="613.1710151242658"/><path class="line" d=" M 655.0143010111509,601.5569275345442 A 218.78623539446428,218.78623539446428 0 0 0 655.1232646446097,601.5519075895178"/><line x1="659.0245652304609" y1="689.0788649516601" x2="655.0143010111509" y2="601.5569275345442"/><path class="line" d=" M 654.0484811910486,587.0859384820386 A 204.28642954919744,204.28642954919744 0 0 0 654.0523647829503,587.0857662596675"/><line x1="658.5714087472933" y1="689.0992924928346" x2="654.0484811910486" y2="587.0859384820386"/><path class="line" d=" M 653.1942189487543,568.5363854328143 A 185.71724622030658,185.71724622030658 0 0 0 653.220345383335,568.5352297150939"/><line x1="658.5189851077157" y1="689.1016122820286" x2="653.1942189487543" y2="568.5363854328143"/><path class="line" d=" M 651.6604478974614,543.9664550157173 A 161.1041936341874,161.1041936341874 0 0 0 651.9661294869707,543.9535157941339"/><line x1="657.6673377628894" y1="689.138038397715" x2="651.6604478974614" y2="543.9664550157173"/><path class="line" d=" M 649.6567572700397,509.8837656909985 A 126.96919068892369,126.96919068892369 0 0 0 649.6577230688745,509.88373024156385"/><line x1="656.2376114220963" y1="689.1938537749018" x2="649.6567572700397" y2="509.8837656909985"/><path class="line" d=" M 645.4332074799754,459.59877499855526 A 76.6,76.6 0 0 0 647.8088201928244,459.54848482579115"/><line x1="646.7328299199017" y1="689.395099994221" x2="645.4332074799754" y2="459.59877499855526"/></svg>