<?xml version="1.0" standalone="no"?><!DOCTYPE svg PUBLIC "-//W3C//DTD SVG 1.1//EN" 	"http://www.w3.org/Graphics/SVG/1.1/DTD/svg11.dtd"><svg width="1440" height="709" version="1.1"	xmlns="http://www.w3.org/2000/svg"><title>Krona (snapshot) - root</title><defs>	<style type="text/css">	text {font-size: 11px; font-family: sans-serif; dominant-baseline:central}	path {stroke-width:0.27499999999999997;}	path.wedge {stroke:none}	path.line {fill:none;stroke:black;}	line {stroke:black;stroke-width:0.27499999999999997;}	line.tick {stroke-width:0.5499999999999999;}	line.pattern {stroke-width:0.18333333333333332;}	circle {fill:none;stroke:black;stroke-width:0.27499999999999997;}	rect {stroke:black;stroke-width:0.27499999999999997;}	.highlight {stroke:black;stroke-width:1.375;}	.searchHighlight {fill:rgb(255, 255, 100);stroke:none;}	</style><pattern id="hiddenPattern" patternUnits="userSpaceOnUse" x="0" y="0" width="6.6" height="6.6"><line class="pattern" x1="0" y1="0" x2="3.3" y2="3.3"/><line class="pattern" x1="3.3" y1="6.6" x2="6.6" y2="3.3"/></pattern></defs><path class="wedge" fill="rgb(220,220,220)" d=" M 645.5525450491309,425.39784689233295 L 647.2101801965239,638.0913875693318 A 283.6,283.6 0 0,1 645.0000000000001,638.1 L 645,425.4 A 70.9,70.9 0 0 0 645.5525450491309,425.39784689233295 Z "/><path class="wedge" fill="rgb(207,111,111)" d=" M 645,425.4 L 645,638.1 A 283.6,283.6 0 1,1 650.0443525645554,638.0551348630536 L 646.2610881411389,425.3887837157634 A 70.9,70.9 0 1 0 645,425.4 Z "/><path class="wedge" fill="rgb(207,111,111)" d=" M 647.0917064939391,472.00247548404104 L 650.0476723232265,638.0550757861995 A 283.6,283.6 0 0,1 650.0443525645554,638.0551348630536 L 647.0903308181175,472.00249996491686 A 117.52109164288107,117.52109164288107 0 0 0 647.0917064939391,472.00247548404104 Z "/><path class="wedge" fill="rgb(210,121,121)" d=" M 645,472.02109164288106 L 645,638.1 A 283.6,283.6 0 1,1 650.0565250096321,638.054918057908 L 647.0953749613946,472.0024101229656 A 117.52109164288107,117.52109164288107 0 1 0 645,472.02109164288106 Z "/><path class="wedge" fill="rgb(210,121,121)" d=" M 648.100309286862,503.5837894227646 L 650.8963999885161,638.038696595677 A 283.6,283.6 0 0,1 650.0565250096321,638.054918057908 L 647.658705562232,503.5923186185619 A 149.11602256741367,149.11602256741367 0 0 0 648.100309286862,503.5837894227646 Z "/><path class="wedge" fill="rgb(213,130,130)" d=" M 645,503.61602256741367 L 645,638.1 A 283.6,283.6 0 1,1 651.4728854633141,638.0261218190994 L 648.403423606572,503.5771776432585 A 149.11602256741367,149.11602256741367 0 1 0 645,503.61602256741367 Z "/><path class="wedge" fill="rgb(213,130,130)" d=" M 649.0689216850334,526.3493918780857 L 651.7129877793649,638.0205385771445 A 283.6,283.6 0 0,1 651.4728854633141,638.0261218190994 L 648.9233892406859,526.352776030569 A 171.8975555746702,171.8975555746702 0 0 0 649.0689216850334,526.3493918780857 Z "/><path class="wedge" fill="rgb(216,140,140)" d=" M 645,526.3975555746702 L 645,638.1 A 283.6,283.6 0 1,1 651.8114615404326,638.0181898779745 L 649.12860926901,526.3479682686143 A 171.8975555746702,171.8975555746702 0 1 0 645,526.3975555746702 Z "/><path class="wedge" fill="rgb(216,140,140)" d=" M 650.7459765646931,543.4976334555944 L 653.6181310393797,637.9690244407457 A 283.6,283.6 0 0,1 651.8114615404326,638.0181898779745 L 649.5414137013925,543.5304135849309 A 189.08495894305614,189.08495894305614 0 0 0 650.7459765646931,543.4976334555944 Z "/><path class="wedge" fill="rgb(219,149,149)" d=" M 645,543.5849589430561 L 645,638.1 A 283.6,283.6 0 1,1 653.7088431202757,637.9662520504098 L 650.8064571362441,543.4957850165505 A 189.08495894305614,189.08495894305614 0 1 0 645,543.5849589430561 Z "/><path class="wedge" fill="rgb(219,149,149)" d=" M 659.9370855907217,556.4541569274623 L 665.9186972697138,637.3274528834463 A 283.6,283.6 0 0,1 653.7088431202757,637.9662520504098 L 651.218586817644,556.9102942150375 A 202.5057975126308,202.5057975126308 0 0 0 659.9370855907217,556.4541569274623 Z "/><path class="wedge" fill="rgb(223,159,159)" d=" M 645,557.0057975126308 L 645,638.1 A 283.6,283.6 0 1,1 819.2019872360047,578.291482507773 L 769.389676845953,514.2992688355802 A 202.5057975126308,202.5057975126308 0 1 0 645,557.0057975126308 Z "/><path class="wedge" fill="rgb(223,159,159)" d=" M 777.2289523809313,521.8336113036486 L 820.8322465830918,577.0128784172791 A 283.6,283.6 0 0,1 819.2019872360047,578.291482507773 L 776.0029685823755,522.7951441435084 A 213.27220475176588,213.27220475176588 0 0 0 777.2289523809313,521.8336113036486 Z "/><path class="wedge" fill="rgb(226,168,168)" d=" M 645,567.7722047517659 L 645,638.1 A 283.6,283.6 0 1,1 822.5912198021194,575.6115525005315 L 778.5517312826287,520.7797894847467 A 213.27220475176588,213.27220475176588 0 1 0 645,567.7722047517659 Z "/><path class="wedge" fill="rgb(226,168,168)" d=" M 784.7712192204864,527.1032992501617 L 823.4751267167973,574.8987049495146 A 283.6,283.6 0 0,1 822.5912198021194,575.6115525005315 L 784.0789953268007,527.6615595139691 A 222.0988352838036,222.0988352838036 0 0 0 784.7712192204864,527.1032992501617 Z "/><path class="wedge" fill="rgb(229,178,178)" d=" M 645,576.5988352838036 L 645,638.1 A 283.6,283.6 0 1,1 823.5112491745847,574.8694486949798 L 784.7995082042739,527.08038747281 A 222.0988352838036,222.0988352838036 0 1 0 645,576.5988352838036 Z "/><path class="wedge" fill="rgb(229,178,178)" d=" M 792.9413153190314,529.9074534253879 L 827.8429994458918,571.2888317087152 A 283.6,283.6 0 0,1 823.5112491745847,574.8694486949798 L 789.4364240477614,532.804590248821 A 229.4654821438395,229.4654821438395 0 0 0 792.9413153190314,529.9074534253879 Z "/><path class="wedge" fill="rgb(229,178,178)" d=" M 645,583.9654821438395 L 645,638.1 A 283.6,283.6 0 1,1 828.2622864930788,570.9345036017334 L 793.2805674503412,529.6207606542113 A 229.4654821438395,229.4654821438395 0 1 0 645,583.9654821438395 Z "/><path class="wedge" fill="rgb(229,178,178)" d=" M 413.7208200185397,399.96738600275836 L 366.7263821624808,409.206065619987 A 283.6,283.6 0 1,1 828.2622864930788,570.9345036017334 L 797.313222040311,534.3833640849521 A 235.70605058593745,235.70605058593745 0 1 0 413.7208200185397,399.96738600275836 Z "/><path class="wedge" fill="rgb(229,178,178)" d=" M 645,590.2060505859374 L 645,638.1 A 283.6,283.6 0 0,1 494.4635835174687,594.849219496544 L 519.8859513453551,554.2593980569217 A 235.70605058593745,235.70605058593745 0 0 0 645,590.2060505859374 Z "/><path class="wedge" fill="rgb(229,180,178)" d=" M 519.8859513453551,554.2593980569217 L 494.4635835174687,594.849219496544 A 283.6,283.6 0 0,1 429.4669097894615,538.8215858880774 L 465.8658199431996,507.6936285169795 A 235.70605058593745,235.70605058593745 0 0 0 519.8859513453551,554.2593980569217 Z "/><path class="wedge" fill="rgb(229,181,178)" d=" M 465.8658199431996,507.6936285169795 L 429.4669097894615,538.8215858880774 A 283.6,283.6 0 0,1 389.64347891818625,477.87749851975934 L 432.76771129915727,457.04168867159666 A 235.70605058593745,235.70605058593745 0 0 0 465.8658199431996,507.6936285169795 Z "/><path class="wedge" fill="rgb(229,182,178)" d=" M 432.76771129915727,457.04168867159666 L 389.64347891818625,477.87749851975934 A 283.6,283.6 0 0,1 366.7263821624808,409.206065619987 L 413.7208200185397,399.96738600275836 A 235.70605058593745,235.70605058593745 0 0 0 432.76771129915727,457.04168867159666 Z "/><path class="wedge" fill="rgb(229,199,178)" d=" M 793.2805674503412,529.6207606542113 L 828.2622864930788,570.9345036017334 A 283.6,283.6 0 0,1 827.8429994458918,571.2888317087152 L 792.9413153190314,529.9074534253879 A 229.4654821438395,229.4654821438395 0 0 0 793.2805674503412,529.6207606542113 Z "/><path class="wedge" fill="url(#hiddenPattern)" d=" M 793.2805674503412,529.6207606542113 L 828.2622864930788,570.9345036017334 A 283.6,283.6 0 0,1 827.8429994458918,571.2888317087152 L 792.9413153190314,529.9074534253879 A 229.4654821438395,229.4654821438395 0 0 0 793.2805674503412,529.6207606542113 Z "/><path class="wedge" fill="rgb(226,193,168)" d=" M 784.7995082042739,527.08038747281 L 823.5112491745847,574.8694486949798 A 283.6,283.6 0 0,1 823.4751267167973,574.8987049495146 L 784.7712192204864,527.1032992501617 A 222.0988352838036,222.0988352838036 0 0 0 784.7995082042739,527.08038747281 Z "/><path class="wedge" fill="url(#hiddenPattern)" d=" M 784.7995082042739,527.08038747281 L 823.5112491745847,574.8694486949798 A 283.6,283.6 0 0,1 823.4751267167973,574.8987049495146 L 784.7712192204864,527.1032992501617 A 222.0988352838036,222.0988352838036 0 0 0 784.7995082042739,527.08038747281 Z "/><path class="wedge" fill="rgb(223,186,159)" d=" M 778.5517312826287,520.7797894847467 L 822.5912198021194,575.6115525005315 A 283.6,283.6 0 0,1 820.8322465830918,577.0128784172791 L 777.2289523809313,521.8336113036486 A 213.27220475176588,213.27220475176588 0 0 0 778.5517312826287,520.7797894847467 Z "/><path class="wedge" fill="url(#hiddenPattern)" d=" M 778.5517312826287,520.7797894847467 L 822.5912198021194,575.6115525005315 A 283.6,283.6 0 0,1 820.8322465830918,577.0128784172791 L 777.2289523809313,521.8336113036486 A 213.27220475176588,213.27220475176588 0 0 0 778.5517312826287,520.7797894847467 Z "/><path class="wedge" fill="rgb(223,186,159)" d=" M 769.389676845953,514.2992688355802 L 819.2019872360047,578.291482507773 A 283.6,283.6 0 0,1 665.9186972697138,637.3274528834463 L 659.9370855907217,556.4541569274623 A 202.5057975126308,202.5057975126308 0 0 0 769.389676845953,514.2992688355802 Z "/><path class="wedge" fill="rgb(223,186,159)" d=" M 660.8383022615752,567.1832891911118 L 666.0610779150092,637.3168859828882 A 283.6,283.6 0 0,1 665.9186972697138,637.3274528834463 L 660.7312295036904,567.1912356868081 A 213.27220475176588,213.27220475176588 0 0 0 660.8383022615752,567.1832891911118 Z "/><path class="wedge" fill="rgb(226,193,168)" d=" M 776.0029685823755,522.7951441435084 L 819.2019872360047,578.291482507773 A 283.6,283.6 0 0,1 666.421972297873,637.2897789929282 L 661.1097012062717,567.162904256299 A 213.27220475176588,213.27220475176588 0 0 0 776.0029685823755,522.7951441435084 Z "/><path class="wedge" fill="rgb(226,193,168)" d=" M 661.9622414360942,575.9501636935177 L 666.6592386228832,637.2717054131779 A 283.6,283.6 0 0,1 666.421972297873,637.2897789929282 L 661.7764284091661,575.9643178578758 A 222.0988352838036,222.0988352838036 0 0 0 661.9622414360942,575.9501636935177 Z "/><path class="wedge" fill="rgb(229,200,178)" d=" M 781.4247477758838,529.7603230303671 L 819.2019872360047,578.291482507773 A 283.6,283.6 0 0,1 666.6779985677133,637.2702678467067 L 661.9769331212027,575.9490378760322 A 222.0988352838036,222.0988352838036 0 0 0 781.4247477758838,529.7603230303671 Z "/><path class="wedge" fill="rgb(229,200,178)" d=" M 667.1995708367908,582.8891121532877 L 672.4367989054118,636.7696973920935 A 283.6,283.6 0 0,1 666.6779985677133,637.2702678467067 L 662.5400295953942,583.2941320429732 A 229.4654821438395,229.4654821438395 0 0 0 667.1995708367908,582.8891121532877 Z "/><path class="wedge" fill="rgb(229,200,178)" d=" M 785.9497284609478,535.5734147860746 L 819.2019872360047,578.291482507773 A 283.6,283.6 0 0,1 675.7351516913453,636.4296196757446 L 669.8683229958343,582.6139496104514 A 229.4654821438395,229.4654821438395 0 0 0 785.9497284609478,535.5734147860746 Z "/><path class="wedge" fill="rgb(229,200,178)" d=" M 764.131192309413,557.8841225409647 L 788.3378823113047,599.2104646199475 A 283.6,283.6 0 0,1 675.7351516913453,636.4296196757446 L 670.5446446379644,588.8177616254061 A 235.70605058593745,235.70605058593745 0 0 0 764.131192309413,557.8841225409647 Z "/><path class="wedge" fill="rgb(229,200,178)" d=" M 789.7830127490146,540.4979072520418 L 819.2019872360047,578.291482507773 A 283.6,283.6 0 0,1 802.0793437565058,590.6250511170416 L 775.5520160277744,550.7486009985912 A 235.70605058593745,235.70605058593745 0 0 0 789.7830127490146,540.4979072520418 Z "/><path class="wedge" fill="rgb(229,200,178)" d=" M 775.5520160277744,550.7486009985912 L 802.0793437565058,590.6250511170416 A 283.6,283.6 0 0,1 788.3378823113047,599.2104646199475 L 764.131192309413,557.8841225409647 A 235.70605058593745,235.70605058593745 0 0 0 775.5520160277744,550.7486009985912 Z "/><path class="wedge" fill="rgb(229,202,178)" d=" M 669.8683229958343,582.6139496104514 L 675.7351516913453,636.4296196757446 A 283.6,283.6 0 0,1 672.4367989054118,636.7696973920935 L 667.1995708367908,582.8891121532877 A 229.4654821438395,229.4654821438395 0 0 0 669.8683229958343,582.6139496104514 Z "/><path class="wedge" fill="url(#hiddenPattern)" d=" M 669.8683229958343,582.6139496104514 L 675.7351516913453,636.4296196757446 A 283.6,283.6 0 0,1 672.4367989054118,636.7696973920935 L 667.1995708367908,582.8891121532877 A 229.4654821438395,229.4654821438395 0 0 0 669.8683229958343,582.6139496104514 Z "/><path class="wedge" fill="rgb(226,196,168)" d=" M 661.9769331212027,575.9490378760322 L 666.6779985677133,637.2702678467067 A 283.6,283.6 0 0,1 666.6592386228832,637.2717054131779 L 661.9622414360942,575.9501636935177 A 222.0988352838036,222.0988352838036 0 0 0 661.9769331212027,575.9490378760322 Z "/><path class="wedge" fill="url(#hiddenPattern)" d=" M 661.9769331212027,575.9490378760322 L 666.6779985677133,637.2702678467067 A 283.6,283.6 0 0,1 666.6592386228832,637.2717054131779 L 661.9622414360942,575.9501636935177 A 222.0988352838036,222.0988352838036 0 0 0 661.9769331212027,575.9490378760322 Z "/><path class="wedge" fill="rgb(223,189,159)" d=" M 661.1097012062717,567.162904256299 L 666.421972297873,637.2897789929282 A 283.6,283.6 0 0,1 666.0610779150092,637.3168859828882 L 660.8383022615752,567.1832891911118 A 213.27220475176588,213.27220475176588 0 0 0 661.1097012062717,567.162904256299 Z "/><path class="wedge" fill="url(#hiddenPattern)" d=" M 661.1097012062717,567.162904256299 L 666.421972297873,637.2897789929282 A 283.6,283.6 0 0,1 666.0610779150092,637.3168859828882 L 660.8383022615752,567.1832891911118 A 213.27220475176588,213.27220475176588 0 0 0 661.1097012062717,567.162904256299 Z "/><path class="wedge" fill="rgb(216,177,140)" d=" M 650.8064571362441,543.4957850165505 L 653.7088431202757,637.9662520504098 A 283.6,283.6 0 0,1 653.6181310393797,637.9690244407457 L 650.7459765646931,543.4976334555944 A 189.08495894305614,189.08495894305614 0 0 0 650.8064571362441,543.4957850165505 Z "/><path class="wedge" fill="url(#hiddenPattern)" d=" M 650.8064571362441,543.4957850165505 L 653.7088431202757,637.9662520504098 A 283.6,283.6 0 0,1 653.6181310393797,637.9690244407457 L 650.7459765646931,543.4976334555944 A 189.08495894305614,189.08495894305614 0 0 0 650.8064571362441,543.4957850165505 Z "/><path class="wedge" fill="rgb(213,171,130)" d=" M 649.12860926901,526.3479682686143 L 651.8114615404326,638.0181898779745 A 283.6,283.6 0 0,1 651.7129877793649,638.0205385771445 L 649.0689216850334,526.3493918780857 A 171.8975555746702,171.8975555746702 0 0 0 649.12860926901,526.3479682686143 Z "/><path class="wedge" fill="url(#hiddenPattern)" d=" M 649.12860926901,526.3479682686143 L 651.8114615404326,638.0181898779745 A 283.6,283.6 0 0,1 651.7129877793649,638.0205385771445 L 649.0689216850334,526.3493918780857 A 171.8975555746702,171.8975555746702 0 0 0 649.12860926901,526.3479682686143 Z "/><path class="wedge" fill="rgb(210,165,121)" d=" M 648.403423606572,503.5771776432585 L 651.4728854633141,638.0261218190994 A 283.6,283.6 0 0,1 650.8963999885161,638.038696595677 L 648.100309286862,503.5837894227646 A 149.11602256741367,149.11602256741367 0 0 0 648.403423606572,503.5771776432585 Z "/><path class="wedge" fill="url(#hiddenPattern)" d=" M 648.403423606572,503.5771776432585 L 651.4728854633141,638.0261218190994 A 283.6,283.6 0 0,1 650.8963999885161,638.038696595677 L 648.100309286862,503.5837894227646 A 149.11602256741367,149.11602256741367 0 0 0 648.403423606572,503.5771776432585 Z "/><path class="wedge" fill="rgb(207,159,111)" d=" M 647.0953749613946,472.0024101229656 L 650.0565250096321,638.054918057908 A 283.6,283.6 0 0,1 650.0476723232265,638.0550757861995 L 647.0917064939391,472.00247548404104 A 117.52109164288107,117.52109164288107 0 0 0 647.0953749613946,472.0024101229656 Z "/><path class="wedge" fill="url(#hiddenPattern)" d=" M 647.0953749613946,472.0024101229656 L 650.0565250096321,638.054918057908 A 283.6,283.6 0 0,1 650.0476723232265,638.0550757861995 L 647.0917064939391,472.00247548404104 A 117.52109164288107,117.52109164288107 0 0 0 647.0953749613946,472.0024101229656 Z "/><path class="wedge" fill="rgb(101,204,204)" d=" M 646.2610881411389,425.3887837157634 L 650.0443525645554,638.0551348630536 A 283.6,283.6 0 0,1 647.2101801965239,638.0913875693318 L 645.5525450491309,425.39784689233295 A 70.9,70.9 0 0 0 646.2610881411389,425.3887837157634 Z "/><path class="wedge" fill="url(#hiddenPattern)" d=" M 646.2610881411389,425.3887837157634 L 650.0443525645554,638.0551348630536 A 283.6,283.6 0 0,1 647.2101801965239,638.0913875693318 L 645.5525450491309,425.39784689233295 A 70.9,70.9 0 0 0 646.2610881411389,425.3887837157634 Z "/><rect fill="rgb(101,204,204)" x="1407.365" y="647.0316666666668" width="22" height="22"/><rect fill="url(#hiddenPattern)" style="stroke:none" x="1407.365" y="647.0316666666668" width="22" height="22"/><path class="line" d="M 648.6273116712065,638.0768019603154 L 649.2318636164076,685.3396022870346 A 330.8666666666667,330.8666666666667 0 0,0 776.6862879789184,658.0316666666668 L 987.6833333333333,658.0316666666668 L 1323.8051041666668,658.0316666666668"/><text x="1400.0316666666668" y="658.0316666666668" style="font-color:black;font-weight:normal" text-anchor="end">Viruses&#160;&#160;&#160;0.2%</text><circle cx="645" cy="354.5" r="70.9"/><circle cx="645" cy="354.5" r="283.6"/><text x="645" y="354.5" text-anchor="middle" style="font-color:black;font-weight:bold" transform="rotate(360,645,354.5)">root</text><rect fill="rgb(220,220,220)" x="1407.365" y="676.365" width="22" height="22"/><path class="line" d="M 646.1050984882655,638.0978468841596 L 646.3353273399875,697.1807316516929 A 342.68333333333334,342.68333333333334 0 0,0 726.4417504689361,687.365 L 976.6833333333333,687.365 L 1307.0956315104168,687.365"/><text x="1400.0316666666668" y="687.365" style="font-color:black;font-weight:normal" text-anchor="end">[other root]&#160;&#160;&#160;0.1%</text><path class="line" d=" M 646.2610881411389,425.3887837157634 A 70.9,70.9 0 1 0 645,425.4"/><line x1="650.0443525645554" y1="638.0551348630536" x2="646.2610881411389" y2="425.3887837157634"/><text x="645" y="269.6136725071357" text-anchor="middle" style="font-color:black;font-weight:normal" transform="rotate(359.49041721764223,645,354.5)">cellular organisms</text><path class="line" d=" M 647.0953749613946,472.0024101229656 A 117.52109164288107,117.52109164288107 0 1 0 645,472.02109164288106"/><line x1="650.0565250096321" y1="638.054918057908" x2="647.0953749613946" y2="472.0024101229656"/><text x="645" y="227.50042907975913" text-anchor="middle" style="font-color:black;font-weight:normal" transform="rotate(359.4891874215462,645,354.5)">Bacteria</text><path class="line" d=" M 648.403423606572,503.5771776432585 A 149.11602256741367,149.11602256741367 0 1 0 645,503.61602256741367"/><line x1="651.4728854633141" y1="638.0261218190994" x2="648.403423606572" y2="503.5771776432585"/><text x="645" y="193.99321092895806" text-anchor="middle" style="font-color:black;font-weight:normal" transform="rotate(359.34608387582045,645,354.5)">Terrabacteria group</text><path class="line" d=" M 649.12860926901,526.3479682686143 A 171.8975555746702,171.8975555746702 0 1 0 645,526.3975555746702"/><line x1="651.8114615404326" y1="638.0181898779745" x2="649.12860926901" y2="526.3479682686143"/><text x="645" y="174.0087427411368" text-anchor="middle" style="font-color:black;font-weight:normal" transform="rotate(359.3118731844204,645,354.5)">Firmicutes</text><path class="line" d=" M 650.8064571362441,543.4957850165505 A 189.08495894305614,189.08495894305614 0 1 0 645,543.5849589430561"/><line x1="653.7088431202757" y1="637.9662520504098" x2="650.8064571362441" y2="543.4957850165505"/><text x="645" y="158.70462177215654" text-anchor="middle" style="font-color:black;font-weight:normal" transform="rotate(359.12013679307694,645,354.5)">Bacilli</text><path class="line" d=" M 769.389676845953,514.2992688355802 A 202.5057975126308,202.5057975126308 0 1 0 645,557.0057975126308"/><line x1="819.2019872360047" y1="578.291482507773" x2="769.389676845953" y2="514.2992688355802"/><path class="line" d=" M 778.5517312826287,520.7797894847467 A 213.27220475176588,213.27220475176588 0 1 0 645,567.7722047517659"/><line x1="822.5912198021194" y1="575.6115525005315" x2="778.5517312826287" y2="520.7797894847467"/><path class="line" d=" M 784.7995082042739,527.08038747281 A 222.0988352838036,222.0988352838036 0 1 0 645,576.5988352838036"/><line x1="823.5112491745847" y1="574.8694486949798" x2="784.7995082042739" y2="527.08038747281"/><path class="line" d=" M 793.2805674503412,529.6207606542113 A 229.4654821438395,229.4654821438395 0 1 0 645,583.9654821438395"/><line x1="828.2622864930788" y1="570.9345036017334" x2="793.2805674503412" y2="529.6207606542113"/><text x="388.46725892808024" y="354.5" text-anchor="end" style="font-color:black;font-weight:normal" transform="rotate(69.87215089473877,645,354.5)">Enterococcus faecalis&#160;&#160;&#160;89%</text><path class="line" d=" M 519.8859513453551,554.2593980569217 A 235.70605058593745,235.70605058593745 0 0 0 645,590.2060505859374"/><line x1="494.4635835174687" y1="594.849219496544" x2="519.8859513453551" y2="554.2593980569217"/><text x="385.3469747070313" y="354.5" text-anchor="end" style="font-color:black;font-weight:normal" transform="rotate(-73.97005508616958,645,354.5)">Enterococcus faecalis V583&#160;&#160;&#160;9%</text><path class="line" d=" M 465.8658199431996,507.6936285169795 A 235.70605058593745,235.70605058593745 0 0 0 519.8859513453551,554.2593980569217"/><line x1="429.4669097894615" y1="538.8215858880774" x2="465.8658199431996" y2="507.6936285169795"/><text x="385.3469747070313" y="354.5" text-anchor="end" style="font-color:black;font-weight:normal" transform="rotate(-49.23840839540801,645,354.5)">Enterococcus faecalis str. Symbioflor 1&#160;&#160;&#160;5%</text><path class="line" d=" M 432.76771129915727,457.04168867159666 A 235.70605058593745,235.70605058593745 0 0 0 465.8658199431996,507.6936285169795"/><line x1="389.64347891818625" y1="477.87749851975934" x2="432.76771129915727" y2="457.04168867159666"/><text x="385.3469747070313" y="354.5" text-anchor="end" style="font-color:black;font-weight:normal" transform="rotate(-33.162290228151996,645,354.5)">Enterococcus faecalis OG1RF&#160;&#160;&#160;4%</text><path class="line" d=" M 413.7208200185397,399.96738600275836 A 235.70605058593745,235.70605058593745 0 0 0 432.76771129915727,457.04168867159666"/><line x1="366.7263821624808" y1="409.206065619987" x2="413.7208200185397" y2="399.96738600275836"/><text x="385.3469747070313" y="354.5" text-anchor="end" style="font-color:black;font-weight:normal" transform="rotate(-18.454935115833734,645,354.5)">Enterococcus faecalis D32&#160;&#160;&#160;4%</text><path class="line" d=" M 792.9413153190314,529.9074534253879 A 229.4654821438395,229.4654821438395 0 0 0 793.2805674503412,529.6207606542113"/><line x1="827.8429994458918" y1="571.2888317087152" x2="792.9413153190314" y2="529.9074534253879"/><path class="line" d=" M 784.7712192204864,527.1032992501617 A 222.0988352838036,222.0988352838036 0 0 0 784.7995082042739,527.08038747281"/><line x1="823.4751267167973" y1="574.8987049495146" x2="784.7712192204864" y2="527.1032992501617"/><path class="line" d=" M 777.2289523809313,521.8336113036486 A 213.27220475176588,213.27220475176588 0 0 0 778.5517312826287,520.7797894847467"/><line x1="820.8322465830918" y1="577.0128784172791" x2="777.2289523809313" y2="521.8336113036486"/><path class="line" d=" M 659.9370855907217,556.4541569274623 A 202.5057975126308,202.5057975126308 0 0 0 769.389676845953,514.2992688355802"/><line x1="665.9186972697138" y1="637.3274528834463" x2="659.9370855907217" y2="556.4541569274623"/><path class="line" d=" M 661.1097012062717,567.162904256299 A 213.27220475176588,213.27220475176588 0 0 0 776.0029685823755,522.7951441435084"/><line x1="666.421972297873" y1="637.2897789929282" x2="661.1097012062717" y2="567.162904256299"/><path class="line" d=" M 661.9769331212027,575.9490378760322 A 222.0988352838036,222.0988352838036 0 0 0 781.4247477758838,529.7603230303671"/><line x1="666.6779985677133" y1="637.2702678467067" x2="661.9769331212027" y2="575.9490378760322"/><path class="line" d=" M 669.8683229958343,582.6139496104514 A 229.4654821438395,229.4654821438395 0 0 0 785.9497284609478,535.5734147860746"/><line x1="675.7351516913453" y1="636.4296196757446" x2="669.8683229958343" y2="582.6139496104514"/><text x="901.5327410719198" y="354.5" text-anchor="start" style="font-color:black;font-weight:normal" transform="rotate(427.94036482708634,645,354.5)">9%&#160;&#160;&#160;Staphylococcus epidermidis</text><path class="line" d=" M 775.5520160277744,550.7486009985912 A 235.70605058593745,235.70605058593745 0 0 0 789.7830127490146,540.4979072520418"/><line x1="802.0793437565058" y1="590.6250511170416" x2="775.5520160277744" y2="550.7486009985912"/><text x="904.6530252929688" y="354.5" text-anchor="start" style="font-color:black;font-weight:normal" transform="rotate(414.2345109355581,645,354.5)">1%&#160;&#160;&#160;Staphylococcus epidermidis RP62A</text><path class="line" d=" M 764.131192309413,557.8841225409647 A 235.70605058593745,235.70605058593745 0 0 0 775.5520160277744,550.7486009985912"/><line x1="788.3378823113047" y1="599.2104646199475" x2="764.131192309413" y2="557.8841225409647"/><text x="904.6530252929688" y="354.5" text-anchor="start" style="font-color:black;font-weight:normal" transform="rotate(418.0036123707549,645,354.5)">0.9%&#160;&#160;&#160;Staphylococcus epidermidis ATCC 12228</text><path class="line" d=" M 667.1995708367908,582.8891121532877 A 229.4654821438395,229.4654821438395 0 0 0 669.8683229958343,582.6139496104514"/><line x1="672.4367989054118" y1="636.7696973920935" x2="667.1995708367908" y2="582.8891121532877"/><path class="line" d=" M 661.9622414360942,575.9501636935177 A 222.0988352838036,222.0988352838036 0 0 0 661.9769331212027,575.9490378760322"/><line x1="666.6592386228832" y1="637.2717054131779" x2="661.9622414360942" y2="575.9501636935177"/><path class="line" d=" M 660.8383022615752,567.1832891911118 A 213.27220475176588,213.27220475176588 0 0 0 661.1097012062717,567.162904256299"/><line x1="666.0610779150092" y1="637.3168859828882" x2="660.8383022615752" y2="567.1832891911118"/><path class="line" d=" M 650.7459765646931,543.4976334555944 A 189.08495894305614,189.08495894305614 0 0 0 650.8064571362441,543.4957850165505"/><line x1="653.6181310393797" y1="637.9690244407457" x2="650.7459765646931" y2="543.4976334555944"/><path class="line" d=" M 649.0689216850334,526.3493918780857 A 171.8975555746702,171.8975555746702 0 0 0 649.12860926901,526.3479682686143"/><line x1="651.7129877793649" y1="638.0205385771445" x2="649.0689216850334" y2="526.3493918780857"/><path class="line" d=" M 648.100309286862,503.5837894227646 A 149.11602256741367,149.11602256741367 0 0 0 648.403423606572,503.5771776432585"/><line x1="650.8963999885161" y1="638.038696595677" x2="648.100309286862" y2="503.5837894227646"/><path class="line" d=" M 647.0917064939391,472.00247548404104 A 117.52109164288107,117.52109164288107 0 0 0 647.0953749613946,472.0024101229656"/><line x1="650.0476723232265" y1="638.0550757861995" x2="647.0917064939391" y2="472.00247548404104"/><path class="line" d=" M 645.5525450491309,425.39784689233295 A 70.9,70.9 0 0 0 646.2610881411389,425.3887837157634"/><line x1="647.2101801965239" y1="638.0913875693318" x2="645.5525450491309" y2="425.39784689233295"/></svg>