<?xml version="1.0" standalone="no"?><!DOCTYPE svg PUBLIC "-//W3C//DTD SVG 1.1//EN" 	"http://www.w3.org/Graphics/SVG/1.1/DTD/svg11.dtd"><svg width="1440" height="766" version="1.1"	xmlns="http://www.w3.org/2000/svg"><title>Krona (snapshot) - root</title><defs>	<style type="text/css">	text {font-size: 11px; font-family: sans-serif; dominant-baseline:central}	path {stroke-width:0.27499999999999997;}	path.wedge {stroke:none}	path.line {fill:none;stroke:black;}	line {stroke:black;stroke-width:0.27499999999999997;}	line.tick {stroke-width:0.5499999999999999;}	line.pattern {stroke-width:0.18333333333333332;}	circle {fill:none;stroke:black;stroke-width:0.27499999999999997;}	rect {stroke:black;stroke-width:0.27499999999999997;}	.highlight {stroke:black;stroke-width:1.375;}	.searchHighlight {fill:rgb(255, 255, 100);stroke:none;}	</style><pattern id="hiddenPattern" patternUnits="userSpaceOnUse" x="0" y="0" width="6.6" height="6.6"><line class="pattern" x1="0" y1="0" x2="3.3" y2="3.3"/><line class="pattern" x1="3.3" y1="6.6" x2="6.6" y2="3.3"/></pattern></defs><path class="wedge" fill="rgb(220,220,220)" d=" M 645.6238344795587,459.5974596872645 L 647.4953379182347,689.3898387490581 A 306.4,306.4 0 0,1 645.0000000000001,689.4 L 645,459.6 A 76.6,76.6 0 0 0 645.6238344795587,459.5974596872645 Z "/><path class="wedge" fill="rgb(207,111,111)" d=" M 645,459.6 L 645,689.4 A 306.4,306.4 0 1,1 649.7882091618144,689.3625842902861 L 646.1970522904536,459.59064607257153 A 76.6,76.6 0 1 0 645,459.6 Z "/><path class="wedge" fill="rgb(210,121,121)" d=" M 645,509.9691906889237 L 645,689.4 A 306.4,306.4 0 1,1 649.7953074842392,689.3624732667688 L 646.9871289503211,509.9536399743429 A 126.96919068892369,126.96919068892369 0 1 0 645,509.9691906889237 Z "/><path class="wedge" fill="rgb(210,121,121)" d=" M 647.9530485060765,544.0771265917123 L 650.6163284260393,689.348521875022 A 306.4,306.4 0 0,1 649.7953074842392,689.3624732667688 L 647.5213581771421,544.0844621913122 A 161.1041936341874,161.1041936341874 0 0 0 647.9530485060765,544.0771265917123 Z "/><path class="wedge" fill="rgb(213,130,130)" d=" M 645,544.1041936341874 L 645,689.4 A 306.4,306.4 0 1,1 651.3201977723911,689.3348088287028 L 648.3231408803188,544.0699163134175 A 161.1041936341874,161.1041936341874 0 1 0 645,544.1041936341874 Z "/><path class="wedge" fill="rgb(213,130,130)" d=" M 648.9685070855943,568.6748407705405 L 651.5473217796028,689.3300386470682 A 306.4,306.4 0 0,1 651.3201977723911,689.3348088287028 L 648.8308411418284,568.6777321053876 A 185.71724622030658,185.71724622030658 0 0 0 648.9685070855943,568.6748407705405 Z "/><path class="wedge" fill="rgb(216,140,140)" d=" M 645,568.7172462203066 L 645,689.4 A 306.4,306.4 0 1,1 651.8158439477085,689.3241816626308 L 649.1312655634326,568.6712906954072 A 185.71724622030658,185.71724622030658 0 1 0 645,568.7172462203066 Z "/><path class="wedge" fill="rgb(216,140,140)" d=" M 650.6563016282984,587.2081084331592 L 653.483631647658,689.2825296912425 A 306.4,306.4 0 0,1 651.8158439477085,689.3241816626308 L 649.5443355889095,587.2358791006482 A 204.28642954919744,204.28642954919744 0 0 0 650.6563016282984,587.2081084331592 Z "/><path class="wedge" fill="rgb(219,149,149)" d=" M 645,587.2864295491975 L 645,689.4 A 306.4,306.4 0 1,1 653.5924436326741,689.2794963957256 L 650.7288499700448,587.2060860404996 A 204.28642954919744,204.28642954919744 0 1 0 645,587.2864295491975 Z "/><path class="wedge" fill="rgb(219,149,149)" d=" M 659.9897229344183,601.2721351992309 L 665.9924134341678,688.6800264626542 A 306.4,306.4 0 0,1 653.5924436326741,689.2794963957256 L 651.1354712638117,601.7001892785026 A 218.78623539446428,218.78623539446428 0 0 0 659.9897229344183,601.2721351992309 Z "/><path class="wedge" fill="rgb(223,159,159)" d=" M 645,601.7862353944643 L 645,689.4 A 306.4,306.4 0 1,1 799.010146807339,647.8807933399133 L 754.9716065030237,572.1392676342648 A 218.78623539446428,218.78623539446428 0 1 0 645,601.7862353944643 Z "/><path class="wedge" fill="rgb(223,159,159)" d=" M 762.1143121979186,581.4358537297533 L 800.7334626797152,646.8712727861555 A 306.4,306.4 0 0,1 799.010146807339,647.8807933399133 L 760.8183482501563,582.195031001411 A 230.41820710839582,230.41820710839582 0 0 0 762.1143121979186,581.4358537297533 Z "/><path class="wedge" fill="rgb(226,168,168)" d=" M 645,613.4182071083958 L 645,689.4 A 306.4,306.4 0 1,1 802.9614367315498,645.5436049605943 L 763.7897880024478,580.4374240952842 A 230.41820710839582,230.41820710839582 0 1 0 645,613.4182071083958 Z "/><path class="wedge" fill="rgb(226,168,168)" d=" M 769.4421229208242,588.1640757972189 L 803.901265804699,644.9758533255772 A 306.4,306.4 0 0,1 802.9614367315498,645.5436049605943 L 768.7061040826285,588.6087054758781 A 239.95445391733924,239.95445391733924 0 0 0 769.4421229208242,588.1640757972189 Z "/><path class="wedge" fill="rgb(229,178,178)" d=" M 645,622.9544539173393 L 645,689.4 A 306.4,306.4 0 1,1 803.9467876347634,644.9482366815807 L 769.4777729399965,588.1424480663793 A 239.95445391733924,239.95445391733924 0 1 0 645,622.9544539173393 Z "/><path class="wedge" fill="rgb(229,178,178)" d=" M 777.848375642233,592.313960647301 L 809.1893978133076,641.6944175000756 A 306.4,306.4 0 0,1 803.9467876347634,644.9482366815807 L 773.6064924535452,594.9466799254849 A 247.9133417802271,247.9133417802271 0 0 0 777.848375642233,592.313960647301 Z "/><path class="wedge" fill="rgb(229,178,178)" d=" M 645,630.9133417802271 L 645,689.4 A 306.4,306.4 0 1,1 809.6546554237048,641.3985380130875 L 778.224823321679,592.0745596277727 A 247.9133417802271,247.9133417802271 0 1 0 645,630.9133417802271 Z "/><path class="wedge" fill="rgb(229,178,178)" d=" M 391.67578915536706,409.00632843763725 L 340.2019431960049,414.2906466617194 A 306.4,306.4 0 1,1 809.6546554237048,641.3985380130875 L 781.8480202415722,597.7605743026977 A 254.65562023812137,254.65562023812137 0 1 0 391.67578915536706,409.00632843763725 Z "/><path class="wedge" fill="rgb(229,178,178)" d=" M 645,637.6556202381214 L 645,689.4 A 306.4,306.4 0 0,1 466.828951710811,632.2710122568035 L 496.91821537023594,590.1744916241536 A 254.65562023812137,254.65562023812137 0 0 0 645,637.6556202381214 Z "/><path class="wedge" fill="rgb(229,180,178)" d=" M 496.91821537023594,590.1744916241536 L 466.828951710811,632.2710122568035 A 306.4,306.4 0 0,1 398.7175119403198,565.2797193193293 L 440.3093350175405,534.4965893606217 A 254.65562023812137,254.65562023812137 0 0 0 496.91821537023594,590.1744916241536 Z "/><path class="wedge" fill="rgb(229,182,178)" d=" M 440.3093350175405,534.4965893606217 L 398.7175119403198,565.2797193193293 A 306.4,306.4 0 0,1 359.22727222478727,493.52107518439254 L 407.4881486986403,474.8564391333731 A 254.65562023812137,254.65562023812137 0 0 0 440.3093350175405,534.4965893606217 Z "/><path class="wedge" fill="rgb(229,183,178)" d=" M 407.4881486986403,474.8564391333731 L 359.22727222478727,493.52107518439254 A 306.4,306.4 0 0,1 340.2019431960049,414.2906466617194 L 391.67578915536706,409.00632843763725 A 254.65562023812137,254.65562023812137 0 0 0 407.4881486986403,474.8564391333731 Z "/><path class="wedge" fill="rgb(229,200,178)" d=" M 778.224823321679,592.0745596277727 L 809.6546554237048,641.3985380130875 A 306.4,306.4 0 0,1 809.1893978133076,641.6944175000756 L 777.848375642233,592.313960647301 A 247.9133417802271,247.9133417802271 0 0 0 778.224823321679,592.0745596277727 Z "/><path class="wedge" fill="url(#hiddenPattern)" d=" M 778.224823321679,592.0745596277727 L 809.6546554237048,641.3985380130875 A 306.4,306.4 0 0,1 809.1893978133076,641.6944175000756 L 777.848375642233,592.313960647301 A 247.9133417802271,247.9133417802271 0 0 0 778.224823321679,592.0745596277727 Z "/><path class="wedge" fill="rgb(226,193,168)" d=" M 769.4777729399965,588.1424480663793 L 803.9467876347634,644.9482366815807 A 306.4,306.4 0 0,1 803.901265804699,644.9758533255772 L 769.4421229208242,588.1640757972189 A 239.95445391733924,239.95445391733924 0 0 0 769.4777729399965,588.1424480663793 Z "/><path class="wedge" fill="url(#hiddenPattern)" d=" M 769.4777729399965,588.1424480663793 L 803.9467876347634,644.9482366815807 A 306.4,306.4 0 0,1 803.901265804699,644.9758533255772 L 769.4421229208242,588.1640757972189 A 239.95445391733924,239.95445391733924 0 0 0 769.4777729399965,588.1424480663793 Z "/><path class="wedge" fill="rgb(223,187,159)" d=" M 763.7897880024478,580.4374240952842 L 802.9614367315498,645.5436049605943 A 306.4,306.4 0 0,1 800.7334626797152,646.8712727861555 L 762.1143121979186,581.4358537297533 A 230.41820710839582,230.41820710839582 0 0 0 763.7897880024478,580.4374240952842 Z "/><path class="wedge" fill="url(#hiddenPattern)" d=" M 763.7897880024478,580.4374240952842 L 802.9614367315498,645.5436049605943 A 306.4,306.4 0 0,1 800.7334626797152,646.8712727861555 L 762.1143121979186,581.4358537297533 A 230.41820710839582,230.41820710839582 0 0 0 763.7897880024478,580.4374240952842 Z "/><path class="wedge" fill="rgb(223,187,159)" d=" M 754.9716065030237,572.1392676342648 L 799.010146807339,647.8807933399133 A 306.4,306.4 0 0,1 665.9924134341678,688.6800264626542 L 659.9897229344183,601.2721351992309 A 218.78623539446428,218.78623539446428 0 0 0 754.9716065030237,572.1392676342648 Z "/><path class="wedge" fill="rgb(223,187,159)" d=" M 660.8940747643406,612.8693728064553 L 666.1352417367913,688.6701842782959 A 306.4,306.4 0 0,1 665.9924134341678,688.6800264626542 L 660.7866653602453,612.87677430278 A 230.41820710839582,230.41820710839582 0 0 0 660.8940747643406,612.8693728064553 Z "/><path class="wedge" fill="rgb(226,194,168)" d=" M 760.8183482501563,582.195031001411 L 799.010146807339,647.8807933399133 A 306.4,306.4 0 0,1 666.6297931466165,688.6355870124331 L 661.2659861519871,612.8433550519809 A 230.41820710839582,230.41820710839582 0 0 0 760.8183482501563,582.195031001411 Z "/><path class="wedge" fill="rgb(226,194,168)" d=" M 662.1046270536452,622.3440446055097 L 666.8410520983382,688.6205628606126 A 306.4,306.4 0 0,1 666.6297931466165,688.6355870124331 L 661.9391814714145,622.3558106373166 A 239.95445391733924,239.95445391733924 0 0 0 662.1046270536452,622.3440446055097 Z "/><path class="wedge" fill="rgb(229,200,178)" d=" M 765.6116862757319,590.4390539134155 L 799.010146807339,647.8807933399133 A 306.4,306.4 0 0,1 666.8563945219822,688.6194660333329 L 662.1166423372198,622.3431856349125 A 239.95445391733924,239.95445391733924 0 0 0 765.6116862757319,590.4390539134155 Z "/><path class="wedge" fill="rgb(229,200,178)" d=" M 666.9718919455119,629.9377674576622 L 672.1554069811735,688.194272344169 A 306.4,306.4 0 0,1 666.8563945219822,688.6194660333329 L 662.684372732414,630.2817987513451 A 247.9133417802271,247.9133417802271 0 0 0 666.9718919455119,629.9377674576622 Z "/><path class="wedge" fill="rgb(229,200,178)" d=" M 769.6121741614581,597.3194603469179 L 799.010146807339,647.8807933399133 A 306.4,306.4 0 0,1 677.6427214079603,687.6562205816292 L 671.4117694159543,629.5024208176426 A 247.9133417802271,247.9133417802271 0 0 0 769.6121741614581,597.3194603469179 Z "/><path class="wedge" fill="rgb(229,200,178)" d=" M 750.0126902580043,614.9953012533632 L 771.3505916930706,662.1352503336168 A 306.4,306.4 0 0,1 677.6427214079603,687.6562205816292 L 672.1300667963587,636.2063277141538 A 254.65562023812137,254.65562023812137 0 0 0 750.0126902580043,614.9953012533632 Z "/><path class="wedge" fill="rgb(229,200,178)" d=" M 773.0011405293311,603.1481159175629 L 799.010146807339,647.8807933399133 A 306.4,306.4 0 0,1 783.8732379524245,656.12118881663 L 760.420530500166,609.9968855687728 A 254.65562023812137,254.65562023812137 0 0 0 773.0011405293311,603.1481159175629 Z "/><path class="wedge" fill="rgb(229,201,178)" d=" M 760.420530500166,609.9968855687728 L 783.8732379524245,656.12118881663 A 306.4,306.4 0 0,1 771.3505916930706,662.1352503336168 L 750.0126902580043,614.9953012533632 A 254.65562023812137,254.65562023812137 0 0 0 760.420530500166,609.9968855687728 Z "/><path class="wedge" fill="rgb(229,202,178)" d=" M 671.4117694159543,629.5024208176426 L 677.6427214079603,687.6562205816292 A 306.4,306.4 0 0,1 672.1554069811735,688.194272344169 L 666.9718919455119,629.9377674576622 A 247.9133417802271,247.9133417802271 0 0 0 671.4117694159543,629.5024208176426 Z "/><path class="wedge" fill="url(#hiddenPattern)" d=" M 671.4117694159543,629.5024208176426 L 677.6427214079603,687.6562205816292 A 306.4,306.4 0 0,1 672.1554069811735,688.194272344169 L 666.9718919455119,629.9377674576622 A 247.9133417802271,247.9133417802271 0 0 0 671.4117694159543,629.5024208176426 Z "/><path class="wedge" fill="rgb(226,196,168)" d=" M 662.1166423372198,622.3431856349125 L 666.8563945219822,688.6194660333329 A 306.4,306.4 0 0,1 666.8410520983382,688.6205628606126 L 662.1046270536452,622.3440446055097 A 239.95445391733924,239.95445391733924 0 0 0 662.1166423372198,622.3431856349125 Z "/><path class="wedge" fill="url(#hiddenPattern)" d=" M 662.1166423372198,622.3431856349125 L 666.8563945219822,688.6194660333329 A 306.4,306.4 0 0,1 666.8410520983382,688.6205628606126 L 662.1046270536452,622.3440446055097 A 239.95445391733924,239.95445391733924 0 0 0 662.1166423372198,622.3431856349125 Z "/><path class="wedge" fill="rgb(223,189,159)" d=" M 661.2659861519871,612.8433550519809 L 666.6297931466165,688.6355870124331 A 306.4,306.4 0 0,1 666.1352417367913,688.6701842782959 L 660.8940747643406,612.8693728064553 A 230.41820710839582,230.41820710839582 0 0 0 661.2659861519871,612.8433550519809 Z "/><path class="wedge" fill="url(#hiddenPattern)" d=" M 661.2659861519871,612.8433550519809 L 666.6297931466165,688.6355870124331 A 306.4,306.4 0 0,1 666.1352417367913,688.6701842782959 L 660.8940747643406,612.8693728064553 A 230.41820710839582,230.41820710839582 0 0 0 661.2659861519871,612.8433550519809 Z "/><path class="wedge" fill="rgb(216,177,140)" d=" M 650.7288499700448,587.2060860404996 L 653.5924436326741,689.2794963957256 A 306.4,306.4 0 0,1 653.483631647658,689.2825296912425 L 650.6563016282984,587.2081084331592 A 204.28642954919744,204.28642954919744 0 0 0 650.7288499700448,587.2060860404996 Z "/><path class="wedge" fill="url(#hiddenPattern)" d=" M 650.7288499700448,587.2060860404996 L 653.5924436326741,689.2794963957256 A 306.4,306.4 0 0,1 653.483631647658,689.2825296912425 L 650.6563016282984,587.2081084331592 A 204.28642954919744,204.28642954919744 0 0 0 650.7288499700448,587.2060860404996 Z "/><path class="wedge" fill="rgb(213,171,130)" d=" M 649.1312655634326,568.6712906954072 L 651.8158439477085,689.3241816626308 A 306.4,306.4 0 0,1 651.5473217796028,689.3300386470682 L 648.9685070855943,568.6748407705405 A 185.71724622030658,185.71724622030658 0 0 0 649.1312655634326,568.6712906954072 Z "/><path class="wedge" fill="url(#hiddenPattern)" d=" M 649.1312655634326,568.6712906954072 L 651.8158439477085,689.3241816626308 A 306.4,306.4 0 0,1 651.5473217796028,689.3300386470682 L 648.9685070855943,568.6748407705405 A 185.71724622030658,185.71724622030658 0 0 0 649.1312655634326,568.6712906954072 Z "/><path class="wedge" fill="rgb(210,165,121)" d=" M 648.3231408803188,544.0699163134175 L 651.3201977723911,689.3348088287028 A 306.4,306.4 0 0,1 650.6163284260393,689.348521875022 L 647.9530485060765,544.0771265917123 A 161.1041936341874,161.1041936341874 0 0 0 648.3231408803188,544.0699163134175 Z "/><path class="wedge" fill="url(#hiddenPattern)" d=" M 648.3231408803188,544.0699163134175 L 651.3201977723911,689.3348088287028 A 306.4,306.4 0 0,1 650.6163284260393,689.348521875022 L 647.9530485060765,544.0771265917123 A 161.1041936341874,161.1041936341874 0 0 0 648.3231408803188,544.0699163134175 Z "/><path class="wedge" fill="rgb(207,159,111)" d=" M 646.9871289503211,509.9536399743429 L 649.7953074842392,689.3624732667688 A 306.4,306.4 0 0,1 649.7882091618144,689.3625842902861 L 646.9841874742979,509.95368598141255 A 126.96919068892369,126.96919068892369 0 0 0 646.9871289503211,509.9536399743429 Z "/><path class="wedge" fill="url(#hiddenPattern)" d=" M 646.9871289503211,509.9536399743429 L 649.7953074842392,689.3624732667688 A 306.4,306.4 0 0,1 649.7882091618144,689.3625842902861 L 646.9841874742979,509.95368598141255 A 126.96919068892369,126.96919068892369 0 0 0 646.9871289503211,509.9536399743429 Z "/><path class="wedge" fill="rgb(101,204,204)" d=" M 646.1970522904536,459.59064607257153 L 649.7882091618144,689.3625842902861 A 306.4,306.4 0 0,1 647.4953379182347,689.3898387490581 L 645.6238344795587,459.5974596872645 A 76.6,76.6 0 0 0 646.1970522904536,459.59064607257153 Z "/><path class="wedge" fill="url(#hiddenPattern)" d=" M 646.1970522904536,459.59064607257153 L 649.7882091618144,689.3625842902861 A 306.4,306.4 0 0,1 647.4953379182347,689.3898387490581 L 645.6238344795587,459.5974596872645 A 76.6,76.6 0 0 0 646.1970522904536,459.59064607257153 Z "/><rect fill="rgb(101,204,204)" x="1406.51" y="703.1766666666667" width="22" height="22"/><rect fill="url(#hiddenPattern)" style="stroke:none" x="1406.51" y="703.1766666666667" width="22" height="22"/><path class="line" d="M 648.6417990359441,689.3783564480066 L 649.2487655419349,740.4414158560078 A 357.46666666666664,357.46666666666664 0 0,0 779.5527154439229,714.1766666666667 L 1015.2333333333333,714.1766666666667 L 1322.9501041666667,714.1766666666667"/><text x="1399.1766666666667" y="714.1766666666667" style="font-color:black;font-weight:normal" text-anchor="end">Viruses&#160;&#160;&#160;0.1%</text><circle cx="645" cy="383" r="76.6"/><circle cx="645" cy="383" r="306.4"/><text x="645" y="383" text-anchor="middle" style="font-color:black;font-weight:bold" transform="rotate(360,645,383)">root</text><rect fill="rgb(220,220,220)" x="1406.51" y="732.51" width="22" height="22"/><path class="line" d="M 646.2476793034671,689.3974596767337 L 646.5076124916893,753.2302637760533 A 370.23333333333335,370.23333333333335 0 0,0 729.2927103082535,743.51 L 1004.2333333333333,743.51 L 1306.2406315104167,743.51"/><text x="1399.1766666666667" y="743.51" style="font-color:black;font-weight:normal" text-anchor="end">[other root]&#160;&#160;&#160;0.1%</text><path class="line" d=" M 646.1970522904536,459.59064607257153 A 76.6,76.6 0 1 0 645,459.6"/><line x1="649.7882091618144" y1="689.3625842902861" x2="646.1970522904536" y2="459.59064607257153"/><text x="645" y="291.2892427933229" text-anchor="middle" style="font-color:black;font-weight:normal" transform="rotate(359.55229219316965,645,383)">cellular organisms</text><path class="line" d=" M 646.9871289503211,509.9536399743429 A 126.96919068892369,126.96919068892369 0 1 0 645,509.9691906889237"/><line x1="649.7953074842392" y1="689.3624732667688" x2="646.9871289503211" y2="509.9536399743429"/><text x="645" y="245.7903084274972" text-anchor="middle" style="font-color:black;font-weight:normal" transform="rotate(359.55162843066876,645,383)">Bacteria</text><path class="line" d=" M 648.3231408803188,544.0699163134175 A 161.1041936341874,161.1041936341874 0 1 0 645,544.1041936341874"/><line x1="651.3201977723911" y1="689.3348088287028" x2="648.3231408803188" y2="544.0699163134175"/><text x="645" y="209.589280072753" text-anchor="middle" style="font-color:black;font-weight:normal" transform="rotate(359.4090301200673,645,383)">Terrabacteria group</text><path class="line" d=" M 649.1312655634326,568.6712906954072 A 185.71724622030658,185.71724622030658 0 1 0 645,568.7172462203066"/><line x1="651.8158439477085" y1="689.3241816626308" x2="649.1312655634326" y2="568.6712906954072"/><text x="645" y="187.998162115248" text-anchor="middle" style="font-color:black;font-weight:normal" transform="rotate(359.3626773720905,645,383)">Firmicutes</text><path class="line" d=" M 650.7288499700448,587.2060860404996 A 204.28642954919744,204.28642954919744 0 1 0 645,587.2864295491975"/><line x1="653.5924436326741" y1="689.2794963957256" x2="650.7288499700448" y2="587.2060860404996"/><text x="645" y="171.46366752816914" text-anchor="middle" style="font-color:black;font-weight:normal" transform="rotate(359.1965154927085,645,383)">Bacilli</text><path class="line" d=" M 754.9716065030237,572.1392676342648 A 218.78623539446428,218.78623539446428 0 1 0 645,601.7862353944643"/><line x1="799.010146807339" y1="647.8807933399133" x2="754.9716065030237" y2="572.1392676342648"/><path class="line" d=" M 763.7897880024478,580.4374240952842 A 230.41820710839582,230.41820710839582 0 1 0 645,613.4182071083958"/><line x1="802.9614367315498" y1="645.5436049605943" x2="763.7897880024478" y2="580.4374240952842"/><path class="line" d=" M 769.4777729399965,588.1424480663793 A 239.95445391733924,239.95445391733924 0 1 0 645,622.9544539173393"/><line x1="803.9467876347634" y1="644.9482366815807" x2="769.4777729399965" y2="588.1424480663793"/><path class="line" d=" M 778.224823321679,592.0745596277727 A 247.9133417802271,247.9133417802271 0 1 0 645,630.9133417802271"/><line x1="809.6546554237048" y1="641.3985380130875" x2="778.224823321679" y2="592.0745596277727"/><text x="367.84332910988644" y="383" text-anchor="end" style="font-color:black;font-weight:normal" transform="rotate(73.74711140393146,645,383)">Enterococcus faecalis&#160;&#160;&#160;91%</text><path class="line" d=" M 496.91821537023594,590.1744916241536 A 254.65562023812137,254.65562023812137 0 0 0 645,637.6556202381214"/><line x1="466.828951710811" y1="632.2710122568035" x2="496.91821537023594" y2="590.1744916241536"/><text x="364.4721898809393" y="383" text-anchor="end" style="font-color:black;font-weight:normal" transform="rotate(-72.22200643112112,645,383)">Enterococcus faecalis V583&#160;&#160;&#160;10%</text><path class="line" d=" M 440.3093350175405,534.4965893606217 A 254.65562023812137,254.65562023812137 0 0 0 496.91821537023594,590.1744916241536"/><line x1="398.7175119403198" y1="565.2797193193293" x2="440.3093350175405" y2="534.4965893606217"/><text x="364.4721898809393" y="383" text-anchor="end" style="font-color:black;font-weight:normal" transform="rotate(-45.47503269644911,645,383)">Enterococcus faecalis str. Symbioflor 1&#160;&#160;&#160;5%</text><path class="line" d=" M 407.4881486986403,474.8564391333731 A 254.65562023812137,254.65562023812137 0 0 0 440.3093350175405,534.4965893606217"/><line x1="359.22727222478727" y1="493.52107518439254" x2="407.4881486986403" y2="474.8564391333731"/><text x="364.4721898809393" y="383" text-anchor="end" style="font-color:black;font-weight:normal" transform="rotate(-28.824882243615587,645,383)">Enterococcus faecalis D32&#160;&#160;&#160;4%</text><path class="line" d=" M 391.67578915536706,409.00632843763725 A 254.65562023812137,254.65562023812137 0 0 0 407.4881486986403,474.8564391333731"/><line x1="340.2019431960049" y1="414.2906466617194" x2="391.67578915536706" y2="409.00632843763725"/><text x="364.4721898809393" y="383" text-anchor="end" style="font-color:black;font-weight:normal" transform="rotate(-13.502588673753365,645,383)">Enterococcus faecalis OG1RF&#160;&#160;&#160;4%</text><path class="line" d=" M 777.848375642233,592.313960647301 A 247.9133417802271,247.9133417802271 0 0 0 778.224823321679,592.0745596277727"/><line x1="809.1893978133076" y1="641.6944175000756" x2="777.848375642233" y2="592.313960647301"/><path class="line" d=" M 769.4421229208242,588.1640757972189 A 239.95445391733924,239.95445391733924 0 0 0 769.4777729399965,588.1424480663793"/><line x1="803.901265804699" y1="644.9758533255772" x2="769.4421229208242" y2="588.1640757972189"/><path class="line" d=" M 762.1143121979186,581.4358537297533 A 230.41820710839582,230.41820710839582 0 0 0 763.7897880024478,580.4374240952842"/><line x1="800.7334626797152" y1="646.8712727861555" x2="762.1143121979186" y2="581.4358537297533"/><path class="line" d=" M 659.9897229344183,601.2721351992309 A 218.78623539446428,218.78623539446428 0 0 0 754.9716065030237,572.1392676342648"/><line x1="665.9924134341678" y1="688.6800264626542" x2="659.9897229344183" y2="601.2721351992309"/><path class="line" d=" M 661.2659861519871,612.8433550519809 A 230.41820710839582,230.41820710839582 0 0 0 760.8183482501563,582.195031001411"/><line x1="666.6297931466165" y1="688.6355870124331" x2="661.2659861519871" y2="612.8433550519809"/><path class="line" d=" M 662.1166423372198,622.3431856349125 A 239.95445391733924,239.95445391733924 0 0 0 765.6116862757319,590.4390539134155"/><line x1="666.8563945219822" y1="688.6194660333329" x2="662.1166423372198" y2="622.3431856349125"/><path class="line" d=" M 671.4117694159543,629.5024208176426 A 247.9133417802271,247.9133417802271 0 0 0 769.6121741614581,597.3194603469179"/><line x1="677.6427214079603" y1="687.6562205816292" x2="671.4117694159543" y2="629.5024208176426"/><text x="922.1566708901136" y="383" text-anchor="start" style="font-color:black;font-weight:normal" transform="rotate(431.8546138868949,645,383)">7%&#160;&#160;&#160;Staphylococcus epidermidis</text><path class="line" d=" M 760.420530500166,609.9968855687728 A 254.65562023812137,254.65562023812137 0 0 0 773.0011405293311,603.1481159175629"/><line x1="783.8732379524245" y1="656.12118881663" x2="760.420530500166" y2="609.9968855687728"/><text x="925.5278101190606" y="383" text-anchor="start" style="font-color:black;font-weight:normal" transform="rotate(421.43652955463995,645,383)">0.9%&#160;&#160;&#160;Staphylococcus epidermidis RP62A</text><path class="line" d=" M 750.0126902580043,614.9953012533632 A 254.65562023812137,254.65562023812137 0 0 0 760.420530500166,609.9968855687728"/><line x1="771.3505916930706" y1="662.1352503336168" x2="750.0126902580043" y2="614.9953012533632"/><text x="925.5278101190606" y="383" text-anchor="start" style="font-color:black;font-weight:normal" transform="rotate(424.34712812091294,645,383)">0.7%&#160;&#160;&#160;Staphylococcus epidermidis ATCC 12228</text><path class="line" d=" M 666.9718919455119,629.9377674576622 A 247.9133417802271,247.9133417802271 0 0 0 671.4117694159543,629.5024208176426"/><line x1="672.1554069811735" y1="688.194272344169" x2="666.9718919455119" y2="629.9377674576622"/><path class="line" d=" M 662.1046270536452,622.3440446055097 A 239.95445391733924,239.95445391733924 0 0 0 662.1166423372198,622.3431856349125"/><line x1="666.8410520983382" y1="688.6205628606126" x2="662.1046270536452" y2="622.3440446055097"/><path class="line" d=" M 660.8940747643406,612.8693728064553 A 230.41820710839582,230.41820710839582 0 0 0 661.2659861519871,612.8433550519809"/><line x1="666.1352417367913" y1="688.6701842782959" x2="660.8940747643406" y2="612.8693728064553"/><path class="line" d=" M 650.6563016282984,587.2081084331592 A 204.28642954919744,204.28642954919744 0 0 0 650.7288499700448,587.2060860404996"/><line x1="653.483631647658" y1="689.2825296912425" x2="650.6563016282984" y2="587.2081084331592"/><path class="line" d=" M 648.9685070855943,568.6748407705405 A 185.71724622030658,185.71724622030658 0 0 0 649.1312655634326,568.6712906954072"/><line x1="651.5473217796028" y1="689.3300386470682" x2="648.9685070855943" y2="568.6748407705405"/><path class="line" d=" M 647.9530485060765,544.0771265917123 A 161.1041936341874,161.1041936341874 0 0 0 648.3231408803188,544.0699163134175"/><line x1="650.6163284260393" y1="689.348521875022" x2="647.9530485060765" y2="544.0771265917123"/><path class="line" d=" M 646.9841874742979,509.95368598141255 A 126.96919068892369,126.96919068892369 0 0 0 646.9871289503211,509.9536399743429"/><path class="line" d=" M 645.6238344795587,459.5974596872645 A 76.6,76.6 0 0 0 646.1970522904536,459.59064607257153"/><line x1="647.4953379182347" y1="689.3898387490581" x2="645.6238344795587" y2="459.5974596872645"/></svg>