<?xml version="1.0" standalone="no"?><!DOCTYPE svg PUBLIC "-//W3C//DTD SVG 1.1//EN" 	"http://www.w3.org/Graphics/SVG/1.1/DTD/svg11.dtd"><svg width="1440" height="766" version="1.1"	xmlns="http://www.w3.org/2000/svg"><title>Krona (snapshot) - root</title><defs>	<style type="text/css">	text {font-size: 11px; font-family: sans-serif; dominant-baseline:central}	path {stroke-width:0.27499999999999997;}	path.wedge {stroke:none}	path.line {fill:none;stroke:black;}	line {stroke:black;stroke-width:0.27499999999999997;}	line.tick {stroke-width:0.5499999999999999;}	line.pattern {stroke-width:0.18333333333333332;}	circle {fill:none;stroke:black;stroke-width:0.27499999999999997;}	rect {stroke:black;stroke-width:0.27499999999999997;}	.highlight {stroke:black;stroke-width:1.375;}	.searchHighlight {fill:rgb(255, 255, 100);stroke:none;}	</style><pattern id="hiddenPattern" patternUnits="userSpaceOnUse" x="0" y="0" width="6.6" height="6.6"><line class="pattern" x1="0" y1="0" x2="3.3" y2="3.3"/><line class="pattern" x1="3.3" y1="6.6" x2="6.6" y2="3.3"/></pattern></defs><path class="wedge" fill="rgb(220,220,220)" d=" M 645.6026537103432,459.5976292616515 L 647.4106148413728,689.390517046606 A 306.4,306.4 0 0,1 645.0000000000001,689.4 L 645,459.6 A 76.6,76.6 0 0 0 645.6026537103432,459.5976292616515 Z "/><path class="wedge" fill="rgb(207,111,111)" d=" M 645,459.6 L 645,689.4 A 306.4,306.4 0 1,1 650.4925710524393,689.3507657297985 L 646.3731427631099,459.5876914324496 A 76.6,76.6 0 1 0 645,459.6 Z "/><path class="wedge" fill="rgb(207,111,111)" d=" M 647.2780208748311,509.9487534601821 L 650.4972831776042,689.3506812097294 A 306.4,306.4 0 0,1 650.4925710524393,689.3507657297985 L 647.2760682158278,509.9487884844797 A 126.96919068892369,126.96919068892369 0 0 0 647.2780208748311,509.9487534601821 Z "/><path class="wedge" fill="rgb(210,121,121)" d=" M 645,509.9691906889237 L 645,689.4 A 306.4,306.4 0 1,1 650.5184877247341,689.3502999724857 L 647.2868078336693,509.9485954791629 A 126.96919068892369,126.96919068892369 0 1 0 645,509.9691906889237 Z "/><path class="wedge" fill="rgb(210,121,121)" d=" M 648.2280241168876,544.0718506344996 L 651.1392976005342,689.3384876651513 A 306.4,306.4 0 0,1 650.5184877247341,689.3502999724857 L 647.9016041611405,544.0780615099828 A 161.1041936341874,161.1041936341874 0 0 0 648.2280241168876,544.0718506344996 Z "/><path class="wedge" fill="rgb(213,130,130)" d=" M 645,544.1041936341874 L 645,689.4 A 306.4,306.4 0 1,1 651.861384214601,689.3231649853788 L 648.6076950754166,544.0637940158016 A 161.1041936341874,161.1041936341874 0 1 0 645,544.1041936341874 Z "/><path class="wedge" fill="rgb(213,130,130)" d=" M 649.2709615912962,568.6681298196856 L 652.0463172279693,689.3189667871103 A 306.4,306.4 0 0,1 651.861384214601,689.3231649853788 L 649.1588687388877,568.6706744600953 A 185.71724622030658,185.71724622030658 0 0 0 649.2709615912962,568.6681298196856 Z "/><path class="wedge" fill="rgb(216,140,140)" d=" M 645,568.7172462203066 L 645,689.4 A 306.4,306.4 0 1,1 652.3207672007647,689.3125305428953 L 649.4373130703198,568.6642286396869 A 185.71724622030658,185.71724622030658 0 1 0 645,568.7172462203066 Z "/><path class="wedge" fill="rgb(216,140,140)" d=" M 650.9866545332517,587.1986906555933 L 653.9791130670603,689.2684043915222 A 306.4,306.4 0 0,1 652.3207672007647,689.3125305428953 L 649.8809836586329,587.2281109359908 A 204.28642954919744,204.28642954919744 0 0 0 650.9866545332517,587.1986906555933 Z "/><path class="wedge" fill="rgb(219,149,149)" d=" M 645,587.2864295491975 L 645,689.4 A 306.4,306.4 0 1,1 654.2040541410962,689.2617269385253 L 651.1366297580354,587.1942385895645 A 204.28642954919744,204.28642954919744 0 1 0 645,587.2864295491975 Z "/><path class="wedge" fill="rgb(219,149,149)" d=" M 660.8104743536011,601.214219744718 L 667.1418378227004,688.5989185482063 A 306.4,306.4 0 0,1 654.2040541410962,689.2617269385253 L 651.5721943730329,601.6875009213032 A 218.78623539446428,218.78623539446428 0 0 0 660.8104743536011,601.214219744718 Z "/><path class="wedge" fill="rgb(223,159,159)" d=" M 645,601.7862353944643 L 645,689.4 A 306.4,306.4 0 1,1 846.5227519363843,613.8019507109644 L 788.8981861700197,547.8051237524498 A 218.78623539446428,218.78623539446428 0 1 0 645,601.7862353944643 Z "/><path class="wedge" fill="rgb(223,159,159)" d=" M 797.6860221371412,555.5674616229375 L 848.0351584187612,612.4726224321074 A 306.4,306.4 0 0,1 846.5227519363843,613.8019507109644 L 796.548665772623,556.5671399475874 A 230.41820710839582,230.41820710839582 0 0 0 797.6860221371412,555.5674616229375 Z "/><path class="wedge" fill="rgb(226,168,168)" d=" M 645,613.4182071083958 L 645,689.4 A 306.4,306.4 0 1,1 850.001566012836,610.7176276274738 L 799.1647953495141,554.2476745590725 A 230.41820710839582,230.41820710839582 0 1 0 645,613.4182071083958 Z "/><path class="wedge" fill="rgb(226,168,168)" d=" M 806.1613907061758,560.7783622953588 L 850.7884290382161,610.0067894887354 A 306.4,306.4 0 0,1 850.001566012836,610.7176276274738 L 805.5451658773154,561.335048905687 A 239.95445391733924,239.95445391733924 0 0 0 806.1613907061758,560.7783622953588 Z "/><path class="wedge" fill="rgb(229,178,178)" d=" M 645,622.9544539173393 L 645,689.4 A 306.4,306.4 0 1,1 850.8303259161945,609.9688016737832 L 806.1942018761372,560.7486124735819 A 239.95445391733924,239.95445391733924 0 1 0 645,622.9544539173393 Z "/><path class="wedge" fill="rgb(229,178,178)" d=" M 815.1127781087451,563.3404218603376 L 855.2450591736433,605.8855650172779 A 306.4,306.4 0 0,1 850.8303259161945,609.9688016737832 L 811.5407439216615,566.6442366279412 A 247.9133417802271,247.9133417802271 0 0 0 815.1127781087451,563.3404218603376 Z "/><path class="wedge" fill="rgb(229,178,178)" d=" M 645,630.9133417802271 L 645,689.4 A 306.4,306.4 0 1,1 855.6894631567197,605.4655256769759 L 815.472352771098,563.0005610361424 A 247.9133417802271,247.9133417802271 0 1 0 645,630.9133417802271 Z "/><path class="wedge" fill="rgb(229,178,178)" d=" M 391.9190259491745,411.2755281532933 L 340.4946041376833,417.02093312555974 A 306.4,306.4 0 1,1 855.6894631567197,605.4655256769759 L 820.1085375907679,567.8958760537533 A 254.65562023812137,254.65562023812137 0 1 0 391.9190259491745,411.2755281532933 Z "/><path class="wedge" fill="rgb(229,178,178)" d=" M 645,637.6556202381214 L 645,689.4 A 306.4,306.4 0 0,1 474.59202635993466,637.6410856870642 L 503.37027343070406,594.6376749795951 A 254.65562023812137,254.65562023812137 0 0 0 645,637.6556202381214 Z "/><path class="wedge" fill="rgb(229,180,178)" d=" M 503.37027343070406,594.6376749795951 L 474.59202635993466,637.6410856870642 A 306.4,306.4 0 0,1 402.44046011038796,570.2053140499481 L 443.4035571956185,538.5903569231783 A 254.65562023812137,254.65562023812137 0 0 0 503.37027343070406,594.6376749795951 Z "/><path class="wedge" fill="rgb(229,181,178)" d=" M 443.4035571956185,538.5903569231783 L 402.44046011038796,570.2053140499481 A 306.4,306.4 0 0,1 360.8474708798811,497.6224244842167 L 408.83473059623134,478.26515861692377 A 254.65562023812137,254.65562023812137 0 0 0 443.4035571956185,538.5903569231783 Z "/><path class="wedge" fill="rgb(229,182,178)" d=" M 408.83473059623134,478.26515861692377 L 360.8474708798811,497.6224244842167 A 306.4,306.4 0 0,1 340.4946041376833,417.02093312555974 L 391.9190259491745,411.2755281532933 A 254.65562023812137,254.65562023812137 0 0 0 408.83473059623134,478.26515861692377 Z "/><path class="wedge" fill="rgb(229,199,178)" d=" M 815.472352771098,563.0005610361424 L 855.6894631567197,605.4655256769759 A 306.4,306.4 0 0,1 855.2450591736433,605.8855650172779 L 815.1127781087451,563.3404218603376 A 247.9133417802271,247.9133417802271 0 0 0 815.472352771098,563.0005610361424 Z "/><path class="wedge" fill="url(#hiddenPattern)" d=" M 815.472352771098,563.0005610361424 L 855.6894631567197,605.4655256769759 A 306.4,306.4 0 0,1 855.2450591736433,605.8855650172779 L 815.1127781087451,563.3404218603376 A 247.9133417802271,247.9133417802271 0 0 0 815.472352771098,563.0005610361424 Z "/><path class="wedge" fill="rgb(226,192,168)" d=" M 806.1942018761372,560.7486124735819 L 850.8303259161945,609.9688016737832 A 306.4,306.4 0 0,1 850.7884290382161,610.0067894887354 L 806.1613907061758,560.7783622953588 A 239.95445391733924,239.95445391733924 0 0 0 806.1942018761372,560.7486124735819 Z "/><path class="wedge" fill="url(#hiddenPattern)" d=" M 806.1942018761372,560.7486124735819 L 850.8303259161945,609.9688016737832 A 306.4,306.4 0 0,1 850.7884290382161,610.0067894887354 L 806.1613907061758,560.7783622953588 A 239.95445391733924,239.95445391733924 0 0 0 806.1942018761372,560.7486124735819 Z "/><path class="wedge" fill="rgb(223,186,159)" d=" M 799.1647953495141,554.2476745590725 L 850.001566012836,610.7176276274738 A 306.4,306.4 0 0,1 848.0351584187612,612.4726224321074 L 797.6860221371412,555.5674616229375 A 230.41820710839582,230.41820710839582 0 0 0 799.1647953495141,554.2476745590725 Z "/><path class="wedge" fill="url(#hiddenPattern)" d=" M 799.1647953495141,554.2476745590725 L 850.001566012836,610.7176276274738 A 306.4,306.4 0 0,1 848.0351584187612,612.4726224321074 L 797.6860221371412,555.5674616229375 A 230.41820710839582,230.41820710839582 0 0 0 799.1647953495141,554.2476745590725 Z "/><path class="wedge" fill="rgb(223,186,159)" d=" M 788.8981861700197,547.8051237524498 L 846.5227519363843,613.8019507109644 A 306.4,306.4 0 0,1 667.1418378227004,688.5989185482063 L 660.8104743536011,601.214219744718 A 218.78623539446428,218.78623539446428 0 0 0 788.8981861700197,547.8051237524498 Z "/><path class="wedge" fill="rgb(223,186,159)" d=" M 661.7730046585227,612.806911301146 L 667.3040040622905,688.5871257150559 A 306.4,306.4 0 0,1 667.1418378227004,688.5989185482063 L 661.6510527845675,612.8157797197858 A 230.41820710839582,230.41820710839582 0 0 0 661.7730046585227,612.806911301146 Z "/><path class="wedge" fill="rgb(226,193,168)" d=" M 796.548665772623,556.5671399475874 L 846.5227519363843,613.8019507109644 A 306.4,306.4 0 0,1 667.879760666965,688.5445573919169 L 662.2059837857418,612.7748991709329 A 230.41820710839582,230.41820710839582 0 0 0 796.548665772623,556.5671399475874 Z "/><path class="wedge" fill="rgb(226,193,168)" d=" M 663.1159058170243,622.2696259686908 L 668.132363045232,688.5255370340483 A 306.4,306.4 0 0,1 667.879760666965,688.5445573919169 L 662.9180824954342,622.2845215939705 A 239.95445391733924,239.95445391733924 0 0 0 663.1159058170243,622.2696259686908 Z "/><path class="wedge" fill="rgb(229,200,178)" d=" M 802.8207633577498,563.7505092882054 L 846.5227519363843,613.8019507109644 A 306.4,306.4 0 0,1 668.1523355842654,688.5240241895775 L 663.1315471345737,622.2684411979047 A 239.95445391733924,239.95445391733924 0 0 0 802.8207633577498,563.7505092882054 Z "/><path class="wedge" fill="rgb(229,200,178)" d=" M 669.2896469123582,629.7205668068891 L 675.0199568143619,687.9258306422462 A 306.4,306.4 0 0,1 668.1523355842654,688.5240241895775 L 663.7329402242575,630.2045751663875 A 247.9133417802271,247.9133417802271 0 0 0 669.2896469123582,629.7205668068891 Z "/><path class="wedge" fill="rgb(229,200,178)" d=" M 808.0554140903943,569.7457013386112 L 846.5227519363843,613.8019507109644 A 306.4,306.4 0 0,1 679.2943327736901,687.474725945533 L 672.7481156724826,629.355570485561 A 247.9133417802271,247.9133417802271 0 0 0 808.0554140903943,569.7457013386112 Z "/><path class="wedge" fill="rgb(229,200,178)" d=" M 782.4473052651774,597.3775249278791 L 810.375711299326,640.9376554755856 A 306.4,306.4 0 0,1 679.2943327736901,687.474725945533 L 673.5027564723779,636.0554836243202 A 254.65562023812137,254.65562023812137 0 0 0 782.4473052651774,597.3775249278791 Z "/><path class="wedge" fill="rgb(229,200,178)" d=" M 812.4898870315047,574.82445793234 L 846.5227519363843,613.8019507109644 A 306.4,306.4 0 0,1 826.5524830477347,629.8190752336659 L 795.8921676771928,588.1366341064906 A 254.65562023812137,254.65562023812137 0 0 0 812.4898870315047,574.82445793234 Z "/><path class="wedge" fill="rgb(229,200,178)" d=" M 795.8921676771928,588.1366341064906 L 826.5524830477347,629.8190752336659 A 306.4,306.4 0 0,1 810.375711299326,640.9376554755856 L 782.4473052651774,597.3775249278791 A 254.65562023812137,254.65562023812137 0 0 0 795.8921676771928,588.1366341064906 Z "/><path class="wedge" fill="rgb(229,202,178)" d=" M 672.7481156724826,629.355570485561 L 679.2943327736901,687.474725945533 A 306.4,306.4 0 0,1 675.0199568143619,687.9258306422462 L 669.2896469123582,629.7205668068891 A 247.9133417802271,247.9133417802271 0 0 0 672.7481156724826,629.355570485561 Z "/><path class="wedge" fill="url(#hiddenPattern)" d=" M 672.7481156724826,629.355570485561 L 679.2943327736901,687.474725945533 A 306.4,306.4 0 0,1 675.0199568143619,687.9258306422462 L 669.2896469123582,629.7205668068891 A 247.9133417802271,247.9133417802271 0 0 0 672.7481156724826,629.355570485561 Z "/><path class="wedge" fill="rgb(226,196,168)" d=" M 663.1315471345737,622.2684411979047 L 668.1523355842654,688.5240241895775 A 306.4,306.4 0 0,1 668.132363045232,688.5255370340483 L 663.1159058170243,622.2696259686908 A 239.95445391733924,239.95445391733924 0 0 0 663.1315471345737,622.2684411979047 Z "/><path class="wedge" fill="url(#hiddenPattern)" d=" M 663.1315471345737,622.2684411979047 L 668.1523355842654,688.5240241895775 A 306.4,306.4 0 0,1 668.132363045232,688.5255370340483 L 663.1159058170243,622.2696259686908 A 239.95445391733924,239.95445391733924 0 0 0 663.1315471345737,622.2684411979047 Z "/><path class="wedge" fill="rgb(223,189,159)" d=" M 662.2059837857418,612.7748991709329 L 667.879760666965,688.5445573919169 A 306.4,306.4 0 0,1 667.3040040622905,688.5871257150559 L 661.7730046585227,612.806911301146 A 230.41820710839582,230.41820710839582 0 0 0 662.2059837857418,612.7748991709329 Z "/><path class="wedge" fill="url(#hiddenPattern)" d=" M 662.2059837857418,612.7748991709329 L 667.879760666965,688.5445573919169 A 306.4,306.4 0 0,1 667.3040040622905,688.5871257150559 L 661.7730046585227,612.806911301146 A 230.41820710839582,230.41820710839582 0 0 0 662.2059837857418,612.7748991709329 Z "/><path class="wedge" fill="rgb(216,177,140)" d=" M 651.1366297580354,587.1942385895645 L 654.2040541410962,689.2617269385253 A 306.4,306.4 0 0,1 653.9791130670603,689.2684043915222 L 650.9866545332517,587.1986906555933 A 204.28642954919744,204.28642954919744 0 0 0 651.1366297580354,587.1942385895645 Z "/><path class="wedge" fill="url(#hiddenPattern)" d=" M 651.1366297580354,587.1942385895645 L 654.2040541410962,689.2617269385253 A 306.4,306.4 0 0,1 653.9791130670603,689.2684043915222 L 650.9866545332517,587.1986906555933 A 204.28642954919744,204.28642954919744 0 0 0 651.1366297580354,587.1942385895645 Z "/><path class="wedge" fill="rgb(213,171,130)" d=" M 649.4373130703198,568.6642286396869 L 652.3207672007647,689.3125305428953 A 306.4,306.4 0 0,1 652.0463172279693,689.3189667871103 L 649.2709615912962,568.6681298196856 A 185.71724622030658,185.71724622030658 0 0 0 649.4373130703198,568.6642286396869 Z "/><path class="wedge" fill="url(#hiddenPattern)" d=" M 649.4373130703198,568.6642286396869 L 652.3207672007647,689.3125305428953 A 306.4,306.4 0 0,1 652.0463172279693,689.3189667871103 L 649.2709615912962,568.6681298196856 A 185.71724622030658,185.71724622030658 0 0 0 649.4373130703198,568.6642286396869 Z "/><path class="wedge" fill="rgb(210,165,121)" d=" M 648.6076950754166,544.0637940158016 L 651.861384214601,689.3231649853788 A 306.4,306.4 0 0,1 651.1392976005342,689.3384876651513 L 648.2280241168876,544.0718506344996 A 161.1041936341874,161.1041936341874 0 0 0 648.6076950754166,544.0637940158016 Z "/><path class="wedge" fill="url(#hiddenPattern)" d=" M 648.6076950754166,544.0637940158016 L 651.861384214601,689.3231649853788 A 306.4,306.4 0 0,1 651.1392976005342,689.3384876651513 L 648.2280241168876,544.0718506344996 A 161.1041936341874,161.1041936341874 0 0 0 648.6076950754166,544.0637940158016 Z "/><path class="wedge" fill="rgb(207,159,111)" d=" M 647.2868078336693,509.9485954791629 L 650.5184877247341,689.3502999724857 A 306.4,306.4 0 0,1 650.4972831776042,689.3506812097294 L 647.2780208748311,509.9487534601821 A 126.96919068892369,126.96919068892369 0 0 0 647.2868078336693,509.9485954791629 Z "/><path class="wedge" fill="url(#hiddenPattern)" d=" M 647.2868078336693,509.9485954791629 L 650.5184877247341,689.3502999724857 A 306.4,306.4 0 0,1 650.4972831776042,689.3506812097294 L 647.2780208748311,509.9487534601821 A 126.96919068892369,126.96919068892369 0 0 0 647.2868078336693,509.9485954791629 Z "/><path class="wedge" fill="rgb(101,204,204)" d=" M 646.3731427631099,459.5876914324496 L 650.4925710524393,689.3507657297985 A 306.4,306.4 0 0,1 647.4106148413728,689.390517046606 L 645.6026537103432,459.5976292616515 A 76.6,76.6 0 0 0 646.3731427631099,459.5876914324496 Z "/><path class="wedge" fill="url(#hiddenPattern)" d=" M 646.3731427631099,459.5876914324496 L 650.4925710524393,689.3507657297985 A 306.4,306.4 0 0,1 647.4106148413728,689.390517046606 L 645.6026537103432,459.5976292616515 A 76.6,76.6 0 0 0 646.3731427631099,459.5876914324496 Z "/><rect fill="rgb(101,204,204)" x="1406.51" y="703.1766666666667" width="22" height="22"/><rect fill="url(#hiddenPattern)" style="stroke:none" x="1406.51" y="703.1766666666667" width="22" height="22"/><path class="line" d="M 648.9516429317227,689.3745167570896 L 649.6102500870098,740.4369362166045 A 357.46666666666664,357.46666666666664 0 0,0 779.5527154439229,714.1766666666667 L 1015.2333333333333,714.1766666666667 L 1322.9501041666667,714.1766666666667"/><text x="1399.1766666666667" y="714.1766666666667" style="font-color:black;font-weight:normal" text-anchor="end">Viruses&#160;&#160;&#160;0.2%</text><circle cx="645" cy="383" r="76.6"/><circle cx="645" cy="383" r="306.4"/><text x="645" y="383" text-anchor="middle" style="font-color:black;font-weight:bold" transform="rotate(360,645,383)">root</text><rect fill="rgb(220,220,220)" x="1406.51" y="732.51" width="22" height="22"/><path class="line" d="M 646.2053167467362,689.3976292524798 L 646.4564244023063,753.2304686800798 A 370.23333333333335,370.23333333333335 0 0,0 729.2927103082535,743.51 L 1004.2333333333333,743.51 L 1306.2406315104167,743.51"/><text x="1399.1766666666667" y="743.51" style="font-color:black;font-weight:normal" text-anchor="end">[other root]&#160;&#160;&#160;0.1%</text><path class="line" d=" M 646.3731427631099,459.5876914324496 A 76.6,76.6 0 1 0 645,459.6"/><line x1="650.4925710524393" y1="689.3507657297985" x2="646.3731427631099" y2="459.5876914324496"/><text x="645" y="291.2892427933229" text-anchor="middle" style="font-color:black;font-weight:normal" transform="rotate(359.48642624491873,645,383)">cellular organisms</text><path class="line" d=" M 647.2868078336693,509.9485954791629 A 126.96919068892369,126.96919068892369 0 1 0 645,509.9691906889237"/><line x1="650.5184877247341" y1="689.3502999724857" x2="647.2868078336693" y2="509.9485954791629"/><text x="645" y="245.7903084274972" text-anchor="middle" style="font-color:black;font-weight:normal" transform="rotate(359.484002687945,645,383)">Bacteria</text><path class="line" d=" M 648.6076950754166,544.0637940158016 A 161.1041936341874,161.1041936341874 0 1 0 645,544.1041936341874"/><line x1="651.861384214601" y1="689.3231649853788" x2="648.6076950754166" y2="544.0637940158016"/><text x="645" y="209.589280072753" text-anchor="middle" style="font-color:black;font-weight:normal" transform="rotate(359.35841837203066,645,383)">Terrabacteria group</text><path class="line" d=" M 649.4373130703198,568.6642286396869 A 185.71724622030658,185.71724622030658 0 1 0 645,568.7172462203066"/><line x1="652.3207672007647" y1="689.3125305428953" x2="649.4373130703198" y2="568.6642286396869"/><text x="645" y="187.998162115248" text-anchor="middle" style="font-color:black;font-weight:normal" transform="rotate(359.3154553165863,645,383)">Firmicutes</text><path class="line" d=" M 651.1366297580354,587.1942385895645 A 204.28642954919744,204.28642954919744 0 1 0 645,587.2864295491975"/><line x1="654.2040541410962" y1="689.2617269385253" x2="651.1366297580354" y2="587.1942385895645"/><text x="645" y="171.46366752816914" text-anchor="middle" style="font-color:black;font-weight:normal" transform="rotate(359.13930678926437,645,383)">Bacilli</text><path class="line" d=" M 788.8981861700197,547.8051237524498 A 218.78623539446428,218.78623539446428 0 1 0 645,601.7862353944643"/><line x1="846.5227519363843" y1="613.8019507109644" x2="788.8981861700197" y2="547.8051237524498"/><path class="line" d=" M 799.1647953495141,554.2476745590725 A 230.41820710839582,230.41820710839582 0 1 0 645,613.4182071083958"/><line x1="850.001566012836" y1="610.7176276274738" x2="799.1647953495141" y2="554.2476745590725"/><path class="line" d=" M 806.1942018761372,560.7486124735819 A 239.95445391733924,239.95445391733924 0 1 0 645,622.9544539173393"/><line x1="850.8303259161945" y1="609.9688016737832" x2="806.1942018761372" y2="560.7486124735819"/><path class="line" d=" M 815.472352771098,563.0005610361424 A 247.9133417802271,247.9133417802271 0 1 0 645,630.9133417802271"/><line x1="855.6894631567197" y1="605.4655256769759" x2="815.472352771098" y2="563.0005610361424"/><text x="367.84332910988644" y="383" text-anchor="end" style="font-color:black;font-weight:normal" transform="rotate(68.27865029908897,645,383)">Enterococcus faecalis&#160;&#160;&#160;88%</text><path class="line" d=" M 503.37027343070406,594.6376749795951 A 254.65562023812137,254.65562023812137 0 0 0 645,637.6556202381214"/><line x1="474.59202635993466" y1="637.6410856870642" x2="503.37027343070406" y2="594.6376749795951"/><text x="364.4721898809393" y="383" text-anchor="end" style="font-color:black;font-weight:normal" transform="rotate(-73.10461320397904,645,383)">Enterococcus faecalis V583&#160;&#160;&#160;9%</text><path class="line" d=" M 443.4035571956185,538.5903569231783 A 254.65562023812137,254.65562023812137 0 0 0 503.37027343070406,594.6376749795951"/><line x1="402.44046011038796" y1="570.2053140499481" x2="443.4035571956185" y2="538.5903569231783"/><text x="364.4721898809393" y="383" text-anchor="end" style="font-color:black;font-weight:normal" transform="rotate(-46.934934839365916,645,383)">Enterococcus faecalis str. Symbioflor 1&#160;&#160;&#160;5%</text><path class="line" d=" M 408.83473059623134,478.26515861692377 A 254.65562023812137,254.65562023812137 0 0 0 443.4035571956185,538.5903569231783"/><line x1="360.8474708798811" y1="497.6224244842167" x2="408.83473059623134" y2="478.26515861692377"/><text x="364.4721898809393" y="383" text-anchor="end" style="font-color:black;font-weight:normal" transform="rotate(-29.814487729824823,645,383)">Enterococcus faecalis OG1RF&#160;&#160;&#160;4%</text><path class="line" d=" M 391.9190259491745,411.2755281532933 A 254.65562023812137,254.65562023812137 0 0 0 408.83473059623134,478.26515861692377"/><line x1="340.4946041376833" y1="417.02093312555974" x2="391.9190259491745" y2="411.2755281532933"/><text x="364.4721898809393" y="383" text-anchor="end" style="font-color:black;font-weight:normal" transform="rotate(-14.171639242528288,645,383)">Enterococcus faecalis D32&#160;&#160;&#160;4%</text><path class="line" d=" M 815.1127781087451,563.3404218603376 A 247.9133417802271,247.9133417802271 0 0 0 815.472352771098,563.0005610361424"/><line x1="855.2450591736433" y1="605.8855650172779" x2="815.1127781087451" y2="563.3404218603376"/><path class="line" d=" M 806.1613907061758,560.7783622953588 A 239.95445391733924,239.95445391733924 0 0 0 806.1942018761372,560.7486124735819"/><line x1="850.7884290382161" y1="610.0067894887354" x2="806.1613907061758" y2="560.7783622953588"/><path class="line" d=" M 797.6860221371412,555.5674616229375 A 230.41820710839582,230.41820710839582 0 0 0 799.1647953495141,554.2476745590725"/><line x1="848.0351584187612" y1="612.4726224321074" x2="797.6860221371412" y2="555.5674616229375"/><path class="line" d=" M 660.8104743536011,601.214219744718 A 218.78623539446428,218.78623539446428 0 0 0 788.8981861700197,547.8051237524498"/><line x1="667.1418378227004" y1="688.5989185482063" x2="660.8104743536011" y2="601.214219744718"/><path class="line" d=" M 662.2059837857418,612.7748991709329 A 230.41820710839582,230.41820710839582 0 0 0 796.548665772623,556.5671399475874"/><line x1="667.879760666965" y1="688.5445573919169" x2="662.2059837857418" y2="612.7748991709329"/><path class="line" d=" M 663.1315471345737,622.2684411979047 A 239.95445391733924,239.95445391733924 0 0 0 802.8207633577498,563.7505092882054"/><line x1="668.1523355842654" y1="688.5240241895775" x2="663.1315471345737" y2="622.2684411979047"/><path class="line" d=" M 672.7481156724826,629.355570485561 A 247.9133417802271,247.9133417802271 0 0 0 808.0554140903943,569.7457013386112"/><line x1="679.2943327736901" y1="687.474725945533" x2="672.7481156724826" y2="629.355570485561"/><text x="922.1566708901136" y="383" text-anchor="start" style="font-color:black;font-weight:normal" transform="rotate(426.2240247937222,645,383)">10%&#160;&#160;&#160;Staphylococcus epidermidis</text><path class="line" d=" M 795.8921676771928,588.1366341064906 A 254.65562023812137,254.65562023812137 0 0 0 812.4898870315047,574.82445793234"/><line x1="826.5524830477347" y1="629.8190752336659" x2="795.8921676771928" y2="588.1366341064906"/><text x="925.5278101190606" y="383" text-anchor="start" style="font-color:black;font-weight:normal" transform="rotate(411.2686953552163,645,383)">1%&#160;&#160;&#160;Staphylococcus epidermidis RP62A</text><path class="line" d=" M 782.4473052651774,597.3775249278791 A 254.65562023812137,254.65562023812137 0 0 0 795.8921676771928,588.1366341064906"/><line x1="810.375711299326" y1="640.9376554755856" x2="782.4473052651774" y2="597.3775249278791"/><text x="925.5278101190606" y="383" text-anchor="start" style="font-color:black;font-weight:normal" transform="rotate(415.4985734062359,645,383)">1%&#160;&#160;&#160;Staphylococcus epidermidis ATCC 12228</text><path class="line" d=" M 669.2896469123582,629.7205668068891 A 247.9133417802271,247.9133417802271 0 0 0 672.7481156724826,629.355570485561"/><line x1="675.0199568143619" y1="687.9258306422462" x2="669.2896469123582" y2="629.7205668068891"/><path class="line" d=" M 663.1159058170243,622.2696259686908 A 239.95445391733924,239.95445391733924 0 0 0 663.1315471345737,622.2684411979047"/><line x1="668.132363045232" y1="688.5255370340483" x2="663.1159058170243" y2="622.2696259686908"/><path class="line" d=" M 661.7730046585227,612.806911301146 A 230.41820710839582,230.41820710839582 0 0 0 662.2059837857418,612.7748991709329"/><line x1="667.3040040622905" y1="688.5871257150559" x2="661.7730046585227" y2="612.806911301146"/><path class="line" d=" M 650.9866545332517,587.1986906555933 A 204.28642954919744,204.28642954919744 0 0 0 651.1366297580354,587.1942385895645"/><line x1="653.9791130670603" y1="689.2684043915222" x2="650.9866545332517" y2="587.1986906555933"/><path class="line" d=" M 649.2709615912962,568.6681298196856 A 185.71724622030658,185.71724622030658 0 0 0 649.4373130703198,568.6642286396869"/><line x1="652.0463172279693" y1="689.3189667871103" x2="649.2709615912962" y2="568.6681298196856"/><path class="line" d=" M 648.2280241168876,544.0718506344996 A 161.1041936341874,161.1041936341874 0 0 0 648.6076950754166,544.0637940158016"/><line x1="651.1392976005342" y1="689.3384876651513" x2="648.2280241168876" y2="544.0718506344996"/><path class="line" d=" M 647.2780208748311,509.9487534601821 A 126.96919068892369,126.96919068892369 0 0 0 647.2868078336693,509.9485954791629"/><line x1="650.4972831776042" y1="689.3506812097294" x2="647.2780208748311" y2="509.9487534601821"/><path class="line" d=" M 645.6026537103432,459.5976292616515 A 76.6,76.6 0 0 0 646.3731427631099,459.5876914324496"/><line x1="647.4106148413728" y1="689.390517046606" x2="645.6026537103432" y2="459.5976292616515"/></svg>