<?xml version="1.0" standalone="no"?><!DOCTYPE svg PUBLIC "-//W3C//DTD SVG 1.1//EN" 	"http://www.w3.org/Graphics/SVG/1.1/DTD/svg11.dtd"><svg width="1440" height="709" version="1.1"	xmlns="http://www.w3.org/2000/svg"><title>Krona (snapshot) - root</title><defs>	<style type="text/css">	text {font-size: 11px; font-family: sans-serif; dominant-baseline:central}	path {stroke-width:0.27499999999999997;}	path.wedge {stroke:none}	path.line {fill:none;stroke:black;}	line {stroke:black;stroke-width:0.27499999999999997;}	line.tick {stroke-width:0.5499999999999999;}	line.pattern {stroke-width:0.18333333333333332;}	circle {fill:none;stroke:black;stroke-width:0.27499999999999997;}	rect {stroke:black;stroke-width:0.27499999999999997;}	.highlight {stroke:black;stroke-width:1.375;}	.searchHighlight {fill:rgb(255, 255, 100);stroke:none;}	</style><pattern id="hiddenPattern" patternUnits="userSpaceOnUse" x="0" y="0" width="6.6" height="6.6"><line class="pattern" x1="0" y1="0" x2="3.3" y2="3.3"/><line class="pattern" x1="3.3" y1="6.6" x2="6.6" y2="3.3"/></pattern></defs><path class="wedge" fill="rgb(220,220,220)" d=" M 645.4894666318038,425.3983104341447 L 646.9578665272154,638.0932417365789 A 283.6,283.6 0 0,1 645.0000000000001,638.1 L 645,425.4 A 70.9,70.9 0 0 0 645.4894666318038,425.3983104341447 Z "/><path class="wedge" fill="rgb(207,111,111)" d=" M 645,425.4 L 645,638.1 A 283.6,283.6 0 1,1 655.702634466793,637.8979774371551 L 647.6756586166982,425.34949435928877 A 70.9,70.9 0 1 0 645,425.4 Z "/><path class="wedge" fill="rgb(207,111,111)" d=" M 649.4355151908296,471.9373585616024 L 655.7037136103345,637.8979366808232 A 283.6,283.6 0 0,1 655.702634466793,637.8979774371551 L 649.4350680042039,471.9373754506313 A 117.52109164288107,117.52109164288107 0 0 0 649.4355151908296,471.9373585616024 Z "/><path class="wedge" fill="rgb(210,121,121)" d=" M 645,472.02109164288106 L 645,638.1 A 283.6,283.6 0 1,1 655.7091093257139,637.8977328375263 L 649.4377511229932,471.93727409091554 A 117.52109164288107,117.52109164288107 0 1 0 645,472.02109164288106 Z "/><path class="wedge" fill="rgb(210,121,121)" d=" M 651.2373302294999,503.485515732012 L 656.8626209486407,637.8517923434205 A 283.6,283.6 0 0,1 655.7091093257139,637.8977328375263 L 650.6308173056773,503.5096711049169 A 149.11602256741367,149.11602256741367 0 0 0 651.2373302294999,503.485515732012 Z "/><path class="wedge" fill="rgb(213,130,130)" d=" M 645,503.61602256741367 L 645,638.1 A 283.6,283.6 0 1,1 657.4916293998609,637.8247592338809 L 651.5680609714154,503.47130180474755 A 149.11602256741367,149.11602256741367 0 1 0 645,503.61602256741367 Z "/><path class="wedge" fill="rgb(213,130,130)" d=" M 652.7578763682253,526.222406711536 L 657.7990984553179,637.8110359282375 A 283.6,283.6 0 0,1 657.4916293998609,637.8247592338809 L 652.5715111388603,526.2307247746336 A 171.8975555746702,171.8975555746702 0 0 0 652.7578763682253,526.222406711536 Z "/><path class="wedge" fill="rgb(216,140,140)" d=" M 645,526.3975555746702 L 645,638.1 A 283.6,283.6 0 1,1 711.9022343272904,630.0958110023016 L 685.5512360484662,521.5460022493457 A 171.8975555746702,171.8975555746702 0 1 0 645,526.3975555746702 Z "/><path class="wedge" fill="rgb(216,140,140)" d=" M 690.4680281219291,538.0368631016687 L 713.1954442461097,629.7786613307973 A 283.6,283.6 0 0,1 711.9022343272904,630.0958110023016 L 689.6058047636616,538.2483166722442 A 189.08495894305614,189.08495894305614 0 0 0 690.4680281219291,538.0368631016687 Z "/><path class="wedge" fill="rgb(219,149,149)" d=" M 645,543.5849589430561 L 645,638.1 A 283.6,283.6 0 1,1 713.3400900520456,629.7427875379813 L 690.5644679889133,538.012944925922 A 189.08495894305614,189.08495894305614 0 1 0 645,543.5849589430561 Z "/><path class="wedge" fill="rgb(219,149,149)" d=" M 701.6429602728504,548.9226660596828 L 724.3258451397096,626.7799483856106 A 283.6,283.6 0 0,1 713.3400900520456,629.7427875379813 L 693.7985346899666,551.0382940760878 A 202.5057975126308,202.5057975126308 0 0 0 701.6429602728504,548.9226660596828 Z "/><path class="wedge" fill="rgb(223,159,159)" d=" M 645,557.0057975126308 L 645,638.1 A 283.6,283.6 0 1,1 927.0000249034645,384.58231963206055 L 846.3633284261559,375.98040947856236 A 202.5057975126308,202.5057975126308 0 1 0 645,557.0057975126308 Z "/><path class="wedge" fill="rgb(223,159,159)" d=" M 857.2181837910784,375.6772469432459 L 927.1984092732623,382.66057179178574 A 283.6,283.6 0 0,1 927.0000249034645,384.58231963206055 L 857.0689952440576,377.1224352326406 A 213.27220475176588,213.27220475176588 0 0 0 857.2181837910784,375.6772469432459 Z "/><path class="wedge" fill="rgb(226,168,168)" d=" M 645,567.7722047517659 L 645,638.1 A 283.6,283.6 0 1,1 927.3707752985786,380.87622522802883 L 857.3478060838975,374.33538683854323 A 213.27220475176588,213.27220475176588 0 1 0 645,567.7722047517659 Z "/><path class="wedge" fill="rgb(226,168,168)" d=" M 866.2134583402953,374.3115744843403 L 927.4694542190728,379.79757761484603 A 283.6,283.6 0 0,1 927.3707752985786,380.87622522802883 L 866.1361788152288,375.1563078361371 A 222.0988352838036,222.0988352838036 0 0 0 866.2134583402953,374.3115744843403 Z "/><path class="wedge" fill="rgb(229,178,178)" d=" M 645,576.5988352838036 L 645,638.1 A 283.6,283.6 0 1,1 927.4757070149093,379.72766232585013 L 866.2183551621308,374.25682094324543 A 222.0988352838036,222.0988352838036 0 1 0 645,576.5988352838036 Z "/><path class="wedge" fill="rgb(229,178,178)" d=" M 873.836307570732,371.48092556070196 L 927.8223932450919,375.48699309378617 A 283.6,283.6 0 0,1 927.4757070149093,379.72766232585013 L 873.5557979693162,374.91212164655565 A 229.4654821438395,229.4654821438395 0 0 0 873.836307570732,371.48092556070196 Z "/><path class="wedge" fill="rgb(229,178,178)" d=" M 645,583.9654821438395 L 645,638.1 A 283.6,283.6 0 1,1 927.849013463464,375.1251201874115 L 873.8578464326627,371.1881281667102 A 229.4654821438395,229.4654821438395 0 1 0 645,583.9654821438395 Z "/><path class="wedge" fill="rgb(229,178,178)" d=" M 428.35251734185056,447.3504741006061 L 384.3311460222784,466.2170916464498 A 283.6,283.6 0 1,1 927.849013463464,375.1251201874115 L 880.0818895472557,371.64198033228155 A 235.70605058593745,235.70605058593745 0 1 0 428.35251734185056,447.3504741006061 Z "/><path class="wedge" fill="rgb(229,178,178)" d=" M 645,590.2060505859374 L 645,638.1 A 283.6,283.6 0 0,1 517.6375654159945,607.8925221012548 L 539.146345385029,565.0999669693111 A 235.70605058593745,235.70605058593745 0 0 0 645,590.2060505859374 Z "/><path class="wedge" fill="rgb(229,180,178)" d=" M 539.146345385029,565.0999669693111 L 517.6375654159945,607.8925221012548 A 283.6,283.6 0 0,1 456.5632408769845,566.4446810165678 L 488.3861626301142,530.6517761111124 A 235.70605058593745,235.70605058593745 0 0 0 539.146345385029,565.0999669693111 Z "/><path class="wedge" fill="rgb(229,181,178)" d=" M 488.3861626301142,530.6517761111124 L 456.5632408769845,566.4446810165678 A 283.6,283.6 0 0,1 414.4939502161787,519.7147723814626 L 453.421471682969,491.8135454742213 A 235.70605058593745,235.70605058593745 0 0 0 488.3861626301142,530.6517761111124 Z "/><path class="wedge" fill="rgb(229,182,178)" d=" M 453.421471682969,491.8135454742213 L 414.4939502161787,519.7147723814626 A 283.6,283.6 0 0,1 384.3311460222784,466.2170916464498 L 428.35251734185056,447.3504741006061 A 235.70605058593745,235.70605058593745 0 0 0 453.421471682969,491.8135454742213 Z "/><path class="wedge" fill="rgb(229,196,178)" d=" M 873.8578464326627,371.1881281667102 L 927.849013463464,375.1251201874115 A 283.6,283.6 0 0,1 927.8223932450919,375.48699309378617 L 873.836307570732,371.48092556070196 A 229.4654821438395,229.4654821438395 0 0 0 873.8578464326627,371.1881281667102 Z "/><path class="wedge" fill="url(#hiddenPattern)" d=" M 873.8578464326627,371.1881281667102 L 927.849013463464,375.1251201874115 A 283.6,283.6 0 0,1 927.8223932450919,375.48699309378617 L 873.836307570732,371.48092556070196 A 229.4654821438395,229.4654821438395 0 0 0 873.8578464326627,371.1881281667102 Z "/><path class="wedge" fill="rgb(226,189,168)" d=" M 866.2183551621308,374.25682094324543 L 927.4757070149093,379.72766232585013 A 283.6,283.6 0 0,1 927.4694542190728,379.79757761484603 L 866.2134583402953,374.3115744843403 A 222.0988352838036,222.0988352838036 0 0 0 866.2183551621308,374.25682094324543 Z "/><path class="wedge" fill="url(#hiddenPattern)" d=" M 866.2183551621308,374.25682094324543 L 927.4757070149093,379.72766232585013 A 283.6,283.6 0 0,1 927.4694542190728,379.79757761484603 L 866.2134583402953,374.3115744843403 A 222.0988352838036,222.0988352838036 0 0 0 866.2183551621308,374.25682094324543 Z "/><path class="wedge" fill="rgb(223,182,159)" d=" M 857.3478060838975,374.33538683854323 L 927.3707752985786,380.87622522802883 A 283.6,283.6 0 0,1 927.1984092732623,382.66057179178574 L 857.2181837910784,375.6772469432459 A 213.27220475176588,213.27220475176588 0 0 0 857.3478060838975,374.33538683854323 Z "/><path class="wedge" fill="url(#hiddenPattern)" d=" M 857.3478060838975,374.33538683854323 L 927.3707752985786,380.87622522802883 A 283.6,283.6 0 0,1 927.1984092732623,382.66057179178574 L 857.2181837910784,375.6772469432459 A 213.27220475176588,213.27220475176588 0 0 0 857.3478060838975,374.33538683854323 Z "/><path class="wedge" fill="rgb(223,182,159)" d=" M 846.3633284261559,375.98040947856236 L 927.0000249034645,384.58231963206055 A 283.6,283.6 0 0,1 724.3258451397096,626.7799483856106 L 701.6429602728504,548.9226660596828 A 202.5057975126308,202.5057975126308 0 0 0 846.3633284261559,375.98040947856236 Z "/><path class="wedge" fill="rgb(223,182,159)" d=" M 704.8719373471334,559.1958339536495 L 724.6150696308982,626.6955192277551 A 283.6,283.6 0 0,1 724.3258451397096,626.7799483856106 L 704.6544354257511,559.2593261702968 A 213.27220475176588,213.27220475176588 0 0 0 704.8719373471334,559.1958339536495 Z "/><path class="wedge" fill="rgb(226,190,168)" d=" M 857.0689952440576,377.1224352326406 L 927.0000249034645,384.58231963206055 A 283.6,283.6 0 0,1 725.031643592283,626.5733283949712 L 705.1852083174673,559.1039442910674 A 213.27220475176588,213.27220475176588 0 0 0 857.0689952440576,377.1224352326406 Z "/><path class="wedge" fill="rgb(226,190,168)" d=" M 708.1100170246128,567.4436976892606 L 725.5857482562196,626.409722477857 A 283.6,283.6 0 0,1 725.031643592283,626.5733283949712 L 707.6760748508269,567.5718242183036 A 222.0988352838036,222.0988352838036 0 0 0 708.1100170246128,567.4436976892606 Z "/><path class="wedge" fill="rgb(229,197,178)" d=" M 865.8458289177117,378.05870293693846 L 927.0000249034645,384.58231963206055 A 283.6,283.6 0 0,1 725.6043852272874,626.4041983532638 L 708.1246124039053,567.4393715198738 A 222.0988352838036,222.0988352838036 0 0 0 865.8458289177117,378.05870293693846 Z "/><path class="wedge" fill="rgb(229,197,178)" d=" M 717.990842290336,572.047108547211 L 735.2105304908712,623.3698945374056 A 283.6,283.6 0 0,1 725.6043852272874,626.4041983532638 L 710.2183502083471,574.5022142879615 A 229.4654821438395,229.4654821438395 0 0 0 717.990842290336,572.047108547211 Z "/><path class="wedge" fill="rgb(229,197,178)" d=" M 873.1709156524972,378.8401057065439 L 927.0000249034645,384.58231963206055 A 283.6,283.6 0 0,1 757.6605617211131,614.7624787261569 L 736.1555363678808,565.0827050946698 A 229.4654821438395,229.4654821438395 0 0 0 873.1709156524972,378.8401057065439 Z "/><path class="wedge" fill="rgb(229,197,178)" d=" M 866.1335279599688,436.09231026756265 L 911.0664347544276,452.6713415262718 A 283.6,283.6 0 0,1 757.6605617211131,614.7624787261569 L 738.6346123415967,570.8097354592701 A 235.70605058593745,235.70605058593745 0 0 0 866.1335279599688,436.09231026756265 Z "/><path class="wedge" fill="rgb(229,197,178)" d=" M 879.3762769221848,379.5020618932891 L 927.0000249034645,384.58231963206055 A 283.6,283.6 0 0,1 920.0012252312159,423.8057437831098 L 873.5594242085464,412.1014920664235 A 235.70605058593745,235.70605058593745 0 0 0 879.3762769221848,379.5020618932891 Z "/><path class="wedge" fill="rgb(229,197,178)" d=" M 873.5594242085464,412.1014920664235 L 920.0012252312159,423.8057437831098 A 283.6,283.6 0 0,1 911.0664347544276,452.6713415262718 L 866.1335279599688,436.09231026756265 A 235.70605058593745,235.70605058593745 0 0 0 873.5594242085464,412.1014920664235 Z "/><path class="wedge" fill="rgb(229,201,178)" d=" M 736.1555363678808,565.0827050946698 L 757.6605617211131,614.7624787261569 A 283.6,283.6 0 0,1 742.9253581135633,620.6570668577681 L 724.2330377772812,569.8521145010856 A 229.4654821438395,229.4654821438395 0 0 0 736.1555363678808,565.0827050946698 Z "/><path class="wedge" fill="rgb(229,201,178)" d=" M 738.2176566663102,570.9897474904121 L 757.1588833415497,614.979068041132 A 283.6,283.6 0 0,1 742.9253581135633,620.6570668577681 L 726.3878681705276,575.7088542474676 A 235.70605058593745,235.70605058593745 0 0 0 738.2176566663102,570.9897474904121 Z "/><path class="wedge" fill="rgb(229,201,178)" d=" M 738.6346123415967,570.8097354592701 L 757.6605617211131,614.7624787261569 A 283.6,283.6 0 0,1 757.1588833415497,614.979068041132 L 738.2176566663102,570.9897474904121 A 235.70605058593745,235.70605058593745 0 0 0 738.6346123415967,570.8097354592701 Z "/><path class="wedge" fill="url(#hiddenPattern)" d=" M 738.6346123415967,570.8097354592701 L 757.6605617211131,614.7624787261569 A 283.6,283.6 0 0,1 757.1588833415497,614.979068041132 L 738.2176566663102,570.9897474904121 A 235.70605058593745,235.70605058593745 0 0 0 738.6346123415967,570.8097354592701 Z "/><path class="wedge" fill="rgb(229,201,178)" d=" M 724.2330377772812,569.8521145010856 L 742.9253581135633,620.6570668577681 A 283.6,283.6 0 0,1 735.2105304908712,623.3698945374056 L 717.990842290336,572.047108547211 A 229.4654821438395,229.4654821438395 0 0 0 724.2330377772812,569.8521145010856 Z "/><path class="wedge" fill="url(#hiddenPattern)" d=" M 724.2330377772812,569.8521145010856 L 742.9253581135633,620.6570668577681 A 283.6,283.6 0 0,1 735.2105304908712,623.3698945374056 L 717.990842290336,572.047108547211 A 229.4654821438395,229.4654821438395 0 0 0 724.2330377772812,569.8521145010856 Z "/><path class="wedge" fill="rgb(226,195,168)" d=" M 708.1246124039053,567.4393715198738 L 725.6043852272874,626.4041983532638 A 283.6,283.6 0 0,1 725.5857482562196,626.409722477857 L 708.1100170246128,567.4436976892606 A 222.0988352838036,222.0988352838036 0 0 0 708.1246124039053,567.4393715198738 Z "/><path class="wedge" fill="url(#hiddenPattern)" d=" M 708.1246124039053,567.4393715198738 L 725.6043852272874,626.4041983532638 A 283.6,283.6 0 0,1 725.5857482562196,626.409722477857 L 708.1100170246128,567.4436976892606 A 222.0988352838036,222.0988352838036 0 0 0 708.1246124039053,567.4393715198738 Z "/><path class="wedge" fill="rgb(223,188,159)" d=" M 705.1852083174673,559.1039442910674 L 725.031643592283,626.5733283949712 A 283.6,283.6 0 0,1 724.6150696308982,626.6955192277551 L 704.8719373471334,559.1958339536495 A 213.27220475176588,213.27220475176588 0 0 0 705.1852083174673,559.1039442910674 Z "/><path class="wedge" fill="url(#hiddenPattern)" d=" M 705.1852083174673,559.1039442910674 L 725.031643592283,626.5733283949712 A 283.6,283.6 0 0,1 724.6150696308982,626.6955192277551 L 704.8719373471334,559.1958339536495 A 213.27220475176588,213.27220475176588 0 0 0 705.1852083174673,559.1039442910674 Z "/><path class="wedge" fill="rgb(216,176,140)" d=" M 690.5644679889133,538.012944925922 L 713.3400900520456,629.7427875379813 A 283.6,283.6 0 0,1 713.1954442461097,629.7786613307973 L 690.4680281219291,538.0368631016687 A 189.08495894305614,189.08495894305614 0 0 0 690.5644679889133,538.012944925922 Z "/><path class="wedge" fill="url(#hiddenPattern)" d=" M 690.5644679889133,538.012944925922 L 713.3400900520456,629.7427875379813 A 283.6,283.6 0 0,1 713.1954442461097,629.7786613307973 L 690.4680281219291,538.0368631016687 A 189.08495894305614,189.08495894305614 0 0 0 690.5644679889133,538.012944925922 Z "/><path class="wedge" fill="rgb(216,176,140)" d=" M 685.5512360484662,521.5460022493457 L 711.9022343272904,630.0958110023016 A 283.6,283.6 0 0,1 657.83254155533,637.8095230966137 L 652.7781471268391,526.221489743771 A 171.8975555746702,171.8975555746702 0 0 0 685.5512360484662,521.5460022493457 Z "/><path class="wedge" fill="rgb(216,176,140)" d=" M 653.5572939539203,543.3912237735873 L 657.8346991685503,637.8094253590107 A 283.6,283.6 0 0,1 657.83254155533,637.8095230966137 L 653.5558554059402,543.3912889382934 A 189.08495894305614,189.08495894305614 0 0 0 653.5572939539203,543.3912237735873 Z "/><path class="wedge" fill="rgb(219,183,149)" d=" M 689.6058047636616,538.2483166722442 L 711.9022343272904,630.0958110023016 A 283.6,283.6 0 0,1 657.8357779748812,637.8093764840471 L 653.5580132277242,543.3911911871259 A 189.08495894305614,189.08495894305614 0 0 0 689.6058047636616,538.2483166722442 Z "/><path class="wedge" fill="rgb(219,183,149)" d=" M 654.2162836086673,556.7959666989711 L 657.9069787804717,637.8061416537955 A 283.6,283.6 0 0,1 657.8357779748812,637.8093764840471 L 654.1654423677658,556.7982765433997 A 202.5057975126308,202.5057975126308 0 0 0 654.2162836086673,556.7959666989711 Z "/><path class="wedge" fill="rgb(223,189,159)" d=" M 692.7718276369001,551.2903719963376 L 711.9022343272904,630.0958110023016 A 283.6,283.6 0 0,1 657.9770999892086,637.8029383466929 L 654.2663539588006,556.7936793637825 A 202.5057975126308,202.5057975126308 0 0 0 692.7718276369001,551.2903719963376 Z "/><path class="wedge" fill="rgb(223,189,159)" d=" M 654.7598194644534,567.5487719835542 L 657.978178770837,637.8028889294851 A 283.6,283.6 0 0,1 657.9770999892086,637.8029383466929 L 654.7590082016312,567.5488091461664 A 213.27220475176588,213.27220475176588 0 0 0 654.7598194644534,567.5487719835542 Z "/><path class="wedge" fill="rgb(226,196,168)" d=" M 695.3116608526111,561.7529133738076 L 711.9022343272904,630.0958110023016 A 283.6,283.6 0 0,1 657.979257552277,637.8028395081695 L 654.7606307271337,567.5487348178526 A 213.27220475176588,213.27220475176588 0 0 0 695.3116608526111,561.7529133738076 Z "/><path class="wedge" fill="rgb(226,196,168)" d=" M 655.3039871893583,576.359686474185 L 658.1572539008047,637.7946287344498 A 283.6,283.6 0 0,1 657.979257552277,637.8028395081695 L 655.164590921048,576.3661166691072 A 222.0988352838036,222.0988352838036 0 0 0 655.3039871893583,576.359686474185 Z "/><path class="wedge" fill="rgb(229,202,178)" d=" M 697.393893942085,570.3304253621525 L 711.9022343272904,630.0958110023016 A 283.6,283.6 0 0,1 658.1669626437995,637.7941776576723 L 655.3115905056884,576.3593332173905 A 222.0988352838036,222.0988352838036 0 0 0 697.393893942085,570.3304253621525 Z "/><path class="wedge" fill="rgb(229,202,178)" d=" M 656.1118245831757,583.6962801834652 L 658.7332788458931,637.7672890613051 A 283.6,283.6 0 0,1 658.1669626437995,637.7941776576723 L 655.65360871449,583.7180361945003 A 229.4654821438395,229.4654821438395 0 0 0 656.1118245831757,583.6962801834652 Z "/><path class="wedge" fill="rgb(229,202,178)" d=" M 699.1317117644986,577.4891595503018 L 711.9022343272904,630.0958110023016 A 283.6,283.6 0 0,1 662.5330767387419,637.5575051470521 L 659.1863043276458,583.5265405253901 A 229.4654821438395,229.4654821438395 0 0 0 699.1317117644986,577.4891595503018 Z "/><path class="wedge" fill="rgb(229,202,178)" d=" M 700.6038837399879,583.5535972122036 L 711.9022343272904,630.0958110023016 A 283.6,283.6 0 0,1 662.5330767387419,637.5575051470521 L 659.5721166174507,589.7551714630476 A 235.70605058593745,235.70605058593745 0 0 0 700.6038837399879,583.5535972122036 Z "/><path class="wedge" fill="rgb(229,203,178)" d=" M 659.1863043276458,583.5265405253901 L 662.5330767387419,637.5575051470521 A 283.6,283.6 0 0,1 658.7332788458931,637.7672890613051 L 656.1118245831757,583.6962801834652 A 229.4654821438395,229.4654821438395 0 0 0 659.1863043276458,583.5265405253901 Z "/><path class="wedge" fill="url(#hiddenPattern)" d=" M 659.1863043276458,583.5265405253901 L 662.5330767387419,637.5575051470521 A 283.6,283.6 0 0,1 658.7332788458931,637.7672890613051 L 656.1118245831757,583.6962801834652 A 229.4654821438395,229.4654821438395 0 0 0 659.1863043276458,583.5265405253901 Z "/><path class="wedge" fill="rgb(226,196,168)" d=" M 655.3115905056884,576.3593332173905 L 658.1669626437995,637.7941776576723 A 283.6,283.6 0 0,1 658.1572539008047,637.7946287344498 L 655.3039871893583,576.359686474185 A 222.0988352838036,222.0988352838036 0 0 0 655.3115905056884,576.3593332173905 Z "/><path class="wedge" fill="url(#hiddenPattern)" d=" M 655.3115905056884,576.3593332173905 L 658.1669626437995,637.7941776576723 A 283.6,283.6 0 0,1 658.1572539008047,637.7946287344498 L 655.3039871893583,576.359686474185 A 222.0988352838036,222.0988352838036 0 0 0 655.3115905056884,576.3593332173905 Z "/><path class="wedge" fill="rgb(223,190,159)" d=" M 654.7606307271337,567.5487348178526 L 657.979257552277,637.8028395081695 A 283.6,283.6 0 0,1 657.978178770837,637.8028889294851 L 654.7598194644534,567.5487719835542 A 213.27220475176588,213.27220475176588 0 0 0 654.7606307271337,567.5487348178526 Z "/><path class="wedge" fill="url(#hiddenPattern)" d=" M 654.7606307271337,567.5487348178526 L 657.979257552277,637.8028395081695 A 283.6,283.6 0 0,1 657.978178770837,637.8028889294851 L 654.7598194644534,567.5487719835542 A 213.27220475176588,213.27220475176588 0 0 0 654.7606307271337,567.5487348178526 Z "/><path class="wedge" fill="rgb(219,184,149)" d=" M 654.2663539588006,556.7936793637825 L 657.9770999892086,637.8029383466929 A 283.6,283.6 0 0,1 657.9069787804717,637.8061416537955 L 654.2162836086673,556.7959666989711 A 202.5057975126308,202.5057975126308 0 0 0 654.2663539588006,556.7936793637825 Z "/><path class="wedge" fill="url(#hiddenPattern)" d=" M 654.2663539588006,556.7936793637825 L 657.9770999892086,637.8029383466929 A 283.6,283.6 0 0,1 657.9069787804717,637.8061416537955 L 654.2162836086673,556.7959666989711 A 202.5057975126308,202.5057975126308 0 0 0 654.2663539588006,556.7936793637825 Z "/><path class="wedge" fill="rgb(216,177,140)" d=" M 653.5580132277242,543.3911911871259 L 657.8357779748812,637.8093764840471 A 283.6,283.6 0 0,1 657.8346991685503,637.8094253590107 L 653.5572939539203,543.3912237735873 A 189.08495894305614,189.08495894305614 0 0 0 653.5580132277242,543.3911911871259 Z "/><path class="wedge" fill="url(#hiddenPattern)" d=" M 653.5580132277242,543.3911911871259 L 657.8357779748812,637.8093764840471 A 283.6,283.6 0 0,1 657.8346991685503,637.8094253590107 L 653.5572939539203,543.3912237735873 A 189.08495894305614,189.08495894305614 0 0 0 653.5580132277242,543.3911911871259 Z "/><path class="wedge" fill="rgb(213,171,130)" d=" M 652.7781471268391,526.221489743771 L 657.83254155533,637.8095230966137 A 283.6,283.6 0 0,1 657.7990984553179,637.8110359282375 L 652.7578763682253,526.222406711536 A 171.8975555746702,171.8975555746702 0 0 0 652.7781471268391,526.221489743771 Z "/><path class="wedge" fill="url(#hiddenPattern)" d=" M 652.7781471268391,526.221489743771 L 657.83254155533,637.8095230966137 A 283.6,283.6 0 0,1 657.7990984553179,637.8110359282375 L 652.7578763682253,526.222406711536 A 171.8975555746702,171.8975555746702 0 0 0 652.7781471268391,526.221489743771 Z "/><path class="wedge" fill="rgb(210,165,121)" d=" M 651.5680609714154,503.47130180474755 L 657.4916293998609,637.8247592338809 A 283.6,283.6 0 0,1 656.8626209486407,637.8517923434205 L 651.2373302294999,503.485515732012 A 149.11602256741367,149.11602256741367 0 0 0 651.5680609714154,503.47130180474755 Z "/><path class="wedge" fill="url(#hiddenPattern)" d=" M 651.5680609714154,503.47130180474755 L 657.4916293998609,637.8247592338809 A 283.6,283.6 0 0,1 656.8626209486407,637.8517923434205 L 651.2373302294999,503.485515732012 A 149.11602256741367,149.11602256741367 0 0 0 651.5680609714154,503.47130180474755 Z "/><path class="wedge" fill="rgb(207,159,111)" d=" M 649.4377511229932,471.93727409091554 L 655.7091093257139,637.8977328375263 A 283.6,283.6 0 0,1 655.7037136103345,637.8979366808232 L 649.4355151908296,471.9373585616024 A 117.52109164288107,117.52109164288107 0 0 0 649.4377511229932,471.93727409091554 Z "/><path class="wedge" fill="url(#hiddenPattern)" d=" M 649.4377511229932,471.93727409091554 L 655.7091093257139,637.8977328375263 A 283.6,283.6 0 0,1 655.7037136103345,637.8979366808232 L 649.4355151908296,471.9373585616024 A 117.52109164288107,117.52109164288107 0 0 0 649.4377511229932,471.93727409091554 Z "/><path class="wedge" fill="rgb(101,204,204)" d=" M 647.6756586166982,425.34949435928877 L 655.702634466793,637.8979774371551 A 283.6,283.6 0 0,1 646.9578665272154,638.0932417365789 L 645.4894666318038,425.3983104341447 A 70.9,70.9 0 0 0 647.6756586166982,425.34949435928877 Z "/><path class="wedge" fill="url(#hiddenPattern)" d=" M 647.6756586166982,425.34949435928877 L 655.702634466793,637.8979774371551 A 283.6,283.6 0 0,1 646.9578665272154,638.0932417365789 L 645.4894666318038,425.3983104341447 A 70.9,70.9 0 0 0 647.6756586166982,425.34949435928877 Z "/><rect fill="rgb(101,204,204)" x="1407.365" y="647.0316666666668" width="22" height="22"/><rect fill="url(#hiddenPattern)" style="stroke:none" x="1407.365" y="647.0316666666668" width="22" height="22"/><path class="line" d="M 651.3310033479282,638.0293254614212 L 652.386170572583,685.2842130383248 A 330.8666666666667,330.8666666666667 0 0,0 776.6862879789184,658.0316666666668 L 987.6833333333333,658.0316666666668 L 1323.8051041666668,658.0316666666668"/><text x="1400.0316666666668" y="658.0316666666668" style="font-color:black;font-weight:normal" text-anchor="end">Viruses&#160;&#160;&#160;0.5%</text><circle cx="645" cy="354.5" r="70.9"/><circle cx="645" cy="354.5" r="283.6"/><text x="645" y="354.5" text-anchor="middle" style="font-color:black;font-weight:bold" transform="rotate(360,645,354.5)">root</text><rect fill="rgb(220,220,220)" x="1407.365" y="676.365" width="22" height="22"/><path class="line" d="M 645.9789390957197,638.0983104291118 L 646.1828847406614,697.1812917685102 A 342.68333333333334,342.68333333333334 0 0,0 726.4417504689361,687.365 L 976.6833333333333,687.365 L 1307.0956315104168,687.365"/><text x="1400.0316666666668" y="687.365" style="font-color:black;font-weight:normal" text-anchor="end">[other root]&#160;&#160;&#160;0.1%</text><path class="line" d=" M 647.6756586166982,425.34949435928877 A 70.9,70.9 0 1 0 645,425.4"/><line x1="655.702634466793" y1="637.8979774371551" x2="647.6756586166982" y2="425.34949435928877"/><text x="645" y="269.6136725071357" text-anchor="middle" style="font-color:black;font-weight:normal" transform="rotate(358.9186152428016,645,354.5)">cellular organisms</text><path class="line" d=" M 649.4377511229932,471.93727409091554 A 117.52109164288107,117.52109164288107 0 1 0 645,472.02109164288106"/><line x1="655.7091093257139" y1="637.8977328375263" x2="649.4377511229932" y2="471.93727409091554"/><text x="645" y="227.50042907975913" text-anchor="middle" style="font-color:black;font-weight:normal" transform="rotate(358.9179607175778,645,354.5)">Bacteria</text><path class="line" d=" M 651.5680609714154,503.47130180474755 A 149.11602256741367,149.11602256741367 0 1 0 645,503.61602256741367"/><line x1="657.4916293998609" y1="637.8247592338809" x2="651.5680609714154" y2="503.47130180474755"/><text x="645" y="193.99321092895806" text-anchor="middle" style="font-color:black;font-weight:normal" transform="rotate(358.7377481059676,645,354.5)">Terrabacteria group</text><path class="line" d=" M 685.5512360484662,521.5460022493457 A 171.8975555746702,171.8975555746702 0 1 0 645,526.3975555746702"/><line x1="711.9022343272904" y1="630.0958110023016" x2="685.5512360484662" y2="521.5460022493457"/><text x="645" y="174.0087427411368" text-anchor="middle" style="font-color:black;font-weight:normal" transform="rotate(353.17755633007704,645,354.5)">Firmicutes</text><path class="line" d=" M 690.5644679889133,538.012944925922 A 189.08495894305614,189.08495894305614 0 1 0 645,543.5849589430561"/><line x1="713.3400900520456" y1="629.7427875379813" x2="690.5644679889133" y2="538.012944925922"/><text x="645" y="158.70462177215654" text-anchor="middle" style="font-color:black;font-weight:normal" transform="rotate(353.0279973164466,645,354.5)">Bacilli</text><path class="line" d=" M 846.3633284261559,375.98040947856236 A 202.5057975126308,202.5057975126308 0 1 0 645,557.0057975126308"/><line x1="927.0000249034645" y1="384.58231963206055" x2="846.3633284261559" y2="375.98040947856236"/><path class="line" d=" M 857.3478060838975,374.33538683854323 A 213.27220475176588,213.27220475176588 0 1 0 645,567.7722047517659"/><line x1="927.3707752985786" y1="380.87622522802883" x2="857.3478060838975" y2="374.33538683854323"/><path class="line" d=" M 866.2183551621308,374.25682094324543 A 222.0988352838036,222.0988352838036 0 1 0 645,576.5988352838036"/><line x1="927.4757070149093" y1="379.72766232585013" x2="866.2183551621308" y2="374.25682094324543"/><path class="line" d=" M 873.8578464326627,371.1881281667102 A 229.4654821438395,229.4654821438395 0 1 0 645,583.9654821438395"/><line x1="927.849013463464" y1="375.1251201874115" x2="873.8578464326627" y2="371.1881281667102"/><text x="388.46725892808024" y="354.5" text-anchor="end" style="font-color:black;font-weight:normal" transform="rotate(47.085290091033556,645,354.5)">Enterococcus faecalis&#160;&#160;&#160;76%</text><path class="line" d=" M 539.146345385029,565.0999669693111 A 235.70605058593745,235.70605058593745 0 0 0 645,590.2060505859374"/><line x1="517.6375654159945" y1="607.8925221012548" x2="539.146345385029" y2="565.0999669693111"/><text x="385.3469747070313" y="354.5" text-anchor="end" style="font-color:black;font-weight:normal" transform="rotate(-76.65728513845936,645,354.5)">Enterococcus faecalis V583&#160;&#160;&#160;7%</text><path class="line" d=" M 488.3861626301142,530.6517761111124 A 235.70605058593745,235.70605058593745 0 0 0 539.146345385029,565.0999669693111"/><line x1="456.5632408769845" y1="566.4446810165678" x2="488.3861626301142" y2="530.6517761111124"/><text x="385.3469747070313" y="354.5" text-anchor="end" style="font-color:black;font-weight:normal" transform="rotate(-55.837383208155394,645,354.5)">Enterococcus faecalis str. Symbioflor 1&#160;&#160;&#160;4%</text><path class="line" d=" M 453.421471682969,491.8135454742213 A 235.70605058593745,235.70605058593745 0 0 0 488.3861626301142,530.6517761111124"/><line x1="414.4939502161787" y1="519.7147723814626" x2="453.421471682969" y2="491.8135454742213"/><text x="385.3469747070313" y="354.5" text-anchor="end" style="font-color:black;font-weight:normal" transform="rotate(-41.995592863493336,645,354.5)">Enterococcus faecalis OG1RF&#160;&#160;&#160;4%</text><path class="line" d=" M 428.35251734185056,447.3504741006061 A 235.70605058593745,235.70605058593745 0 0 0 453.421471682969,491.8135454742213"/><line x1="384.3311460222784" y1="466.2170916464498" x2="428.35251734185056" y2="447.3504741006061"/><text x="385.3469747070313" y="354.5" text-anchor="end" style="font-color:black;font-weight:normal" transform="rotate(-29.414963537490646,645,354.5)">Enterococcus faecalis D32&#160;&#160;&#160;3%</text><path class="line" d=" M 873.836307570732,371.48092556070196 A 229.4654821438395,229.4654821438395 0 0 0 873.8578464326627,371.1881281667102"/><line x1="927.8223932450919" y1="375.48699309378617" x2="873.836307570732" y2="371.48092556070196"/><path class="line" d=" M 866.2134583402953,374.3115744843403 A 222.0988352838036,222.0988352838036 0 0 0 866.2183551621308,374.25682094324543"/><line x1="927.4694542190728" y1="379.79757761484603" x2="866.2134583402953" y2="374.3115744843403"/><path class="line" d=" M 857.2181837910784,375.6772469432459 A 213.27220475176588,213.27220475176588 0 0 0 857.3478060838975,374.33538683854323"/><line x1="927.1984092732623" y1="382.66057179178574" x2="857.2181837910784" y2="375.6772469432459"/><path class="line" d=" M 701.6429602728504,548.9226660596828 A 202.5057975126308,202.5057975126308 0 0 0 846.3633284261559,375.98040947856236"/><line x1="724.3258451397096" y1="626.7799483856106" x2="701.6429602728504" y2="548.9226660596828"/><path class="line" d=" M 705.1852083174673,559.1039442910674 A 213.27220475176588,213.27220475176588 0 0 0 857.0689952440576,377.1224352326406"/><line x1="725.031643592283" y1="626.5733283949712" x2="705.1852083174673" y2="559.1039442910674"/><path class="line" d=" M 708.1246124039053,567.4393715198738 A 222.0988352838036,222.0988352838036 0 0 0 865.8458289177117,378.05870293693846"/><line x1="725.6043852272874" y1="626.4041983532638" x2="708.1246124039053" y2="567.4393715198738"/><path class="line" d=" M 736.1555363678808,565.0827050946698 A 229.4654821438395,229.4654821438395 0 0 0 873.1709156524972,378.8401057065439"/><line x1="757.6605617211131" y1="614.7624787261569" x2="736.1555363678808" y2="565.0827050946698"/><text x="901.5327410719198" y="354.5" text-anchor="start" style="font-color:black;font-weight:normal" transform="rotate(396.3412585429177,645,354.5)">17%&#160;&#160;&#160;Staphylococcus epidermidis</text><path class="line" d=" M 873.5594242085464,412.1014920664235 A 235.70605058593745,235.70605058593745 0 0 0 879.3762769221848,379.5020618932891"/><line x1="920.0012252312159" y1="423.8057437831098" x2="873.5594242085464" y2="412.1014920664235"/><text x="904.6530252929688" y="354.5" text-anchor="start" style="font-color:black;font-weight:normal" transform="rotate(370.1170509275168,645,354.5)">2%&#160;&#160;&#160;Staphylococcus epidermidis ATCC 12228</text><path class="line" d=" M 866.1335279599688,436.09231026756265 A 235.70605058593745,235.70605058593745 0 0 0 873.5594242085464,412.1014920664235"/><line x1="911.0664347544276" y1="452.6713415262718" x2="866.1335279599688" y2="436.09231026756265"/><text x="904.6530252929688" y="354.5" text-anchor="start" style="font-color:black;font-weight:normal" transform="rotate(377.19890476112556,645,354.5)">2%&#160;&#160;&#160;Staphylococcus epidermidis RP62A</text><path class="line" d=" M 724.2330377772812,569.8521145010856 A 229.4654821438395,229.4654821438395 0 0 0 736.1555363678808,565.0827050946698"/><line x1="742.9253581135633" y1="620.6570668577681" x2="724.2330377772812" y2="569.8521145010856"/><text x="901.5327410719198" y="354.5" text-anchor="start" style="font-color:black;font-weight:normal" transform="rotate(428.19689209606247,645,354.5)">0.9%&#160;&#160;&#160;Staphylococcus lugdunensis</text><path class="line" d=" M 738.2176566663102,570.9897474904121 A 235.70605058593745,235.70605058593745 0 0 0 738.6346123415967,570.8097354592701"/><line x1="757.1588833415497" y1="614.979068041132" x2="738.2176566663102" y2="570.9897474904121"/><path class="line" d=" M 717.990842290336,572.047108547211 A 229.4654821438395,229.4654821438395 0 0 0 724.2330377772812,569.8521145010856"/><line x1="735.2105304908712" y1="623.3698945374056" x2="717.990842290336" y2="572.047108547211"/><path class="line" d=" M 708.1100170246128,567.4436976892606 A 222.0988352838036,222.0988352838036 0 0 0 708.1246124039053,567.4393715198738"/><line x1="725.5857482562196" y1="626.409722477857" x2="708.1100170246128" y2="567.4436976892606"/><path class="line" d=" M 704.8719373471334,559.1958339536495 A 213.27220475176588,213.27220475176588 0 0 0 705.1852083174673,559.1039442910674"/><line x1="724.6150696308982" y1="626.6955192277551" x2="704.8719373471334" y2="559.1958339536495"/><path class="line" d=" M 690.4680281219291,538.0368631016687 A 189.08495894305614,189.08495894305614 0 0 0 690.5644679889133,538.012944925922"/><line x1="713.1954442461097" y1="629.7786613307973" x2="690.4680281219291" y2="538.0368631016687"/><path class="line" d=" M 652.7781471268391,526.221489743771 A 171.8975555746702,171.8975555746702 0 0 0 685.5512360484662,521.5460022493457"/><line x1="657.83254155533" y1="637.8095230966137" x2="652.7781471268391" y2="526.221489743771"/><text x="645" y="534.9912572588632" text-anchor="middle" style="font-color:black;font-weight:normal" transform="rotate(351.8808327742597,645,354.5)">Actinobacteria</text><path class="line" d=" M 653.5580132277242,543.3911911871259 A 189.08495894305614,189.08495894305614 0 0 0 689.6058047636616,538.2483166722442"/><line x1="657.8357779748812" y1="637.8093764840471" x2="653.5580132277242" y2="543.3911911871259"/><text x="645" y="550.2953782278435" text-anchor="middle" style="font-color:black;font-weight:normal" transform="rotate(351.8805055116478,645,354.5)">Actinobacteria</text><path class="line" d=" M 654.2663539588006,556.7936793637825 A 202.5057975126308,202.5057975126308 0 0 0 692.7718276369001,551.2903719963376"/><line x1="657.9770999892086" y1="637.8029383466929" x2="654.2663539588006" y2="556.7936793637825"/><path class="line" d=" M 654.7606307271337,567.5487348178526 A 213.27220475176588,213.27220475176588 0 0 0 695.3116608526111,561.7529133738076"/><line x1="657.979257552277" y1="637.8028395081695" x2="654.7606307271337" y2="567.5487348178526"/><path class="line" d=" M 655.3115905056884,576.3593332173905 A 222.0988352838036,222.0988352838036 0 0 0 697.393893942085,570.3304253621525"/><line x1="658.1669626437995" y1="637.7941776576723" x2="655.3115905056884" y2="576.3593332173905"/><path class="line" d=" M 659.1863043276458,583.5265405253901 A 229.4654821438395,229.4654821438395 0 0 0 699.1317117644986,577.4891595503018"/><line x1="662.5330767387419" y1="637.5575051470521" x2="659.1863043276458" y2="583.5265405253901"/><path class="line" d=" M 659.5721166174507,589.7551714630476 A 235.70605058593745,235.70605058593745 0 0 0 700.6038837399879,583.5535972122036"/><text x="904.6530252929688" y="354.5" text-anchor="start" style="font-color:black;font-weight:normal" transform="rotate(441.40532019919385,645,354.5)">3%&#160;&#160;&#160;Cutibacterium avidum 44067</text><path class="line" d=" M 656.1118245831757,583.6962801834652 A 229.4654821438395,229.4654821438395 0 0 0 659.1863043276458,583.5265405253901"/><line x1="658.7332788458931" y1="637.7672890613051" x2="656.1118245831757" y2="583.6962801834652"/><path class="line" d=" M 655.3039871893583,576.359686474185 A 222.0988352838036,222.0988352838036 0 0 0 655.3115905056884,576.3593332173905"/><line x1="658.1572539008047" y1="637.7946287344498" x2="655.3039871893583" y2="576.359686474185"/><path class="line" d=" M 654.7598194644534,567.5487719835542 A 213.27220475176588,213.27220475176588 0 0 0 654.7606307271337,567.5487348178526"/><line x1="657.978178770837" y1="637.8028889294851" x2="654.7598194644534" y2="567.5487719835542"/><path class="line" d=" M 654.2162836086673,556.7959666989711 A 202.5057975126308,202.5057975126308 0 0 0 654.2663539588006,556.7936793637825"/><line x1="657.9069787804717" y1="637.8061416537955" x2="654.2162836086673" y2="556.7959666989711"/><path class="line" d=" M 653.5572939539203,543.3912237735873 A 189.08495894305614,189.08495894305614 0 0 0 653.5580132277242,543.3911911871259"/><line x1="657.8346991685503" y1="637.8094253590107" x2="653.5572939539203" y2="543.3912237735873"/><path class="line" d=" M 652.7578763682253,526.222406711536 A 171.8975555746702,171.8975555746702 0 0 0 652.7781471268391,526.221489743771"/><line x1="657.7990984553179" y1="637.8110359282375" x2="652.7578763682253" y2="526.222406711536"/><path class="line" d=" M 651.2373302294999,503.485515732012 A 149.11602256741367,149.11602256741367 0 0 0 651.5680609714154,503.47130180474755"/><line x1="656.8626209486407" y1="637.8517923434205" x2="651.2373302294999" y2="503.485515732012"/><path class="line" d=" M 649.4355151908296,471.9373585616024 A 117.52109164288107,117.52109164288107 0 0 0 649.4377511229932,471.93727409091554"/><line x1="655.7037136103345" y1="637.8979366808232" x2="649.4355151908296" y2="471.9373585616024"/><path class="line" d=" M 645.4894666318038,425.3983104341447 A 70.9,70.9 0 0 0 647.6756586166982,425.34949435928877"/><line x1="646.9578665272154" y1="638.0932417365789" x2="645.4894666318038" y2="425.3983104341447"/></svg>