<?xml version="1.0" standalone="no"?><!DOCTYPE svg PUBLIC "-//W3C//DTD SVG 1.1//EN" 	"http://www.w3.org/Graphics/SVG/1.1/DTD/svg11.dtd"><svg width="1440" height="709" version="1.1"	xmlns="http://www.w3.org/2000/svg"><title>Krona (snapshot) - root</title><defs>	<style type="text/css">	text {font-size: 11px; font-family: sans-serif; dominant-baseline:central}	path {stroke-width:0.27499999999999997;}	path.wedge {stroke:none}	path.line {fill:none;stroke:black;}	line {stroke:black;stroke-width:0.27499999999999997;}	line.tick {stroke-width:0.5499999999999999;}	line.pattern {stroke-width:0.18333333333333332;}	circle {fill:none;stroke:black;stroke-width:0.27499999999999997;}	rect {stroke:black;stroke-width:0.27499999999999997;}	.highlight {stroke:black;stroke-width:1.375;}	.searchHighlight {fill:rgb(255, 255, 100);stroke:none;}	</style><pattern id="hiddenPattern" patternUnits="userSpaceOnUse" x="0" y="0" width="6.6" height="6.6"><line class="pattern" x1="0" y1="0" x2="3.3" y2="3.3"/><line class="pattern" x1="3.3" y1="6.6" x2="6.6" y2="3.3"/></pattern></defs><path class="wedge" fill="rgb(220,220,220)" d=" M 645.6462157569124,425.39705498252744 L 647.5848630276497,638.0882199301097 A 283.6,283.6 0 0,1 645.0000000000001,638.1 L 645,425.4 A 70.9,70.9 0 0 0 645.6462157569124,425.39705498252744 Z "/><path class="wedge" fill="rgb(207,111,111)" d=" M 645,425.4 L 645,638.1 A 283.6,283.6 0 1,1 648.7491685183412,638.0752170684545 L 645.9372921295853,425.39380426711364 A 70.9,70.9 0 1 0 645,425.4 Z "/><path class="wedge" fill="rgb(207,111,111)" d=" M 646.5554729534839,472.0107973116744 L 648.7536422053372,638.0751578862196 A 283.6,283.6 0 0,1 648.7491685183412,638.0752170684545 L 646.553619100947,472.01082183621907 A 117.52109164288107,117.52109164288107 0 0 0 646.5554729534839,472.0107973116744 Z "/><path class="wedge" fill="rgb(210,121,121)" d=" M 645,472.02109164288106 L 645,638.1 A 283.6,283.6 0 1,1 648.8173921429868,638.0743068707507 L 646.5818903098476,472.01044465911133 A 117.52109164288107,117.52109164288107 0 1 0 645,472.02109164288106 Z "/><path class="wedge" fill="rgb(210,121,121)" d=" M 647.4787873001804,503.59541844015826 L 649.7143430077299,638.0608135303704 A 283.6,283.6 0 0,1 648.8173921429868,638.0743068707507 L 647.0071732473283,503.60251319773465 A 149.11602256741367,149.11602256741367 0 0 0 647.4787873001804,503.59541844015826 Z "/><path class="wedge" fill="rgb(213,130,130)" d=" M 645,503.61602256741367 L 645,638.1 A 283.6,283.6 0 1,1 651.7026638723958,638.0207828308423 L 648.5242403993581,503.57437041937476 A 149.11602256741367,149.11602256741367 0 1 0 645,503.61602256741367 Z "/><path class="wedge" fill="rgb(213,130,130)" d=" M 649.2382057458676,526.3453002691739 L 651.9922759838546,638.0137881595278 A 283.6,283.6 0 0,1 651.7026638723958,638.0207828308423 L 649.0626640885173,526.3495399267938 A 171.8975555746702,171.8975555746702 0 0 0 649.2382057458676,526.3453002691739 Z "/><path class="wedge" fill="rgb(216,140,140)" d=" M 645,526.3975555746702 L 645,638.1 A 283.6,283.6 0 1,1 923.2265574800024,299.55509384094887 L 813.6405681479827,321.19642080387683 A 171.8975555746702,171.8975555746702 0 1 0 645,526.3975555746702 Z "/><path class="wedge" fill="rgb(216,140,140)" d=" M 829.5974658658672,313.550063560523 L 921.8694115713665,293.0810376502071 A 283.6,283.6 0 0,1 923.2265574800024,299.55509384094887 L 830.5023173412345,317.8665185993856 A 189.08495894305614,189.08495894305614 0 0 0 829.5974658658672,313.550063560523 Z "/><path class="wedge" fill="rgb(219,149,149)" d=" M 645,543.5849589430561 L 645,638.1 A 283.6,283.6 0 1,1 919.1755431356564,281.99667906731594 L 827.8013798201541,306.1597762278146 A 189.08495894305614,189.08495894305614 0 1 0 645,543.5849589430561 Z "/><path class="wedge" fill="rgb(219,149,149)" d=" M 839.2970486440993,297.42763440666596 L 917.1040270070769,274.57279257642 A 283.6,283.6 0 0,1 919.1755431356564,281.99667906731594 L 840.7762236288604,302.7286924267017 A 202.5057975126308,202.5057975126308 0 0 0 839.2970486440993,297.42763440666596 Z "/><path class="wedge" fill="rgb(223,159,159)" d=" M 645,557.0057975126308 L 645,638.1 A 283.6,283.6 0 1,1 822.0899853328067,132.98680153357387 L 771.4518642853319,196.3275496649602 A 202.5057975126308,202.5057975126308 0 1 0 645,557.0057975126308 Z "/><path class="wedge" fill="rgb(223,159,159)" d=" M 777.1519822351156,187.10559474400333 L 820.7298950676716,131.906280458084 A 283.6,283.6 0 0,1 822.0899853328067,132.98680153357387 L 778.1747941163102,187.91816566096549 A 213.27220475176588,213.27220475176588 0 0 0 777.1519822351156,187.10559474400333 Z "/><path class="wedge" fill="rgb(226,168,168)" d=" M 645,567.7722047517659 L 645,638.1 A 283.6,283.6 0 1,1 811.1635490506152,124.67694857368244 L 769.9579212108706,181.6690095893187 A 213.27220475176588,213.27220475176588 0 1 0 645,567.7722047517659 Z "/><path class="wedge" fill="rgb(226,168,168)" d=" M 774.692571331091,174.20099951482817 L 810.6056105944813,124.27458493982675 A 283.6,283.6 0 0,1 811.1635490506152,124.67694857368244 L 775.1295159053766,174.51610704106199 A 222.0988352838036,222.0988352838036 0 0 0 774.692571331091,174.20099951482817 Z "/><path class="wedge" fill="rgb(229,178,178)" d=" M 645,576.5988352838036 L 645,638.1 A 283.6,283.6 0 1,1 810.5883579391643,124.26217575078766 L 774.6790600664526,174.19128136802846 A 222.0988352838036,222.0988352838036 0 1 0 645,576.5988352838036 Z "/><path class="wedge" fill="rgb(229,178,178)" d=" M 776.5132772601285,166.46100032225948 L 807.5393287152133,122.0996415217742 A 283.6,283.6 0 0,1 810.5883579391643,124.26217575078766 L 778.9802975737554,168.2107427747035 A 229.4654821438395,229.4654821438395 0 0 0 776.5132772601285,166.46100032225948 Z "/><path class="wedge" fill="rgb(229,178,178)" d=" M 645,583.9654821438395 L 645,638.1 A 283.6,283.6 0 1,1 807.2835023096585,121.92092768670892 L 776.3062838557005,166.31639998259436 A 229.4654821438395,229.4654821438395 0 1 0 645,583.9654821438395 Z "/><path class="wedge" fill="rgb(229,178,178)" d=" M 441.3353838249451,473.1510278130285 L 399.9520472484147,497.26015148582894 A 283.6,283.6 0 0,1 807.2835023096585,121.92092768670892 L 779.877303965668,161.19853813855084 A 235.70605058593745,235.70605058593745 0 0 0 441.3353838249451,473.1510278130285 Z "/><path class="wedge" fill="rgb(229,178,178)" d=" M 645,590.2060505859374 L 645,638.1 A 283.6,283.6 0 0,1 526.278751486208,612.0543149538103 L 546.3282207058621,568.5589223876208 A 235.70605058593745,235.70605058593745 0 0 0 645,590.2060505859374 Z "/><path class="wedge" fill="rgb(229,180,178)" d=" M 546.3282207058621,568.5589223876208 L 526.278751486208,612.0543149538103 A 283.6,283.6 0 0,1 471.838999750048,579.0979251739342 L 501.08217389130215,541.1681590710293 A 235.70605058593745,235.70605058593745 0 0 0 546.3282207058621,568.5589223876208 Z "/><path class="wedge" fill="rgb(229,180,178)" d=" M 501.08217389130215,541.1681590710293 L 471.838999750048,579.0979251739342 A 283.6,283.6 0 0,1 431.75759750735233,541.4669430117625 L 467.7696597002862,509.89224163409233 A 235.70605058593745,235.70605058593745 0 0 0 501.08217389130215,541.1681590710293 Z "/><path class="wedge" fill="rgb(229,181,178)" d=" M 467.7696597002862,509.89224163409233 L 431.75759750735233,541.4669430117625 A 283.6,283.6 0 0,1 399.9520472484147,497.26015148582894 L 441.3353838249451,473.1510278130285 A 235.70605058593745,235.70605058593745 0 0 0 467.7696597002862,509.89224163409233 Z "/><path class="wedge" fill="rgb(229,192,178)" d=" M 776.3062838557005,166.31639998259436 L 807.2835023096585,121.92092768670892 A 283.6,283.6 0 0,1 807.5393287152133,122.0996415217742 L 776.5132772601285,166.46100032225948 A 229.4654821438395,229.4654821438395 0 0 0 776.3062838557005,166.31639998259436 Z "/><path class="wedge" fill="url(#hiddenPattern)" d=" M 776.3062838557005,166.31639998259436 L 807.2835023096585,121.92092768670892 A 283.6,283.6 0 0,1 807.5393287152133,122.0996415217742 L 776.5132772601285,166.46100032225948 A 229.4654821438395,229.4654821438395 0 0 0 776.3062838557005,166.31639998259436 Z "/><path class="wedge" fill="rgb(226,185,168)" d=" M 774.6790600664526,174.19128136802846 L 810.5883579391643,124.26217575078766 A 283.6,283.6 0 0,1 810.6056105944813,124.27458493982675 L 774.692571331091,174.20099951482817 A 222.0988352838036,222.0988352838036 0 0 0 774.6790600664526,174.19128136802846 Z "/><path class="wedge" fill="url(#hiddenPattern)" d=" M 774.6790600664526,174.19128136802846 L 810.5883579391643,124.26217575078766 A 283.6,283.6 0 0,1 810.6056105944813,124.27458493982675 L 774.692571331091,174.20099951482817 A 222.0988352838036,222.0988352838036 0 0 0 774.6790600664526,174.19128136802846 Z "/><path class="wedge" fill="rgb(223,177,159)" d=" M 769.9579212108706,181.6690095893187 L 811.1635490506152,124.67694857368244 A 283.6,283.6 0 0,1 820.7298950676716,131.906280458084 L 777.1519822351156,187.10559474400333 A 213.27220475176588,213.27220475176588 0 0 0 769.9579212108706,181.6690095893187 Z "/><path class="wedge" fill="url(#hiddenPattern)" d=" M 769.9579212108706,181.6690095893187 L 811.1635490506152,124.67694857368244 A 283.6,283.6 0 0,1 820.7298950676716,131.906280458084 L 777.1519822351156,187.10559474400333 A 213.27220475176588,213.27220475176588 0 0 0 769.9579212108706,181.6690095893187 Z "/><path class="wedge" fill="rgb(223,178,159)" d=" M 771.4518642853319,196.3275496649602 L 822.0899853328067,132.98680153357387 A 283.6,283.6 0 0,1 917.1040270070769,274.57279257642 L 839.2970486440993,297.42763440666596 A 202.5057975126308,202.5057975126308 0 0 0 771.4518642853319,196.3275496649602 Z "/><path class="wedge" fill="rgb(223,178,159)" d=" M 849.6085297514478,294.33038247894484 L 917.0794259385557,274.4890883632366 A 283.6,283.6 0 0,1 917.1040270070769,274.57279257642 L 849.6270301891161,294.39332952440543 A 213.27220475176588,213.27220475176588 0 0 0 849.6085297514478,294.33038247894484 Z "/><path class="wedge" fill="rgb(226,185,168)" d=" M 778.1747941163102,187.91816566096549 L 822.0899853328067,132.98680153357387 A 283.6,283.6 0 0,1 916.9582547996276,274.0781892373663 L 849.5174069166399,294.02137908506285 A 213.27220475176588,213.27220475176588 0 0 0 778.1747941163102,187.91816566096549 Z "/><path class="wedge" fill="rgb(226,185,168)" d=" M 857.9249840863365,291.32687449353597 L 916.885826910001,273.8336679558008 A 283.6,283.6 0 0,1 916.9582547996276,274.0781892373663 L 857.9817053484244,291.51836917561565 A 222.0988352838036,222.0988352838036 0 0 0 857.9249840863365,291.32687449353597 Z "/><path class="wedge" fill="rgb(229,193,178)" d=" M 783.6864579789924,181.02389499512245 L 822.0899853328067,132.98680153357387 A 283.6,283.6 0 0,1 916.8810542088505,273.8175833140573 L 857.9212463875824,291.3142779484118 A 222.0988352838036,222.0988352838036 0 0 0 783.6864579789924,181.02389499512245 Z "/><path class="wedge" fill="rgb(229,193,178)" d=" M 863.447979524317,284.25124387401365 L 914.9832951531334,267.67845694612424 A 283.6,283.6 0 0,1 916.8810542088505,273.8175833140573 L 864.9834879753499,289.21851323917485 A 229.4654821438395,229.4654821438395 0 0 0 863.447979524317,284.25124387401365 Z "/><path class="wedge" fill="rgb(229,193,178)" d=" M 788.2864558083144,175.26998276684597 L 822.0899853328067,132.98680153357387 A 283.6,283.6 0 0,1 885.2156813537421,203.75058397540155 L 839.362507547064,232.5261374083684 A 229.4654821438395,229.4654821438395 0 0 0 788.2864558083144,175.26998276684597 Z "/><path class="wedge" fill="rgb(229,193,178)" d=" M 807.0635725874465,183.34877820180787 L 839.993845391519,148.57195368423368 A 283.6,283.6 0 0,1 885.2156813537421,203.75058397540155 L 844.6484116385774,229.20892285157078 A 235.70605058593745,235.70605058593745 0 0 0 807.0635725874465,183.34877820180787 Z "/><path class="wedge" fill="rgb(229,193,178)" d=" M 792.1832899898359,170.39562354308802 L 822.0899853328067,132.98680153357387 A 283.6,283.6 0 0,1 832.9049738647288,142.08370873001383 L 801.1718592211178,177.95625847898245 A 235.70605058593745,235.70605058593745 0 0 0 792.1832899898359,170.39562354308802 Z "/><path class="wedge" fill="rgb(229,193,178)" d=" M 801.1718592211178,177.95625847898245 L 832.9049738647288,142.08370873001383 A 283.6,283.6 0 0,1 839.993845391519,148.57195368423368 L 807.0635725874465,183.34877820180787 A 235.70605058593745,235.70605058593745 0 0 0 801.1718592211178,177.95625847898245 Z "/><path class="wedge" fill="url(#hiddenPattern)" d=" M 801.1718592211178,177.95625847898245 L 832.9049738647288,142.08370873001383 A 283.6,283.6 0 0,1 839.993845391519,148.57195368423368 L 807.0635725874465,183.34877820180787 A 235.70605058593745,235.70605058593745 0 0 0 801.1718592211178,177.95625847898245 Z "/><path class="wedge" fill="rgb(229,194,178)" d=" M 839.362507547064,232.5261374083684 L 885.2156813537421,203.75058397540155 A 283.6,283.6 0 0,1 914.1754663385568,265.20538470086507 L 862.7943517795126,282.2502399419441 A 229.4654821438395,229.4654821438395 0 0 0 839.362507547064,232.5261374083684 Z "/><path class="wedge" fill="rgb(229,194,178)" d=" M 849.9872440706592,238.14892758922895 L 891.6393301059677,214.50714002178722 A 283.6,283.6 0 0,1 914.1754663385568,265.20538470086507 L 868.7175108790168,280.2853275361434 A 235.70605058593745,235.70605058593745 0 0 0 849.9872440706592,238.14892758922895 Z "/><path class="wedge" fill="rgb(229,194,178)" d=" M 844.6484116385774,229.20892285157078 L 885.2156813537421,203.75058397540155 A 283.6,283.6 0 0,1 891.6393301059677,214.50714002178722 L 849.9872440706592,238.14892758922895 A 235.70605058593745,235.70605058593745 0 0 0 844.6484116385774,229.20892285157078 Z "/><path class="wedge" fill="url(#hiddenPattern)" d=" M 844.6484116385774,229.20892285157078 L 885.2156813537421,203.75058397540155 A 283.6,283.6 0 0,1 891.6393301059677,214.50714002178722 L 849.9872440706592,238.14892758922895 A 235.70605058593745,235.70605058593745 0 0 0 844.6484116385774,229.20892285157078 Z "/><path class="wedge" fill="rgb(229,195,178)" d=" M 862.7943517795126,282.2502399419441 L 914.1754663385568,265.20538470086507 A 283.6,283.6 0 0,1 914.9832951531334,267.67845694612424 L 863.447979524317,284.25124387401365 A 229.4654821438395,229.4654821438395 0 0 0 862.7943517795126,282.2502399419441 Z "/><path class="wedge" fill="url(#hiddenPattern)" d=" M 862.7943517795126,282.2502399419441 L 914.1754663385568,265.20538470086507 A 283.6,283.6 0 0,1 914.9832951531334,267.67845694612424 L 863.447979524317,284.25124387401365 A 229.4654821438395,229.4654821438395 0 0 0 862.7943517795126,282.2502399419441 Z "/><path class="wedge" fill="rgb(226,188,168)" d=" M 857.9212463875824,291.3142779484118 L 916.8810542088505,273.8175833140573 A 283.6,283.6 0 0,1 916.885826910001,273.8336679558008 L 857.9249840863365,291.32687449353597 A 222.0988352838036,222.0988352838036 0 0 0 857.9212463875824,291.3142779484118 Z "/><path class="wedge" fill="url(#hiddenPattern)" d=" M 857.9212463875824,291.3142779484118 L 916.8810542088505,273.8175833140573 A 283.6,283.6 0 0,1 916.885826910001,273.8336679558008 L 857.9249840863365,291.32687449353597 A 222.0988352838036,222.0988352838036 0 0 0 857.9212463875824,291.3142779484118 Z "/><path class="wedge" fill="rgb(223,180,159)" d=" M 849.5174069166399,294.02137908506285 L 916.9582547996276,274.0781892373663 A 283.6,283.6 0 0,1 917.0794259385557,274.4890883632366 L 849.6085297514478,294.33038247894484 A 213.27220475176588,213.27220475176588 0 0 0 849.5174069166399,294.02137908506285 Z "/><path class="wedge" fill="url(#hiddenPattern)" d=" M 849.5174069166399,294.02137908506285 L 916.9582547996276,274.0781892373663 A 283.6,283.6 0 0,1 917.0794259385557,274.4890883632366 L 849.6085297514478,294.33038247894484 A 213.27220475176588,213.27220475176588 0 0 0 849.5174069166399,294.02137908506285 Z "/><path class="wedge" fill="rgb(216,166,140)" d=" M 827.8013798201541,306.1597762278146 L 919.1755431356564,281.99667906731594 A 283.6,283.6 0 0,1 921.8694115713665,293.0810376502071 L 829.5974658658672,313.550063560523 A 189.08495894305614,189.08495894305614 0 0 0 827.8013798201541,306.1597762278146 Z "/><path class="wedge" fill="url(#hiddenPattern)" d=" M 827.8013798201541,306.1597762278146 L 919.1755431356564,281.99667906731594 A 283.6,283.6 0 0,1 921.8694115713665,293.0810376502071 L 829.5974658658672,313.550063560523 A 189.08495894305614,189.08495894305614 0 0 0 827.8013798201541,306.1597762278146 Z "/><path class="wedge" fill="rgb(216,167,140)" d=" M 813.6405681479827,321.19642080387683 L 923.2265574800024,299.55509384094887 A 283.6,283.6 0 0,1 652.3310793260708,638.0052297152821 L 649.4435635256543,526.3401127668983 A 171.8975555746702,171.8975555746702 0 0 0 813.6405681479827,321.19642080387683 Z "/><path class="wedge" fill="rgb(216,167,140)" d=" M 649.8915865864088,543.5216762150968 L 652.3366700538213,638.0050850911168 A 283.6,283.6 0 0,1 652.3310793260708,638.0052297152821 L 649.8878590739718,543.5217726405353 A 189.08495894305614,189.08495894305614 0 0 0 649.8915865864088,543.5216762150968 Z "/><path class="wedge" fill="rgb(219,174,149)" d=" M 830.5023173412345,317.8665185993856 L 923.2265574800024,299.55509384094887 A 283.6,283.6 0 0,1 652.3411426339676,638.0049693124051 L 649.894568594989,543.5215990218212 A 189.08495894305614,189.08495894305614 0 0 0 830.5023173412345,317.8665185993856 Z "/><path class="wedge" fill="rgb(219,174,149)" d=" M 650.4232127435591,556.9331662296589 L 652.5949585294092,637.9982832486585 A 283.6,283.6 0 0,1 652.3411426339676,638.0049693124051 L 650.2419744137715,556.9379404421809 A 202.5057975126308,202.5057975126308 0 0 0 650.4232127435591,556.9331662296589 Z "/><path class="wedge" fill="rgb(223,181,159)" d=" M 843.6688678127,315.26635387519286 L 923.2265574800024,299.55509384094887 A 283.6,283.6 0 0,1 652.7537301482605,637.9939852426996 L 650.5365842996164,556.9300972200524 A 202.5057975126308,202.5057975126308 0 0 0 843.6688678127,315.26635387519286 Z "/><path class="wedge" fill="rgb(223,181,159)" d=" M 650.835986893943,567.6923417401593 L 652.7604387550109,637.9938016788547 A 283.6,283.6 0 0,1 652.7537301482605,637.9939852426996 L 650.8309419032784,567.6924797834101 A 213.27220475176588,213.27220475176588 0 0 0 650.835986893943,567.6923417401593 Z "/><path class="wedge" fill="rgb(226,189,168)" d=" M 854.2312811504021,313.180460943513 L 923.2265574800024,299.55509384094887 A 283.6,283.6 0 0,1 652.7660292573165,637.9936485877145 L 650.8401910503336,567.6922266129203 A 213.27220475176588,213.27220475176588 0 0 0 854.2312811504021,313.180460943513 Z "/><path class="wedge" fill="rgb(226,189,168)" d=" M 652.0599140477124,576.4865992533356 L 654.0148677338751,637.9566848034118 A 283.6,283.6 0 0,1 652.7660292573165,637.9936485877145 L 651.0818972243651,576.5155471145532 A 222.0988352838036,222.0988352838036 0 0 0 652.0599140477124,576.4865992533356 Z "/><path class="wedge" fill="rgb(229,196,178)" d=" M 862.8906712317728,311.4703820073937 L 923.2265574800024,299.55509384094887 A 283.6,283.6 0 0,1 654.0573498986806,637.9553305422442 L 652.0931835798831,576.4855386756628 A 222.0988352838036,222.0988352838036 0 0 0 862.8906712317728,311.4703820073937 Z "/><path class="wedge" fill="rgb(229,196,178)" d=" M 655.3959428997828,583.7298668732527 L 657.8485094090547,637.8087993796971 A 283.6,283.6 0 0,1 654.0573498986806,637.9553305422442 L 652.3284526144083,583.8484276767188 A 229.4654821438395,229.4654821438395 0 0 0 655.3959428997828,583.7298668732527 Z "/><path class="wedge" fill="rgb(229,196,178)" d=" M 870.1177403292293,310.04316155453216 L 923.2265574800024,299.55509384094887 A 283.6,283.6 0 0,1 658.219465497898,637.7917325513575 L 655.6960896479513,583.7160578182683 A 229.4654821438395,229.4654821438395 0 0 0 870.1177403292293,310.04316155453216 Z "/><path class="wedge" fill="rgb(229,196,178)" d=" M 876.240067107661,308.8341084958925 L 923.2265574800024,299.55509384094887 A 283.6,283.6 0 0,1 658.219465497898,637.7917325513575 L 655.9869816761868,589.9498428890273 A 235.70605058593745,235.70605058593745 0 0 0 876.240067107661,308.8341084958925 Z "/><path class="wedge" fill="rgb(229,203,178)" d=" M 655.6960896479513,583.7160578182683 L 658.219465497898,637.7917325513575 A 283.6,283.6 0 0,1 657.8485094090547,637.8087993796971 L 655.3959428997828,583.7298668732527 A 229.4654821438395,229.4654821438395 0 0 0 655.6960896479513,583.7160578182683 Z "/><path class="wedge" fill="url(#hiddenPattern)" d=" M 655.6960896479513,583.7160578182683 L 658.219465497898,637.7917325513575 A 283.6,283.6 0 0,1 657.8485094090547,637.8087993796971 L 655.3959428997828,583.7298668732527 A 229.4654821438395,229.4654821438395 0 0 0 655.6960896479513,583.7160578182683 Z "/><path class="wedge" fill="rgb(226,196,168)" d=" M 652.0931835798831,576.4855386756628 L 654.0573498986806,637.9553305422442 A 283.6,283.6 0 0,1 654.0148677338751,637.9566848034118 L 652.0599140477124,576.4865992533356 A 222.0988352838036,222.0988352838036 0 0 0 652.0931835798831,576.4855386756628 Z "/><path class="wedge" fill="url(#hiddenPattern)" d=" M 652.0931835798831,576.4855386756628 L 654.0573498986806,637.9553305422442 A 283.6,283.6 0 0,1 654.0148677338751,637.9566848034118 L 652.0599140477124,576.4865992533356 A 222.0988352838036,222.0988352838036 0 0 0 652.0931835798831,576.4855386756628 Z "/><path class="wedge" fill="rgb(223,190,159)" d=" M 650.8401910503336,567.6922266129203 L 652.7660292573165,637.9936485877145 A 283.6,283.6 0 0,1 652.7604387550109,637.9938016788547 L 650.835986893943,567.6923417401593 A 213.27220475176588,213.27220475176588 0 0 0 650.8401910503336,567.6922266129203 Z "/><path class="wedge" fill="url(#hiddenPattern)" d=" M 650.8401910503336,567.6922266129203 L 652.7660292573165,637.9936485877145 A 283.6,283.6 0 0,1 652.7604387550109,637.9938016788547 L 650.835986893943,567.6923417401593 A 213.27220475176588,213.27220475176588 0 0 0 650.8401910503336,567.6922266129203 Z "/><path class="wedge" fill="rgb(219,183,149)" d=" M 650.5365842996164,556.9300972200524 L 652.7537301482605,637.9939852426996 A 283.6,283.6 0 0,1 652.5949585294092,637.9982832486585 L 650.4232127435591,556.9331662296589 A 202.5057975126308,202.5057975126308 0 0 0 650.5365842996164,556.9300972200524 Z "/><path class="wedge" fill="url(#hiddenPattern)" d=" M 650.5365842996164,556.9300972200524 L 652.7537301482605,637.9939852426996 A 283.6,283.6 0 0,1 652.5949585294092,637.9982832486585 L 650.4232127435591,556.9331662296589 A 202.5057975126308,202.5057975126308 0 0 0 650.5365842996164,556.9300972200524 Z "/><path class="wedge" fill="rgb(216,177,140)" d=" M 649.894568594989,543.5215990218212 L 652.3411426339676,638.0049693124051 A 283.6,283.6 0 0,1 652.3366700538213,638.0050850911168 L 649.8915865864088,543.5216762150968 A 189.08495894305614,189.08495894305614 0 0 0 649.894568594989,543.5215990218212 Z "/><path class="wedge" fill="url(#hiddenPattern)" d=" M 649.894568594989,543.5215990218212 L 652.3411426339676,638.0049693124051 A 283.6,283.6 0 0,1 652.3366700538213,638.0050850911168 L 649.8915865864088,543.5216762150968 A 189.08495894305614,189.08495894305614 0 0 0 649.894568594989,543.5215990218212 Z "/><path class="wedge" fill="rgb(213,171,130)" d=" M 649.4435635256543,526.3401127668983 L 652.3310793260708,638.0052297152821 A 283.6,283.6 0 0,1 651.9922759838546,638.0137881595278 L 649.2382057458676,526.3453002691739 A 171.8975555746702,171.8975555746702 0 0 0 649.4435635256543,526.3401127668983 Z "/><path class="wedge" fill="url(#hiddenPattern)" d=" M 649.4435635256543,526.3401127668983 L 652.3310793260708,638.0052297152821 A 283.6,283.6 0 0,1 651.9922759838546,638.0137881595278 L 649.2382057458676,526.3453002691739 A 171.8975555746702,171.8975555746702 0 0 0 649.4435635256543,526.3401127668983 Z "/><path class="wedge" fill="rgb(210,165,121)" d=" M 648.5242403993581,503.57437041937476 L 651.7026638723958,638.0207828308423 A 283.6,283.6 0 0,1 649.7143430077299,638.0608135303704 L 647.4787873001804,503.59541844015826 A 149.11602256741367,149.11602256741367 0 0 0 648.5242403993581,503.57437041937476 Z "/><path class="wedge" fill="url(#hiddenPattern)" d=" M 648.5242403993581,503.57437041937476 L 651.7026638723958,638.0207828308423 A 283.6,283.6 0 0,1 649.7143430077299,638.0608135303704 L 647.4787873001804,503.59541844015826 A 149.11602256741367,149.11602256741367 0 0 0 648.5242403993581,503.57437041937476 Z "/><path class="wedge" fill="rgb(207,159,111)" d=" M 646.5818903098476,472.01044465911133 L 648.8173921429868,638.0743068707507 A 283.6,283.6 0 0,1 648.7536422053372,638.0751578862196 L 646.5554729534839,472.0107973116744 A 117.52109164288107,117.52109164288107 0 0 0 646.5818903098476,472.01044465911133 Z "/><path class="wedge" fill="url(#hiddenPattern)" d=" M 646.5818903098476,472.01044465911133 L 648.8173921429868,638.0743068707507 A 283.6,283.6 0 0,1 648.7536422053372,638.0751578862196 L 646.5554729534839,472.0107973116744 A 117.52109164288107,117.52109164288107 0 0 0 646.5818903098476,472.01044465911133 Z "/><path class="wedge" fill="rgb(101,204,204)" d=" M 645.9372921295853,425.39380426711364 L 648.7491685183412,638.0752170684545 A 283.6,283.6 0 0,1 647.5848630276497,638.0882199301097 L 645.6462157569124,425.39705498252744 A 70.9,70.9 0 0 0 645.9372921295853,425.39380426711364 Z "/><path class="wedge" fill="url(#hiddenPattern)" d=" M 645.9372921295853,425.39380426711364 L 648.7491685183412,638.0752170684545 A 283.6,283.6 0 0,1 647.5848630276497,638.0882199301097 L 645.6462157569124,425.39705498252744 A 70.9,70.9 0 0 0 645.9372921295853,425.39380426711364 Z "/><rect fill="rgb(101,204,204)" x="1407.365" y="647.0316666666668" width="22" height="22"/><rect fill="url(#hiddenPattern)" style="stroke:none" x="1407.365" y="647.0316666666668" width="22" height="22"/><path class="line" d="M 648.1670224462428,638.082316036852 L 648.6948595206165,685.3460353763273 A 330.8666666666667,330.8666666666667 0 0,0 776.6862879789184,658.0316666666668 L 987.6833333333333,658.0316666666668 L 1317.6874283854168,658.0316666666668"/><text x="1400.0316666666668" y="658.0316666666668" style="font-color:black;font-weight:normal" text-anchor="end">Viruses&#160;&#160;&#160;0.07%</text><circle cx="645" cy="354.5" r="70.9"/><circle cx="645" cy="354.5" r="283.6"/><text x="645" y="354.5" text-anchor="middle" style="font-color:black;font-weight:bold" transform="rotate(360,645,354.5)">root</text><rect fill="rgb(220,220,220)" x="1407.365" y="676.365" width="22" height="22"/><path class="line" d="M 646.292444935167,638.0970549672362 L 646.5617042966601,697.179774752077 A 342.68333333333334,342.68333333333334 0 0,0 726.4417504689361,687.365 L 976.6833333333333,687.365 L 1307.0956315104168,687.365"/><text x="1400.0316666666668" y="687.365" style="font-color:black;font-weight:normal" text-anchor="end">[other root]&#160;&#160;&#160;0.1%</text><path class="line" d=" M 645.9372921295853,425.39380426711364 A 70.9,70.9 0 1 0 645,425.4"/><line x1="648.7491685183412" y1="638.0752170684545" x2="645.9372921295853" y2="425.39380426711364"/><text x="645" y="269.6136725071357" text-anchor="middle" style="font-color:black;font-weight:normal" transform="rotate(359.6212662372309,645,354.5)">cellular organisms</text><path class="line" d=" M 646.5818903098476,472.01044465911133 A 117.52109164288107,117.52109164288107 0 1 0 645,472.02109164288106"/><line x1="648.8173921429868" y1="638.0743068707507" x2="646.5818903098476" y2="472.01044465911133"/><text x="645" y="227.50042907975913" text-anchor="middle" style="font-color:black;font-weight:normal" transform="rotate(359.6143740058678,645,354.5)">Bacteria</text><path class="line" d=" M 648.5242403993581,503.57437041937476 A 149.11602256741367,149.11602256741367 0 1 0 645,503.61602256741367"/><line x1="651.7026638723958" y1="638.0207828308423" x2="648.5242403993581" y2="503.57437041937476"/><text x="645" y="193.99321092895806" text-anchor="middle" style="font-color:black;font-weight:normal" transform="rotate(359.3228665154309,645,354.5)">Terrabacteria group</text><path class="line" d=" M 813.6405681479827,321.19642080387683 A 171.8975555746702,171.8975555746702 0 1 0 645,526.3975555746702"/><line x1="923.2265574800024" y1="299.55509384094887" x2="813.6405681479827" y2="321.19642080387683"/><text x="645" y="174.0087427411368" text-anchor="middle" style="font-color:black;font-weight:normal" transform="rotate(309.4144114172512,645,354.5)">Firmicutes</text><path class="line" d=" M 827.8013798201541,306.1597762278146 A 189.08495894305614,189.08495894305614 0 1 0 645,543.5849589430561"/><line x1="919.1755431356564" y1="281.99667906731594" x2="827.8013798201541" y2="306.1597762278146"/><text x="645" y="158.70462177215654" text-anchor="middle" style="font-color:black;font-weight:normal" transform="rotate(307.59384545081343,645,354.5)">Bacilli</text><path class="line" d=" M 771.4518642853319,196.3275496649602 A 202.5057975126308,202.5057975126308 0 1 0 645,557.0057975126308"/><line x1="822.0899853328067" y1="132.98680153357387" x2="771.4518642853319" y2="196.3275496649602"/><path class="line" d=" M 769.9579212108706,181.6690095893187 A 213.27220475176588,213.27220475176588 0 1 0 645,567.7722047517659"/><line x1="811.1635490506152" y1="124.67694857368244" x2="769.9579212108706" y2="181.6690095893187"/><path class="line" d=" M 774.6790600664526,174.19128136802846 A 222.0988352838036,222.0988352838036 0 1 0 645,576.5988352838036"/><line x1="810.5883579391643" y1="124.26217575078766" x2="774.6790600664526" y2="174.19128136802846"/><path class="line" d=" M 776.3062838557005,166.31639998259436 A 229.4654821438395,229.4654821438395 0 1 0 645,583.9654821438395"/><line x1="807.2835023096585" y1="121.92092768670892" x2="776.3062838557005" y2="166.31639998259436"/><text x="388.46725892808024" y="354.5" text-anchor="end" style="font-color:black;font-weight:normal" transform="rotate(17.452824622214056,645,354.5)">Enterococcus faecalis&#160;&#160;&#160;60%</text><path class="line" d=" M 546.3282207058621,568.5589223876208 A 235.70605058593745,235.70605058593745 0 0 0 645,590.2060505859374"/><line x1="526.278751486208" y1="612.0543149538103" x2="546.3282207058621" y2="568.5589223876208"/><text x="385.3469747070313" y="354.5" text-anchor="end" style="font-color:black;font-weight:normal" transform="rotate(-77.62618495535114,645,354.5)">Enterococcus faecalis V583&#160;&#160;&#160;7%</text><path class="line" d=" M 501.08217389130215,541.1681590710293 A 235.70605058593745,235.70605058593745 0 0 0 546.3282207058621,568.5589223876208"/><line x1="471.838999750048" y1="579.0979251739342" x2="501.08217389130215" y2="541.1681590710293"/><text x="385.3469747070313" y="354.5" text-anchor="end" style="font-color:black;font-weight:normal" transform="rotate(-58.810393334245624,645,354.5)">Enterococcus faecalis str. Symbioflor 1&#160;&#160;&#160;4%</text><path class="line" d=" M 467.7696597002862,509.89224163409233 A 235.70605058593745,235.70605058593745 0 0 0 501.08217389130215,541.1681590710293"/><line x1="431.75759750735233" y1="541.4669430117625" x2="467.7696597002862" y2="509.89224163409233"/><text x="385.3469747070313" y="354.5" text-anchor="end" style="font-color:black;font-weight:normal" transform="rotate(-46.806047085615575,645,354.5)">Enterococcus faecalis D32&#160;&#160;&#160;3%</text><path class="line" d=" M 441.3353838249451,473.1510278130285 A 235.70605058593745,235.70605058593745 0 0 0 467.7696597002862,509.89224163409233"/><line x1="399.9520472484147" y1="497.26015148582894" x2="441.3353838249451" y2="473.1510278130285"/><text x="385.3469747070313" y="354.5" text-anchor="end" style="font-color:black;font-weight:normal" transform="rotate(-35.73395986938655,645,354.5)">Enterococcus faecalis OG1RF&#160;&#160;&#160;3%</text><path class="line" d=" M 776.5132772601285,166.46100032225948 A 229.4654821438395,229.4654821438395 0 0 0 776.3062838557005,166.31639998259436"/><line x1="807.5393287152133" y1="122.0996415217742" x2="776.5132772601285" y2="166.46100032225948"/><path class="line" d=" M 774.692571331091,174.20099951482817 A 222.0988352838036,222.0988352838036 0 0 0 774.6790600664526,174.19128136802846"/><line x1="810.6056105944813" y1="124.27458493982675" x2="774.692571331091" y2="174.20099951482817"/><path class="line" d=" M 777.1519822351156,187.10559474400333 A 213.27220475176588,213.27220475176588 0 0 0 769.9579212108706,181.6690095893187"/><line x1="820.7298950676716" y1="131.906280458084" x2="777.1519822351156" y2="187.10559474400333"/><path class="line" d=" M 839.2970486440993,297.42763440666596 A 202.5057975126308,202.5057975126308 0 0 0 771.4518642853319,196.3275496649602"/><line x1="917.1040270070769" y1="274.57279257642" x2="839.2970486440993" y2="297.42763440666596"/><path class="line" d=" M 849.5174069166399,294.02137908506285 A 213.27220475176588,213.27220475176588 0 0 0 778.1747941163102,187.91816566096549"/><line x1="916.9582547996276" y1="274.0781892373663" x2="849.5174069166399" y2="294.02137908506285"/><path class="line" d=" M 857.9212463875824,291.3142779484118 A 222.0988352838036,222.0988352838036 0 0 0 783.6864579789924,181.02389499512245"/><line x1="916.8810542088505" y1="273.8175833140573" x2="857.9212463875824" y2="291.3142779484118"/><path class="line" d=" M 839.362507547064,232.5261374083684 A 229.4654821438395,229.4654821438395 0 0 0 788.2864558083144,175.26998276684597"/><line x1="885.2156813537421" y1="203.75058397540155" x2="839.362507547064" y2="232.5261374083684"/><text x="901.5327410719198" y="354.5" text-anchor="start" style="font-color:black;font-weight:normal" transform="rotate(318.2650533739921,645,354.5)">5%&#160;&#160;&#160;Staphylococcus epidermidis</text><path class="line" d=" M 801.1718592211178,177.95625847898245 A 235.70605058593745,235.70605058593745 0 0 0 792.1832899898359,170.39562354308802"/><line x1="832.9049738647288" y1="142.08370873001383" x2="801.1718592211178" y2="177.95625847898245"/><text x="904.6530252929688" y="354.5" text-anchor="start" style="font-color:black;font-weight:normal" transform="rotate(310.0684954723438,645,354.5)">0.8%&#160;&#160;&#160;Staphylococcus epidermidis RP62A</text><path class="line" d=" M 807.0635725874465,183.34877820180787 A 235.70605058593745,235.70605058593745 0 0 0 801.1718592211178,177.95625847898245"/><line x1="839.993845391519" y1="148.57195368423368" x2="807.0635725874465" y2="183.34877820180787"/><path class="line" d=" M 862.7943517795126,282.2502399419441 A 229.4654821438395,229.4654821438395 0 0 0 839.362507547064,232.5261374083684"/><line x1="914.1754663385568" y1="265.20538470086507" x2="862.7943517795126" y2="282.2502399419441"/><text x="901.5327410719198" y="354.5" text-anchor="start" style="font-color:black;font-weight:normal" transform="rotate(334.76844487909716,645,354.5)">4%&#160;&#160;&#160;Staphylococcus aureus</text><path class="line" d=" M 849.9872440706592,238.14892758922895 A 235.70605058593745,235.70605058593745 0 0 0 844.6484116385774,229.20892285157078"/><line x1="891.6393301059677" y1="214.50714002178722" x2="849.9872440706592" y2="238.14892758922895"/><path class="line" d=" M 863.447979524317,284.25124387401365 A 229.4654821438395,229.4654821438395 0 0 0 862.7943517795126,282.2502399419441"/><line x1="914.9832951531334" y1="267.67845694612424" x2="863.447979524317" y2="284.25124387401365"/><path class="line" d=" M 857.9249840863365,291.32687449353597 A 222.0988352838036,222.0988352838036 0 0 0 857.9212463875824,291.3142779484118"/><line x1="916.885826910001" y1="273.8336679558008" x2="857.9249840863365" y2="291.32687449353597"/><path class="line" d=" M 849.6085297514478,294.33038247894484 A 213.27220475176588,213.27220475176588 0 0 0 849.5174069166399,294.02137908506285"/><line x1="917.0794259385557" y1="274.4890883632366" x2="849.6085297514478" y2="294.33038247894484"/><path class="line" d=" M 829.5974658658672,313.550063560523 A 189.08495894305614,189.08495894305614 0 0 0 827.8013798201541,306.1597762278146"/><line x1="921.8694115713665" y1="293.0810376502071" x2="829.5974658658672" y2="313.550063560523"/><path class="line" d=" M 649.4435635256543,526.3401127668983 A 171.8975555746702,171.8975555746702 0 0 0 813.6405681479827,321.19642080387683"/><line x1="652.3310793260708" y1="638.0052297152821" x2="649.4435635256543" y2="526.3401127668983"/><text x="645" y="534.9912572588632" text-anchor="middle" style="font-color:black;font-weight:normal" transform="rotate(308.6737790142226,645,354.5)">Actinobacteria</text><path class="line" d=" M 649.894568594989,543.5215990218212 A 189.08495894305614,189.08495894305614 0 0 0 830.5023173412345,317.8665185993856"/><line x1="652.3411426339676" y1="638.0049693124051" x2="649.894568594989" y2="543.5215990218212"/><text x="645" y="550.2953782278435" text-anchor="middle" style="font-color:black;font-weight:normal" transform="rotate(308.67276212762806,645,354.5)">Actinobacteria</text><path class="line" d=" M 650.5365842996164,556.9300972200524 A 202.5057975126308,202.5057975126308 0 0 0 843.6688678127,315.26635387519286"/><line x1="652.7537301482605" y1="637.9939852426996" x2="650.5365842996164" y2="556.9300972200524"/><path class="line" d=" M 650.8401910503336,567.6922266129203 A 213.27220475176588,213.27220475176588 0 0 0 854.2312811504021,313.180460943513"/><line x1="652.7660292573165" y1="637.9936485877145" x2="650.8401910503336" y2="567.6922266129203"/><path class="line" d=" M 652.0931835798831,576.4855386756628 A 222.0988352838036,222.0988352838036 0 0 0 862.8906712317728,311.4703820073937"/><line x1="654.0573498986806" y1="637.9553305422442" x2="652.0931835798831" y2="576.4855386756628"/><path class="line" d=" M 655.6960896479513,583.7160578182683 A 229.4654821438395,229.4654821438395 0 0 0 870.1177403292293,310.04316155453216"/><line x1="658.219465497898" y1="637.7917325513575" x2="655.6960896479513" y2="583.7160578182683"/><path class="line" d=" M 655.9869816761868,589.9498428890273 A 235.70605058593745,235.70605058593745 0 0 0 876.240067107661,308.8341084958925"/><text x="904.6530252929688" y="354.5" text-anchor="start" style="font-color:black;font-weight:normal" transform="rotate(398.0785613942143,645,354.5)">27%&#160;&#160;&#160;Cutibacterium avidum 44067</text><path class="line" d=" M 655.3959428997828,583.7298668732527 A 229.4654821438395,229.4654821438395 0 0 0 655.6960896479513,583.7160578182683"/><line x1="657.8485094090547" y1="637.8087993796971" x2="655.3959428997828" y2="583.7298668732527"/><path class="line" d=" M 652.0599140477124,576.4865992533356 A 222.0988352838036,222.0988352838036 0 0 0 652.0931835798831,576.4855386756628"/><line x1="654.0148677338751" y1="637.9566848034118" x2="652.0599140477124" y2="576.4865992533356"/><path class="line" d=" M 650.835986893943,567.6923417401593 A 213.27220475176588,213.27220475176588 0 0 0 650.8401910503336,567.6922266129203"/><line x1="652.7604387550109" y1="637.9938016788547" x2="650.835986893943" y2="567.6923417401593"/><path class="line" d=" M 650.4232127435591,556.9331662296589 A 202.5057975126308,202.5057975126308 0 0 0 650.5365842996164,556.9300972200524"/><line x1="652.5949585294092" y1="637.9982832486585" x2="650.4232127435591" y2="556.9331662296589"/><path class="line" d=" M 649.8915865864088,543.5216762150968 A 189.08495894305614,189.08495894305614 0 0 0 649.894568594989,543.5215990218212"/><line x1="652.3366700538213" y1="638.0050850911168" x2="649.8915865864088" y2="543.5216762150968"/><path class="line" d=" M 649.2382057458676,526.3453002691739 A 171.8975555746702,171.8975555746702 0 0 0 649.4435635256543,526.3401127668983"/><line x1="651.9922759838546" y1="638.0137881595278" x2="649.2382057458676" y2="526.3453002691739"/><path class="line" d=" M 647.4787873001804,503.59541844015826 A 149.11602256741367,149.11602256741367 0 0 0 648.5242403993581,503.57437041937476"/><line x1="649.7143430077299" y1="638.0608135303704" x2="647.4787873001804" y2="503.59541844015826"/><path class="line" d=" M 646.5554729534839,472.0107973116744 A 117.52109164288107,117.52109164288107 0 0 0 646.5818903098476,472.01044465911133"/><line x1="648.7536422053372" y1="638.0751578862196" x2="646.5554729534839" y2="472.0107973116744"/><path class="line" d=" M 645.6462157569124,425.39705498252744 A 70.9,70.9 0 0 0 645.9372921295853,425.39380426711364"/><line x1="647.5848630276497" y1="638.0882199301097" x2="645.6462157569124" y2="425.39705498252744"/></svg>