<?xml version="1.0" standalone="no"?><!DOCTYPE svg PUBLIC "-//W3C//DTD SVG 1.1//EN" 	"http://www.w3.org/Graphics/SVG/1.1/DTD/svg11.dtd"><svg width="1440" height="709" version="1.1"	xmlns="http://www.w3.org/2000/svg"><title>Krona (snapshot) - root</title><defs>	<style type="text/css">	text {font-size: 11px; font-family: sans-serif; dominant-baseline:central}	path {stroke-width:0.27499999999999997;}	path.wedge {stroke:none}	path.line {fill:none;stroke:black;}	line {stroke:black;stroke-width:0.27499999999999997;}	line.tick {stroke-width:0.5499999999999999;}	line.pattern {stroke-width:0.18333333333333332;}	circle {fill:none;stroke:black;stroke-width:0.27499999999999997;}	rect {stroke:black;stroke-width:0.27499999999999997;}	.highlight {stroke:black;stroke-width:1.375;}	.searchHighlight {fill:rgb(255, 255, 100);stroke:none;}	</style><pattern id="hiddenPattern" patternUnits="userSpaceOnUse" x="0" y="0" width="6.6" height="6.6"><line class="pattern" x1="0" y1="0" x2="3.3" y2="3.3"/><line class="pattern" x1="3.3" y1="6.6" x2="6.6" y2="3.3"/></pattern></defs><path class="wedge" fill="rgb(220,220,220)" d=" M 646.1652432342779,425.3904239527806 L 649.6609729371119,638.0616958111225 A 283.6,283.6 0 0,1 645.0000000000001,638.1 L 645,425.4 A 70.9,70.9 0 0 0 646.1652432342779,425.3904239527806 Z "/><path class="wedge" fill="rgb(207,111,111)" d=" M 645,425.4 L 645,638.1 A 283.6,283.6 0 1,1 651.1874516590206,638.0324945080674 L 646.5468629147551,425.38312362701686 A 70.9,70.9 0 1 0 645,425.4 Z "/><path class="wedge" fill="rgb(210,121,121)" d=" M 645,476.5928154081636 L 645,638.1 A 283.6,283.6 0 1,1 651.188607144535,638.0324692898691 L 647.6642611767678,476.56374271942457 A 122.09281540816357,122.09281540816357 0 1 0 645,476.5928154081636 Z "/><path class="wedge" fill="rgb(210,121,121)" d=" M 648.7721496527985,508.27578693875444 L 651.9546704846605,638.0147131251742 A 283.6,283.6 0 0,1 651.188607144535,638.0324692898691 L 648.3566439047046,508.28541772005985 A 153.8220457594954,153.8220457594954 0 0 0 648.7721496527985,508.27578693875444 Z "/><path class="wedge" fill="rgb(213,130,130)" d=" M 645,508.3220457594954 L 645,638.1 A 283.6,283.6 0 1,1 652.489614052737,638.0010858556648 L 649.062298150709,508.26839563242845 A 153.8220457594954,153.8220457594954 0 1 0 645,508.3220457594954 Z "/><path class="wedge" fill="rgb(213,130,130)" d=" M 649.7744446004967,529.759799821459 L 652.7229937168511,637.9948242350281 A 283.6,283.6 0 0,1 652.489614052737,638.0010858556648 L 649.6301665759318,529.763670828213 A 175.32482070346194,175.32482070346194 0 0 0 649.7744446004967,529.759799821459 Z "/><path class="wedge" fill="rgb(216,140,140)" d=" M 645,529.8248207034619 L 645,638.1 A 283.6,283.6 0 1,1 708.2499896578566,630.9568660899581 L 684.1018797470365,525.4088521842838 A 175.32482070346194,175.32482070346194 0 1 0 645,529.8248207034619 Z "/><path class="wedge" fill="rgb(216,140,140)" d=" M 688.6908472341688,540.260519380384 L 709.9308971339001,630.5669096385636 A 283.6,283.6 0 0,1 708.2499896578566,630.9568660899581 L 687.5597944535621,540.5229141492522 A 190.8294020650631,190.8294020650631 0 0 0 688.6908472341688,540.260519380384 Z "/><path class="wedge" fill="rgb(219,149,149)" d=" M 645,545.329402065063 L 645,638.1 A 283.6,283.6 0 1,1 710.4235701144555,630.4505688950087 L 689.0223581308296,540.1822357607493 A 190.8294020650631,190.8294020650631 0 1 0 645,545.329402065063 Z "/><path class="wedge" fill="rgb(219,149,149)" d=" M 698.3195260356105,549.8819648262993 L 719.6638044745791,628.0950955360527 A 283.6,283.6 0 0,1 710.4235701144555,630.4505688950087 L 691.720814384003,551.564074705013 A 202.526748939609,202.526748939609 0 0 0 698.3195260356105,549.8819648262993 Z "/><path class="wedge" fill="rgb(223,159,159)" d=" M 645,557.026748939609 L 645,638.1 A 283.6,283.6 0 1,1 920.2519676343876,286.19689382320837 L 841.5651838653844,305.722827798087 A 202.526748939609,202.526748939609 0 1 0 645,557.026748939609 Z "/><path class="wedge" fill="rgb(223,159,159)" d=" M 850.1251974627,302.3091184177537 L 919.8432616359582,284.57045307376734 A 283.6,283.6 0 0,1 920.2519676343876,286.19689382320837 L 850.4302291310516,303.52298838096345 A 211.66065943968837,211.66065943968837 0 0 0 850.1251974627,302.3091184177537 Z "/><path class="wedge" fill="rgb(226,168,168)" d=" M 645,566.1606594396884 L 645,638.1 A 283.6,283.6 0 1,1 918.9142538331296,281.01570543959855 L 849.4318462491199,299.65608517237354 A 211.66065943968837,211.66065943968837 0 1 0 645,566.1606594396884 Z "/><path class="wedge" fill="rgb(226,168,168)" d=" M 856.3427250580579,297.14140885278056 L 918.6989688204053,280.2178724951497 A 283.6,283.6 0 0,1 918.9142538331296,281.01570543959855 L 856.5089621522254,297.7574732440628 A 218.98802573054024,218.98802573054024 0 0 0 856.3427250580579,297.14140885278056 Z "/><path class="wedge" fill="rgb(229,178,178)" d=" M 645,573.4880257305402 L 645,638.1 A 283.6,283.6 0 1,1 918.6774640006297,280.13868143864033 L 856.326119634834,297.0802597233007 A 218.98802573054024,218.98802573054024 0 1 0 645,573.4880257305402 Z "/><path class="wedge" fill="rgb(229,178,178)" d=" M 861.0902951245142,291.8275524572618 L 917.3755922549128,275.50318523012777 A 283.6,283.6 0 0,1 918.6774640006297,280.13868143864033 L 862.1231404224988,295.50514241843786 A 224.99522512266105,224.99522512266105 0 0 0 861.0902951245142,291.8275524572618 Z "/><path class="wedge" fill="rgb(229,178,178)" d=" M 645,579.495225122661 L 645,638.1 A 283.6,283.6 0 1,1 917.2373888377319,275.02821809715374 L 860.9806508757084,291.45073533099463 A 224.99522512266105,224.99522512266105 0 1 0 645,579.495225122661 Z "/><path class="wedge" fill="rgb(229,178,178)" d=" M 442.44088155004897,463.4671907646391 L 395.2453489064429,488.85614707610364 A 283.6,283.6 0 1,1 917.2373888377319,275.02821809715374 L 865.7933475938783,290.045808602951 A 230.0087935935462,230.0087935935462 0 1 0 442.44088155004897,463.4671907646391 Z "/><path class="wedge" fill="rgb(229,178,178)" d=" M 645,584.5087935935462 L 645,638.1 A 283.6,283.6 0 0,1 518.8059895248628,608.476439301367 L 542.6525666145358,560.4831255461634 A 230.0087935935462,230.0087935935462 0 0 0 645,584.5087935935462 Z "/><path class="wedge" fill="rgb(229,180,178)" d=" M 542.6525666145358,560.4831255461634 L 518.8059895248628,608.476439301367 A 283.6,283.6 0 0,1 464.59651812997583,573.3230877425228 L 498.68692797955066,531.9726178493385 A 230.0087935935462,230.0087935935462 0 0 0 542.6525666145358,560.4831255461634 Z "/><path class="wedge" fill="rgb(229,181,178)" d=" M 498.68692797955066,531.9726178493385 L 464.59651812997583,573.3230877425228 A 283.6,283.6 0 0,1 425.63477440060734,534.2438672047745 L 467.0876907740043,500.27810314389535 A 230.0087935935462,230.0087935935462 0 0 0 498.68692797955066,531.9726178493385 Z "/><path class="wedge" fill="rgb(229,181,178)" d=" M 467.0876907740043,500.27810314389535 L 425.63477440060734,534.2438672047745 A 283.6,283.6 0 0,1 395.2453489064429,488.85614707610364 L 442.44088155004897,463.4671907646391 A 230.0087935935462,230.0087935935462 0 0 0 467.0876907740043,500.27810314389535 Z "/><path class="wedge" fill="rgb(229,195,178)" d=" M 860.9806508757084,291.45073533099463 L 917.2373888377319,275.02821809715374 A 283.6,283.6 0 0,1 917.3755922549128,275.50318523012777 L 861.0902951245142,291.8275524572618 A 224.99522512266105,224.99522512266105 0 0 0 860.9806508757084,291.45073533099463 Z "/><path class="wedge" fill="url(#hiddenPattern)" d=" M 860.9806508757084,291.45073533099463 L 917.2373888377319,275.02821809715374 A 283.6,283.6 0 0,1 917.3755922549128,275.50318523012777 L 861.0902951245142,291.8275524572618 A 224.99522512266105,224.99522512266105 0 0 0 860.9806508757084,291.45073533099463 Z "/><path class="wedge" fill="rgb(226,188,168)" d=" M 856.326119634834,297.0802597233007 L 918.6774640006297,280.13868143864033 A 283.6,283.6 0 0,1 918.6989688204053,280.2178724951497 L 856.3427250580579,297.14140885278056 A 218.98802573054024,218.98802573054024 0 0 0 856.326119634834,297.0802597233007 Z "/><path class="wedge" fill="url(#hiddenPattern)" d=" M 856.326119634834,297.0802597233007 L 918.6774640006297,280.13868143864033 A 283.6,283.6 0 0,1 918.6989688204053,280.2178724951497 L 856.3427250580579,297.14140885278056 A 218.98802573054024,218.98802573054024 0 0 0 856.326119634834,297.0802597233007 Z "/><path class="wedge" fill="rgb(223,180,159)" d=" M 849.4318462491199,299.65608517237354 L 918.9142538331296,281.01570543959855 A 283.6,283.6 0 0,1 919.8432616359582,284.57045307376734 L 850.1251974627,302.3091184177537 A 211.66065943968837,211.66065943968837 0 0 0 849.4318462491199,299.65608517237354 Z "/><path class="wedge" fill="url(#hiddenPattern)" d=" M 849.4318462491199,299.65608517237354 L 918.9142538331296,281.01570543959855 A 283.6,283.6 0 0,1 919.8432616359582,284.57045307376734 L 850.1251974627,302.3091184177537 A 211.66065943968837,211.66065943968837 0 0 0 849.4318462491199,299.65608517237354 Z "/><path class="wedge" fill="rgb(223,181,159)" d=" M 841.5651838653844,305.722827798087 L 920.2519676343876,286.19689382320837 A 283.6,283.6 0 0,1 719.6638044745791,628.0950955360527 L 698.3195260356105,549.8819648262993 A 202.526748939609,202.526748939609 0 0 0 841.5651838653844,305.722827798087 Z "/><path class="wedge" fill="rgb(223,181,159)" d=" M 700.934729987258,558.636083864897 L 719.9458565723995,628.0179675681825 A 283.6,283.6 0 0,1 719.6638044745791,628.0950955360527 L 700.7242245816833,558.693647181331 A 211.66065943968837,211.66065943968837 0 0 0 700.934729987258,558.636083864897 Z "/><path class="wedge" fill="rgb(226,188,168)" d=" M 850.4302291310516,303.52298838096345 L 920.2519676343876,286.19689382320837 A 283.6,283.6 0 0,1 720.4306213801433,627.8846765241342 L 701.2965270213914,558.5366040684207 A 211.66065943968837,211.66065943968837 0 0 0 850.4302291310516,303.52298838096345 Z "/><path class="wedge" fill="rgb(226,188,168)" d=" M 703.7287616406513,565.466082509761 L 721.0565640323316,627.7111986496817 A 283.6,283.6 0 0,1 720.4306213801433,627.8846765241342 L 703.2454261483267,565.6000372954954 A 218.98802573054024,218.98802573054024 0 0 0 703.7287616406513,565.466082509761 Z "/><path class="wedge" fill="rgb(229,195,178)" d=" M 857.5419075130504,301.75824269069443 L 920.2519676343876,286.19689382320837 A 283.6,283.6 0 0,1 721.0743786384005,627.7062387918352 L 703.7425175835716,565.4622526455942 A 218.98802573054024,218.98802573054024 0 0 0 857.5419075130504,301.75824269069443 Z "/><path class="wedge" fill="rgb(229,195,178)" d=" M 718.9800321034893,566.984837524854 L 738.249699379671,622.3310168102287 A 283.6,283.6 0 0,1 721.0743786384005,627.7062387918352 L 705.3539208315003,571.2492919671524 A 224.99522512266105,224.99522512266105 0 0 0 718.9800321034893,566.984837524854 Z "/><path class="wedge" fill="rgb(229,195,178)" d=" M 863.3722793489226,300.31145010287645 L 920.2519676343876,286.19689382320837 A 283.6,283.6 0 0,1 891.7222892778789,494.34660158002646 L 840.7381418154255,465.44787589963727 A 224.99522512266105,224.99522512266105 0 0 0 863.3722793489226,300.31145010287645 Z "/><path class="wedge" fill="rgb(229,195,178)" d=" M 873.1244789226402,325.1185901183682 L 926.2766469128425,318.2728292373228 A 283.6,283.6 0 0,1 891.7222892778789,494.34660158002646 L 845.0997747159479,467.9201273539464 A 230.0087935935462,230.0087935935462 0 0 0 873.1244789226402,325.1185901183682 Z "/><path class="wedge" fill="rgb(229,195,178)" d=" M 868.2382687229735,299.1039666769544 L 920.2519676343876,286.19689382320837 A 283.6,283.6 0 0,1 926.2088386540977,317.7501828193166 L 873.0694842266262,324.6947069304924 A 230.0087935935462,230.0087935935462 0 0 0 868.2382687229735,299.1039666769544 Z "/><path class="wedge" fill="rgb(229,195,178)" d=" M 875.3158193533146,311.715806783707 L 923.8298790336404,302.7036820026224 A 283.6,283.6 0 0,1 926.2088386540977,317.7501828193166 L 877.2808599583352,324.1443426924399 A 234.25597929094096,234.25597929094096 0 0 0 875.3158193533146,311.715806783707 Z "/><path class="wedge" fill="rgb(229,195,178)" d=" M 872.3604345202815,298.0810612621388 L 920.2519676343876,286.19689382320837 A 283.6,283.6 0 0,1 923.3816896220499,300.3465616680462 L 874.9456111392103,309.7688056120472 A 234.25597929094096,234.25597929094096 0 0 0 872.3604345202815,298.0810612621388 Z "/><path class="wedge" fill="rgb(229,195,178)" d=" M 875.8969500412534,297.2034835387139 L 920.2519676343876,286.19689382320837 A 283.6,283.6 0 0,1 923.3816896220499,300.3465616680462 L 878.5223382179081,309.0730268431581 A 237.89975270468753,237.89975270468753 0 0 0 875.8969500412534,297.2034835387139 Z "/><path class="wedge" fill="rgb(229,196,178)" d=" M 874.9456111392103,309.7688056120472 L 923.3816896220499,300.3465616680462 A 283.6,283.6 0 0,1 923.8298790336404,302.7036820026224 L 875.3158193533146,311.715806783707 A 234.25597929094096,234.25597929094096 0 0 0 874.9456111392103,309.7688056120472 Z "/><path class="wedge" fill="url(#hiddenPattern)" d=" M 874.9456111392103,309.7688056120472 L 923.3816896220499,300.3465616680462 A 283.6,283.6 0 0,1 923.8298790336404,302.7036820026224 L 875.3158193533146,311.715806783707 A 234.25597929094096,234.25597929094096 0 0 0 874.9456111392103,309.7688056120472 Z "/><path class="wedge" fill="rgb(229,196,178)" d=" M 873.0694842266262,324.6947069304924 L 926.2088386540977,317.7501828193166 A 283.6,283.6 0 0,1 926.2766469128425,318.2728292373228 L 873.1244789226402,325.1185901183682 A 230.0087935935462,230.0087935935462 0 0 0 873.0694842266262,324.6947069304924 Z "/><path class="wedge" fill="url(#hiddenPattern)" d=" M 873.0694842266262,324.6947069304924 L 926.2088386540977,317.7501828193166 A 283.6,283.6 0 0,1 926.2766469128425,318.2728292373228 L 873.1244789226402,325.1185901183682 A 230.0087935935462,230.0087935935462 0 0 0 873.0694842266262,324.6947069304924 Z "/><path class="wedge" fill="rgb(229,198,178)" d=" M 840.7381418154255,465.44787589963727 L 891.7222892778789,494.34660158002646 A 283.6,283.6 0 0,1 741.3225823673513,621.2412981262647 L 721.4179164461857,566.1203047300062 A 224.99522512266105,224.99522512266105 0 0 0 840.7381418154255,465.44787589963727 Z "/><path class="wedge" fill="rgb(229,198,178)" d=" M 824.8502389374532,497.8803915620945 L 866.7546858351632,531.2874976070086 A 283.6,283.6 0 0,1 741.3225823673513,621.2412981262647 L 723.1207368340249,570.8358398575408 A 230.0087935935462,230.0087935935462 0 0 0 824.8502389374532,497.8803915620945 Z "/><path class="wedge" fill="rgb(229,198,178)" d=" M 845.0997747159479,467.9201273539464 L 891.7222892778789,494.34660158002646 A 283.6,283.6 0 0,1 877.9821075040625,516.2043523933894 L 833.9560418754983,485.6474718364921 A 230.0087935935462,230.0087935935462 0 0 0 845.0997747159479,467.9201273539464 Z "/><path class="wedge" fill="rgb(229,199,178)" d=" M 833.9560418754983,485.6474718364921 L 877.9821075040625,516.2043523933894 A 283.6,283.6 0 0,1 866.7546858351632,531.2874976070086 L 824.8502389374532,497.8803915620945 A 230.0087935935462,230.0087935935462 0 0 0 833.9560418754983,485.6474718364921 Z "/><path class="wedge" fill="rgb(229,201,178)" d=" M 721.4179164461857,566.1203047300062 L 741.3225823673513,621.2412981262647 A 283.6,283.6 0 0,1 738.249699379671,622.3310168102287 L 718.9800321034893,566.984837524854 A 224.99522512266105,224.99522512266105 0 0 0 721.4179164461857,566.1203047300062 Z "/><path class="wedge" fill="url(#hiddenPattern)" d=" M 721.4179164461857,566.1203047300062 L 741.3225823673513,621.2412981262647 A 283.6,283.6 0 0,1 738.249699379671,622.3310168102287 L 718.9800321034893,566.984837524854 A 224.99522512266105,224.99522512266105 0 0 0 721.4179164461857,566.1203047300062 Z "/><path class="wedge" fill="rgb(226,195,168)" d=" M 703.7425175835716,565.4622526455942 L 721.0743786384005,627.7062387918352 A 283.6,283.6 0 0,1 721.0565640323316,627.7111986496817 L 703.7287616406513,565.466082509761 A 218.98802573054024,218.98802573054024 0 0 0 703.7425175835716,565.4622526455942 Z "/><path class="wedge" fill="url(#hiddenPattern)" d=" M 703.7425175835716,565.4622526455942 L 721.0743786384005,627.7062387918352 A 283.6,283.6 0 0,1 721.0565640323316,627.7111986496817 L 703.7287616406513,565.466082509761 A 218.98802573054024,218.98802573054024 0 0 0 703.7425175835716,565.4622526455942 Z "/><path class="wedge" fill="rgb(223,188,159)" d=" M 701.2965270213914,558.5366040684207 L 720.4306213801433,627.8846765241342 A 283.6,283.6 0 0,1 719.9458565723995,628.0179675681825 L 700.934729987258,558.636083864897 A 211.66065943968837,211.66065943968837 0 0 0 701.2965270213914,558.5366040684207 Z "/><path class="wedge" fill="url(#hiddenPattern)" d=" M 701.2965270213914,558.5366040684207 L 720.4306213801433,627.8846765241342 A 283.6,283.6 0 0,1 719.9458565723995,628.0179675681825 L 700.934729987258,558.636083864897 A 211.66065943968837,211.66065943968837 0 0 0 701.2965270213914,558.5366040684207 Z "/><path class="wedge" fill="rgb(216,176,140)" d=" M 689.0223581308296,540.1822357607493 L 710.4235701144555,630.4505688950087 A 283.6,283.6 0 0,1 709.9308971339001,630.5669096385636 L 688.6908472341688,540.260519380384 A 190.8294020650631,190.8294020650631 0 0 0 689.0223581308296,540.1822357607493 Z "/><path class="wedge" fill="url(#hiddenPattern)" d=" M 689.0223581308296,540.1822357607493 L 710.4235701144555,630.4505688950087 A 283.6,283.6 0 0,1 709.9308971339001,630.5669096385636 L 688.6908472341688,540.260519380384 A 190.8294020650631,190.8294020650631 0 0 0 689.0223581308296,540.1822357607493 Z "/><path class="wedge" fill="rgb(216,176,140)" d=" M 684.1018797470365,525.4088521842838 L 708.2499896578566,630.9568660899581 A 283.6,283.6 0 0,1 652.8050219677901,637.9925777371999 L 649.8251554199203,529.7584110103555 A 175.32482070346194,175.32482070346194 0 0 0 684.1018797470365,525.4088521842838 Z "/><path class="wedge" fill="rgb(216,176,140)" d=" M 650.2534154242668,545.2570767203397 L 652.8073326133156,637.9925141118633 A 283.6,283.6 0 0,1 652.8050219677901,637.9925777371999 L 650.2518606319396,545.2571195326984 A 190.8294020650631,190.8294020650631 0 0 0 650.2534154242668,545.2570767203397 Z "/><path class="wedge" fill="rgb(219,183,149)" d=" M 687.5597944535621,540.5229141492522 L 708.2499896578566,630.9568660899581 A 283.6,283.6 0 0,1 652.8107985806314,637.9924186385463 L 650.2557476121034,545.2570124780407 A 190.8294020650631,190.8294020650631 0 0 0 687.5597944535621,540.5229141492522 Z "/><path class="wedge" fill="rgb(219,183,149)" d=" M 650.6340143545808,556.948368524668 L 652.8893601922953,637.9902432108665 A 283.6,283.6 0 0,1 652.8107985806314,637.9924186385463 L 650.5779112946311,556.9499220588555 A 202.526748939609,202.526748939609 0 0 0 650.6340143545808,556.948368524668 Z "/><path class="wedge" fill="rgb(223,189,159)" d=" M 690.1685993507391,551.9256357941891 L 708.2499896578566,630.9568660899581 A 283.6,283.6 0 0,1 652.9505916168459,637.9885325598589 L 650.6777414397261,556.9471469005948 A 202.526748939609,202.526748939609 0 0 0 690.1685993507391,551.9256357941891 Z "/><path class="wedge" fill="rgb(223,189,159)" d=" M 650.9346685382907,566.0774431828316 L 652.9517469231868,637.9885001563019 A 283.6,283.6 0 0,1 652.9505916168459,637.9885325598589 L 650.9338062925151,566.0774673667464 A 211.66065943968837,211.66065943968837 0 0 0 650.9346685382907,566.0774431828316 Z "/><path class="wedge" fill="rgb(226,196,168)" d=" M 692.2056929497018,560.8294872469328 L 708.2499896578566,630.9568660899581 A 283.6,283.6 0 0,1 652.9517469231868,637.9885001563019 L 650.9346685382907,566.0774431828316 A 211.66065943968837,211.66065943968837 0 0 0 692.2056929497018,560.8294872469328 Z "/><path class="wedge" fill="rgb(226,196,168)" d=" M 651.2694703755033,573.3982621095254 L 653.119264934972,637.9837518040774 A 283.6,283.6 0 0,1 652.9517469231868,637.9885001563019 L 651.1401176298222,573.4019286549383 A 218.98802573054024,218.98802573054024 0 0 0 651.2694703755033,573.3982621095254 Z "/><path class="wedge" fill="rgb(229,202,178)" d=" M 693.8398813915766,567.9722965609741 L 708.2499896578566,630.9568660899581 A 283.6,283.6 0 0,1 653.136594223649,637.9832549454018 L 651.2828515698428,573.3978784490866 A 218.98802573054024,218.98802573054024 0 0 0 693.8398813915766,567.9722965609741 Z "/><path class="wedge" fill="rgb(229,202,178)" d=" M 651.8997143166918,579.3894067543978 L 653.6968911413431,637.9666189950337 A 283.6,283.6 0 0,1 653.136594223649,637.9832549454018 L 651.4552004551539,579.4026049539682 A 224.99522512266105,224.99522512266105 0 0 0 651.8997143166918,579.3894067543978 Z "/><path class="wedge" fill="rgb(229,202,178)" d=" M 695.1796391469516,573.828190488771 L 708.2499896578566,630.9568660899581 A 283.6,283.6 0 0,1 654.0861909804436,637.954407504041 L 652.2085669434147,579.3797187178498 A 224.99522512266105,224.99522512266105 0 0 0 695.1796391469516,573.828190488771 Z "/><path class="wedge" fill="rgb(229,202,178)" d=" M 696.297792016953,578.7154804301967 L 708.2499896578566,630.9568660899581 A 283.6,283.6 0 0,1 654.0861909804436,637.954407504041 L 652.369195436433,584.3907133595835 A 230.0087935935462,230.0087935935462 0 0 0 696.297792016953,578.7154804301967 Z "/><path class="wedge" fill="rgb(229,203,178)" d=" M 652.2085669434147,579.3797187178498 L 654.0861909804436,637.954407504041 A 283.6,283.6 0 0,1 653.6968911413431,637.9666189950337 L 651.8997143166918,579.3894067543978 A 224.99522512266105,224.99522512266105 0 0 0 652.2085669434147,579.3797187178498 Z "/><path class="wedge" fill="url(#hiddenPattern)" d=" M 652.2085669434147,579.3797187178498 L 654.0861909804436,637.954407504041 A 283.6,283.6 0 0,1 653.6968911413431,637.9666189950337 L 651.8997143166918,579.3894067543978 A 224.99522512266105,224.99522512266105 0 0 0 652.2085669434147,579.3797187178498 Z "/><path class="wedge" fill="rgb(226,196,168)" d=" M 651.2828515698428,573.3978784490866 L 653.136594223649,637.9832549454018 A 283.6,283.6 0 0,1 653.119264934972,637.9837518040774 L 651.2694703755033,573.3982621095254 A 218.98802573054024,218.98802573054024 0 0 0 651.2828515698428,573.3978784490866 Z "/><path class="wedge" fill="url(#hiddenPattern)" d=" M 651.2828515698428,573.3978784490866 L 653.136594223649,637.9832549454018 A 283.6,283.6 0 0,1 653.119264934972,637.9837518040774 L 651.2694703755033,573.3982621095254 A 218.98802573054024,218.98802573054024 0 0 0 651.2828515698428,573.3978784490866 Z "/><path class="wedge" fill="rgb(219,184,149)" d=" M 650.6777414397261,556.9471469005948 L 652.9505916168459,637.9885325598589 A 283.6,283.6 0 0,1 652.8893601922953,637.9902432108665 L 650.6340143545808,556.948368524668 A 202.526748939609,202.526748939609 0 0 0 650.6777414397261,556.9471469005948 Z "/><path class="wedge" fill="url(#hiddenPattern)" d=" M 650.6777414397261,556.9471469005948 L 652.9505916168459,637.9885325598589 A 283.6,283.6 0 0,1 652.8893601922953,637.9902432108665 L 650.6340143545808,556.948368524668 A 202.526748939609,202.526748939609 0 0 0 650.6777414397261,556.9471469005948 Z "/><path class="wedge" fill="rgb(216,177,140)" d=" M 650.2557476121034,545.2570124780407 L 652.8107985806314,637.9924186385463 A 283.6,283.6 0 0,1 652.8073326133156,637.9925141118633 L 650.2534154242668,545.2570767203397 A 190.8294020650631,190.8294020650631 0 0 0 650.2557476121034,545.2570124780407 Z "/><path class="wedge" fill="url(#hiddenPattern)" d=" M 650.2557476121034,545.2570124780407 L 652.8107985806314,637.9924186385463 A 283.6,283.6 0 0,1 652.8073326133156,637.9925141118633 L 650.2534154242668,545.2570767203397 A 190.8294020650631,190.8294020650631 0 0 0 650.2557476121034,545.2570124780407 Z "/><path class="wedge" fill="rgb(213,171,130)" d=" M 649.8251554199203,529.7584110103555 L 652.8050219677901,637.9925777371999 A 283.6,283.6 0 0,1 652.7229937168511,637.9948242350281 L 649.7744446004967,529.759799821459 A 175.32482070346194,175.32482070346194 0 0 0 649.8251554199203,529.7584110103555 Z "/><path class="wedge" fill="url(#hiddenPattern)" d=" M 649.8251554199203,529.7584110103555 L 652.8050219677901,637.9925777371999 A 283.6,283.6 0 0,1 652.7229937168511,637.9948242350281 L 649.7744446004967,529.759799821459 A 175.32482070346194,175.32482070346194 0 0 0 649.8251554199203,529.7584110103555 Z "/><path class="wedge" fill="rgb(210,165,121)" d=" M 649.062298150709,508.26839563242845 L 652.489614052737,638.0010858556648 A 283.6,283.6 0 0,1 651.9546704846605,638.0147131251742 L 648.7721496527985,508.27578693875444 A 153.8220457594954,153.8220457594954 0 0 0 649.062298150709,508.26839563242845 Z "/><path class="wedge" fill="url(#hiddenPattern)" d=" M 649.062298150709,508.26839563242845 L 652.489614052737,638.0010858556648 A 283.6,283.6 0 0,1 651.9546704846605,638.0147131251742 L 648.7721496527985,508.27578693875444 A 153.8220457594954,153.8220457594954 0 0 0 649.062298150709,508.26839563242845 Z "/><path class="wedge" fill="rgb(207,159,111)" d=" M 647.6642611767678,476.56374271942457 L 651.188607144535,638.0324692898691 A 283.6,283.6 0 0,1 651.1874516590206,638.0324945080674 L 647.663763727968,476.56375357612706 A 122.09281540816357,122.09281540816357 0 0 0 647.6642611767678,476.56374271942457 Z "/><path class="wedge" fill="url(#hiddenPattern)" d=" M 647.6642611767678,476.56374271942457 L 651.188607144535,638.0324692898691 A 283.6,283.6 0 0,1 651.1874516590206,638.0324945080674 L 647.663763727968,476.56375357612706 A 122.09281540816357,122.09281540816357 0 0 0 647.6642611767678,476.56374271942457 Z "/><path class="wedge" fill="rgb(101,204,204)" d=" M 646.5468629147551,425.38312362701686 L 651.1874516590206,638.0324945080674 A 283.6,283.6 0 0,1 649.6609729371119,638.0616958111225 L 646.1652432342779,425.3904239527806 A 70.9,70.9 0 0 0 646.5468629147551,425.38312362701686 Z "/><path class="wedge" fill="url(#hiddenPattern)" d=" M 646.5468629147551,425.38312362701686 L 651.1874516590206,638.0324945080674 A 283.6,283.6 0 0,1 649.6609729371119,638.0616958111225 L 646.1652432342779,425.3904239527806 A 70.9,70.9 0 0 0 646.5468629147551,425.38312362701686 Z "/><rect fill="rgb(101,204,204)" x="1407.365" y="647.0316666666668" width="22" height="22"/><rect fill="url(#hiddenPattern)" style="stroke:none" x="1407.365" y="647.0316666666668" width="22" height="22"/><path class="line" d="M 650.4242319487201,638.0481223844843 L 651.3282706068402,685.3061427818984 A 330.8666666666667,330.8666666666667 0 0,0 776.6862879789184,658.0316666666668 L 987.6833333333333,658.0316666666668 L 1317.6874283854168,658.0316666666668"/><text x="1400.0316666666668" y="658.0316666666668" style="font-color:black;font-weight:normal" text-anchor="end">Viruses&#160;&#160;&#160;0.09%</text><circle cx="645" cy="354.5" r="70.9"/><circle cx="645" cy="354.5" r="283.6"/><text x="645" y="354.5" text-anchor="middle" style="font-color:black;font-weight:bold" transform="rotate(360,645,354.5)">root</text><rect fill="rgb(220,220,220)" x="1407.365" y="676.365" width="22" height="22"/><path class="line" d="M 647.3305651638269,638.0904237911026 L 647.8160995729575,697.1717620809156 A 342.68333333333334,342.68333333333334 0 0,0 726.4417504689361,687.365 L 976.6833333333333,687.365 L 1307.0956315104168,687.365"/><text x="1400.0316666666668" y="687.365" style="font-color:black;font-weight:normal" text-anchor="end">[other root]&#160;&#160;&#160;0.3%</text><path class="line" d=" M 646.5468629147551,425.38312362701686 A 70.9,70.9 0 1 0 645,425.4"/><line x1="651.1874516590206" y1="638.0324945080674" x2="646.5468629147551" y2="425.38312362701686"/><text x="645" y="268.24215537755094" text-anchor="middle" style="font-color:black;font-weight:normal" transform="rotate(359.37492419402435,645,354.5)">cellular organisms</text><path class="line" d=" M 647.6642611767678,476.56374271942457 A 122.09281540816357,122.09281540816357 0 1 0 645,476.5928154081636"/><line x1="651.188607144535" y1="638.0324692898691" x2="647.6642611767678" y2="476.56374271942457"/><text x="645" y="222.88841548643686" text-anchor="middle" style="font-color:black;font-weight:normal" transform="rotate(359.37480744471435,645,354.5)">Bacteria</text><path class="line" d=" M 649.062298150709,508.26839563242845 A 153.8220457594954,153.8220457594954 0 1 0 645,508.3220457594954"/><line x1="652.489614052737" y1="638.0010858556648" x2="649.062298150709" y2="508.26839563242845"/><text x="645" y="189.9265667685213" text-anchor="middle" style="font-color:black;font-weight:normal" transform="rotate(359.24334772160483,645,354.5)">Terrabacteria group</text><path class="line" d=" M 684.1018797470365,525.4088521842838 A 175.32482070346194,175.32482070346194 0 1 0 645,529.8248207034619"/><line x1="708.2499896578566" y1="630.9568660899581" x2="684.1018797470365" y2="525.4088521842838"/><text x="645" y="171.42288861573746" text-anchor="middle" style="font-color:black;font-weight:normal" transform="rotate(353.55660557867117,645,354.5)">Firmicutes</text><path class="line" d=" M 689.0223581308296,540.1822357607493 A 190.8294020650631,190.8294020650631 0 1 0 645,545.329402065063"/><line x1="710.4235701144555" y1="630.4505688950087" x2="689.0223581308296" y2="540.1822357607493"/><path class="line" d=" M 841.5651838653844,305.722827798087 A 202.526748939609,202.526748939609 0 1 0 645,557.026748939609"/><line x1="920.2519676343876" y1="286.19689382320837" x2="841.5651838653844" y2="305.722827798087"/><path class="line" d=" M 849.4318462491199,299.65608517237354 A 211.66065943968837,211.66065943968837 0 1 0 645,566.1606594396884"/><line x1="918.9142538331296" y1="281.01570543959855" x2="849.4318462491199" y2="299.65608517237354"/><path class="line" d=" M 856.326119634834,297.0802597233007 A 218.98802573054024,218.98802573054024 0 1 0 645,573.4880257305402"/><line x1="918.6774640006297" y1="280.13868143864033" x2="856.326119634834" y2="297.0802597233007"/><path class="line" d=" M 860.9806508757084,291.45073533099463 A 224.99522512266105,224.99522512266105 0 1 0 645,579.495225122661"/><line x1="917.2373888377319" y1="275.02821809715374" x2="860.9806508757084" y2="291.45073533099463"/><text x="390.70238743866946" y="354.5" text-anchor="end" style="font-color:black;font-weight:normal" transform="rotate(36.86318602381039,645,354.5)">Enterococcus faecalis&#160;&#160;&#160;70%</text><path class="line" d=" M 542.6525666145358,560.4831255461634 A 230.0087935935462,230.0087935935462 0 0 0 645,584.5087935935462"/><line x1="518.8059895248628" y1="608.476439301367" x2="542.6525666145358" y2="560.4831255461634"/><text x="388.19560320322694" y="354.5" text-anchor="end" style="font-color:black;font-weight:normal" transform="rotate(-76.78923182197026,645,354.5)">Enterococcus faecalis V583&#160;&#160;&#160;7%</text><path class="line" d=" M 498.68692797955066,531.9726178493385 A 230.0087935935462,230.0087935935462 0 0 0 542.6525666145358,560.4831255461634"/><line x1="464.59651812997583" y1="573.3230877425228" x2="498.68692797955066" y2="531.9726178493385"/><text x="388.19560320322694" y="354.5" text-anchor="end" style="font-color:black;font-weight:normal" transform="rotate(-57.037700298035055,645,354.5)">Enterococcus faecalis str. Symbioflor 1&#160;&#160;&#160;4%</text><path class="line" d=" M 467.0876907740043,500.27810314389535 A 230.0087935935462,230.0087935935462 0 0 0 498.68692797955066,531.9726178493385"/><line x1="425.63477440060734" y1="534.2438672047745" x2="467.0876907740043" y2="500.27810314389535"/><text x="388.19560320322694" y="354.5" text-anchor="end" style="font-color:black;font-weight:normal" transform="rotate(-44.91375144720497,645,354.5)">Enterococcus faecalis OG1RF&#160;&#160;&#160;3%</text><path class="line" d=" M 442.44088155004897,463.4671907646391 A 230.0087935935462,230.0087935935462 0 0 0 467.0876907740043,500.27810314389535"/><line x1="395.2453489064429" y1="488.85614707610364" x2="442.44088155004897" y2="463.4671907646391"/><text x="388.19560320322694" y="354.5" text-anchor="end" style="font-color:black;font-weight:normal" transform="rotate(-33.80435410065738,645,354.5)">Enterococcus faecalis D32&#160;&#160;&#160;3%</text><path class="line" d=" M 861.0902951245142,291.8275524572618 A 224.99522512266105,224.99522512266105 0 0 0 860.9806508757084,291.45073533099463"/><line x1="917.3755922549128" y1="275.50318523012777" x2="861.0902951245142" y2="291.8275524572618"/><path class="line" d=" M 856.3427250580579,297.14140885278056 A 218.98802573054024,218.98802573054024 0 0 0 856.326119634834,297.0802597233007"/><line x1="918.6989688204053" y1="280.2178724951497" x2="856.3427250580579" y2="297.14140885278056"/><path class="line" d=" M 850.1251974627,302.3091184177537 A 211.66065943968837,211.66065943968837 0 0 0 849.4318462491199,299.65608517237354"/><line x1="919.8432616359582" y1="284.57045307376734" x2="850.1251974627" y2="302.3091184177537"/><path class="line" d=" M 698.3195260356105,549.8819648262993 A 202.526748939609,202.526748939609 0 0 0 841.5651838653844,305.722827798087"/><line x1="719.6638044745791" y1="628.0950955360527" x2="698.3195260356105" y2="549.8819648262993"/><path class="line" d=" M 701.2965270213914,558.5366040684207 A 211.66065943968837,211.66065943968837 0 0 0 850.4302291310516,303.52298838096345"/><line x1="720.4306213801433" y1="627.8846765241342" x2="701.2965270213914" y2="558.5366040684207"/><path class="line" d=" M 703.7425175835716,565.4622526455942 A 218.98802573054024,218.98802573054024 0 0 0 857.5419075130504,301.75824269069443"/><line x1="721.0743786384005" y1="627.7062387918352" x2="703.7425175835716" y2="565.4622526455942"/><path class="line" d=" M 840.7381418154255,465.44787589963727 A 224.99522512266105,224.99522512266105 0 0 0 863.3722793489226,300.31145010287645"/><line x1="891.7222892778789" y1="494.34660158002646" x2="840.7381418154255" y2="465.44787589963727"/><text x="899.2976125613305" y="354.5" text-anchor="start" style="font-color:black;font-weight:normal" transform="rotate(367.8045162524769,645,354.5)">12%&#160;&#160;&#160;Staphylococcus aureus</text><path class="line" d=" M 873.0694842266262,324.6947069304924 A 230.0087935935462,230.0087935935462 0 0 0 868.2382687229735,299.1039666769544"/><line x1="926.2088386540977" y1="317.7501828193166" x2="873.0694842266262" y2="324.6947069304924"/><path class="line" d=" M 874.9456111392103,309.7688056120472 A 234.25597929094096,234.25597929094096 0 0 0 872.3604345202815,298.0810612621388"/><line x1="923.3816896220499" y1="300.3465616680462" x2="874.9456111392103" y2="309.7688056120472"/><path class="line" d=" M 878.5223382179081,309.0730268431581 A 237.89975270468753,237.89975270468753 0 0 0 875.8969500412534,297.2034835387139"/><text x="905.7498763523438" y="354.5" text-anchor="start" style="font-color:black;font-weight:normal" transform="rotate(347.52772958265365,645,354.5)">0.8%&#160;&#160;&#160;Staphylococcus aureus subsp. aureus CN1</text><path class="line" d=" M 875.3158193533146,311.715806783707 A 234.25597929094096,234.25597929094096 0 0 0 874.9456111392103,309.7688056120472"/><line x1="923.8298790336404" y1="302.7036820026224" x2="875.3158193533146" y2="311.715806783707"/><path class="line" d=" M 873.1244789226402,325.1185901183682 A 230.0087935935462,230.0087935935462 0 0 0 873.0694842266262,324.6947069304924"/><line x1="926.2766469128425" y1="318.2728292373228" x2="873.1244789226402" y2="325.1185901183682"/><path class="line" d=" M 721.4179164461857,566.1203047300062 A 224.99522512266105,224.99522512266105 0 0 0 840.7381418154255,465.44787589963727"/><line x1="741.3225823673513" y1="621.2412981262647" x2="721.4179164461857" y2="566.1203047300062"/><text x="899.2976125613305" y="354.5" text-anchor="start" style="font-color:black;font-weight:normal" transform="rotate(409.84512555415387,645,354.5)">11%&#160;&#160;&#160;Staphylococcus epidermidis</text><path class="line" d=" M 833.9560418754983,485.6474718364921 A 230.0087935935462,230.0087935935462 0 0 0 845.0997747159479,467.9201273539464"/><line x1="877.9821075040625" y1="516.2043523933894" x2="833.9560418754983" y2="485.6474718364921"/><text x="901.8043967967731" y="354.5" text-anchor="start" style="font-color:black;font-weight:normal" transform="rotate(392.1542193524954,645,354.5)">1%&#160;&#160;&#160;Staphylococcus epidermidis RP62A</text><path class="line" d=" M 824.8502389374532,497.8803915620945 A 230.0087935935462,230.0087935935462 0 0 0 833.9560418754983,485.6474718364921"/><line x1="866.7546858351632" y1="531.2874976070086" x2="824.8502389374532" y2="497.8803915620945"/><text x="901.8043967967731" y="354.5" text-anchor="start" style="font-color:black;font-weight:normal" transform="rotate(396.6628442077749,645,354.5)">1%&#160;&#160;&#160;Staphylococcus epidermidis ATCC 12228</text><path class="line" d=" M 718.9800321034893,566.984837524854 A 224.99522512266105,224.99522512266105 0 0 0 721.4179164461857,566.1203047300062"/><line x1="738.249699379671" y1="622.3310168102287" x2="718.9800321034893" y2="566.984837524854"/><path class="line" d=" M 703.7287616406513,565.466082509761 A 218.98802573054024,218.98802573054024 0 0 0 703.7425175835716,565.4622526455942"/><line x1="721.0565640323316" y1="627.7111986496817" x2="703.7287616406513" y2="565.466082509761"/><path class="line" d=" M 700.934729987258,558.636083864897 A 211.66065943968837,211.66065943968837 0 0 0 701.2965270213914,558.5366040684207"/><line x1="719.9458565723995" y1="628.0179675681825" x2="700.934729987258" y2="558.636083864897"/><path class="line" d=" M 688.6908472341688,540.260519380384 A 190.8294020650631,190.8294020650631 0 0 0 689.0223581308296,540.1822357607493"/><line x1="709.9308971339001" y1="630.5669096385636" x2="688.6908472341688" y2="540.260519380384"/><path class="line" d=" M 649.8251554199203,529.7584110103555 A 175.32482070346194,175.32482070346194 0 0 0 684.1018797470365,525.4088521842838"/><line x1="652.8050219677901" y1="637.9925777371999" x2="649.8251554199203" y2="529.7584110103555"/><text x="645" y="537.5771113842625" text-anchor="middle" style="font-color:black;font-weight:normal" transform="rotate(352.76808073863407,645,354.5)">Actinobacteria</text><path class="line" d=" M 650.2557476121034,545.2570124780407 A 190.8294020650631,190.8294020650631 0 0 0 687.5597944535621,540.5229141492522"/><line x1="652.8107985806314" y1="637.9924186385463" x2="650.2557476121034" y2="545.2570124780407"/><path class="line" d=" M 650.6777414397261,556.9471469005948 A 202.526748939609,202.526748939609 0 0 0 690.1685993507391,551.9256357941891"/><line x1="652.9505916168459" y1="637.9885325598589" x2="650.6777414397261" y2="556.9471469005948"/><path class="line" d=" M 650.9346685382907,566.0774431828316 A 211.66065943968837,211.66065943968837 0 0 0 692.2056929497018,560.8294872469328"/><line x1="652.9517469231868" y1="637.9885001563019" x2="650.9346685382907" y2="566.0774431828316"/><path class="line" d=" M 651.2828515698428,573.3978784490866 A 218.98802573054024,218.98802573054024 0 0 0 693.8398813915766,567.9722965609741"/><line x1="653.136594223649" y1="637.9832549454018" x2="651.2828515698428" y2="573.3978784490866"/><path class="line" d=" M 652.2085669434147,579.3797187178498 A 224.99522512266105,224.99522512266105 0 0 0 695.1796391469516,573.828190488771"/><line x1="654.0861909804436" y1="637.954407504041" x2="652.2085669434147" y2="579.3797187178498"/><path class="line" d=" M 652.369195436433,584.3907133595835 A 230.0087935935462,230.0087935935462 0 0 0 696.297792016953,578.7154804301967"/><text x="901.8043967967731" y="354.5" text-anchor="start" style="font-color:black;font-weight:normal" transform="rotate(442.6386057537952,645,354.5)">3%&#160;&#160;&#160;Cutibacterium avidum 44067</text><path class="line" d=" M 651.8997143166918,579.3894067543978 A 224.99522512266105,224.99522512266105 0 0 0 652.2085669434147,579.3797187178498"/><line x1="653.6968911413431" y1="637.9666189950337" x2="651.8997143166918" y2="579.3894067543978"/><path class="line" d=" M 651.2694703755033,573.3982621095254 A 218.98802573054024,218.98802573054024 0 0 0 651.2828515698428,573.3978784490866"/><line x1="653.119264934972" y1="637.9837518040774" x2="651.2694703755033" y2="573.3982621095254"/><path class="line" d=" M 650.6340143545808,556.948368524668 A 202.526748939609,202.526748939609 0 0 0 650.6777414397261,556.9471469005948"/><line x1="652.8893601922953" y1="637.9902432108665" x2="650.6340143545808" y2="556.948368524668"/><path class="line" d=" M 650.2534154242668,545.2570767203397 A 190.8294020650631,190.8294020650631 0 0 0 650.2557476121034,545.2570124780407"/><line x1="652.8073326133156" y1="637.9925141118633" x2="650.2534154242668" y2="545.2570767203397"/><path class="line" d=" M 649.7744446004967,529.759799821459 A 175.32482070346194,175.32482070346194 0 0 0 649.8251554199203,529.7584110103555"/><line x1="652.7229937168511" y1="637.9948242350281" x2="649.7744446004967" y2="529.759799821459"/><path class="line" d=" M 648.7721496527985,508.27578693875444 A 153.8220457594954,153.8220457594954 0 0 0 649.062298150709,508.26839563242845"/><line x1="651.9546704846605" y1="638.0147131251742" x2="648.7721496527985" y2="508.27578693875444"/><path class="line" d=" M 647.663763727968,476.56375357612706 A 122.09281540816357,122.09281540816357 0 0 0 647.6642611767678,476.56374271942457"/><path class="line" d=" M 646.1652432342779,425.3904239527806 A 70.9,70.9 0 0 0 646.5468629147551,425.38312362701686"/><line x1="649.6609729371119" y1="638.0616958111225" x2="646.1652432342779" y2="425.3904239527806"/></svg>