<?xml version="1.0" standalone="no"?><!DOCTYPE svg PUBLIC "-//W3C//DTD SVG 1.1//EN" 	"http://www.w3.org/Graphics/SVG/1.1/DTD/svg11.dtd"><svg width="1440" height="709" version="1.1"	xmlns="http://www.w3.org/2000/svg"><title>Krona (snapshot) - root</title><defs>	<style type="text/css">	text {font-size: 11px; font-family: sans-serif; dominant-baseline:central}	path {stroke-width:0.27499999999999997;}	path.wedge {stroke:none}	path.line {fill:none;stroke:black;}	line {stroke:black;stroke-width:0.27499999999999997;}	line.tick {stroke-width:0.5499999999999999;}	line.pattern {stroke-width:0.18333333333333332;}	circle {fill:none;stroke:black;stroke-width:0.27499999999999997;}	rect {stroke:black;stroke-width:0.27499999999999997;}	.highlight {stroke:black;stroke-width:1.375;}	.searchHighlight {fill:rgb(255, 255, 100);stroke:none;}	</style><pattern id="hiddenPattern" patternUnits="userSpaceOnUse" x="0" y="0" width="6.6" height="6.6"><line class="pattern" x1="0" y1="0" x2="3.3" y2="3.3"/><line class="pattern" x1="3.3" y1="6.6" x2="6.6" y2="3.3"/></pattern></defs><path class="wedge" fill="rgb(220,220,220)" d=" M 645.5683800005459,425.3977217135712 L 647.2735200021835,638.0908868542847 A 283.6,283.6 0 0,1 645.0000000000001,638.1 L 645,425.4 A 70.9,70.9 0 0 0 645.5683800005459,425.3977217135712 Z "/><path class="wedge" fill="rgb(207,111,111)" d=" M 645,425.4 L 645,638.1 A 283.6,283.6 0 1,1 650.2991930279472,638.0504867801369 L 646.3247982569868,425.3876216950342 A 70.9,70.9 0 1 0 645,425.4 Z "/><path class="wedge" fill="rgb(207,111,111)" d=" M 647.1968993698888,472.0005558033367 L 650.301522072257,638.0504432437328 A 283.6,283.6 0 0,1 650.2991930279472,638.0504867801369 L 647.1959342364976,472.00057384440055 A 117.52109164288107,117.52109164288107 0 0 0 647.1968993698888,472.0005558033367 Z "/><path class="wedge" fill="rgb(210,121,121)" d=" M 645,472.02109164288106 L 645,638.1 A 283.6,283.6 0 1,1 650.334128654964,638.0498317253818 L 647.2104112217735,472.00030239605815 A 117.52109164288107,117.52109164288107 0 1 0 645,472.02109164288106 Z "/><path class="wedge" fill="rgb(210,121,121)" d=" M 648.1291812754174,503.58318621115865 L 650.9513108948917,638.0375493627473 A 283.6,283.6 0 0,1 650.334128654964,638.0498317253818 L 647.8046687196443,503.5896442402975 A 149.11602256741367,149.11602256741367 0 0 0 648.1291812754174,503.58318621115865 Z "/><path class="wedge" fill="rgb(213,130,130)" d=" M 645,503.61602256741367 L 645,638.1 A 283.6,283.6 0 1,1 651.7431256533205,638.0198233923397 L 648.5455150814367,503.57386594951083 A 149.11602256741367,149.11602256741367 0 1 0 645,503.61602256741367 Z "/><path class="wedge" fill="rgb(213,130,130)" d=" M 649.2177556465447,526.3458034106532 L 651.95853700398,638.0146182523297 A 283.6,283.6 0 0,1 651.7431256533205,638.0198233923397 L 649.0871890576116,526.348958385421 A 171.8975555746702,171.8975555746702 0 0 0 649.2177556465447,526.3458034106532 Z "/><path class="wedge" fill="rgb(216,140,140)" d=" M 645,526.3975555746702 L 645,638.1 A 283.6,283.6 0 1,1 652.3148301452243,638.0056494321525 L 649.4337144619464,526.3403671685345 A 171.8975555746702,171.8975555746702 0 1 0 645,526.3975555746702 Z "/><path class="wedge" fill="rgb(216,140,140)" d=" M 650.8287038090763,543.4951002285595 L 653.7422099012744,637.965224967794 A 283.6,283.6 0 0,1 652.3148301452243,638.0056494321525 L 649.8770252386643,543.522052478854 A 189.08495894305614,189.08495894305614 0 0 0 650.8287038090763,543.4951002285595 Z "/><path class="wedge" fill="rgb(219,149,149)" d=" M 645,543.5849589430561 L 645,638.1 A 283.6,283.6 0 1,1 653.9133415934516,637.9598954731312 L 650.9428026419014,543.4915468883638 A 189.08495894305614,189.08495894305614 0 1 0 645,543.5849589430561 Z "/><path class="wedge" fill="rgb(219,149,149)" d=" M 659.4115868402445,556.4923369610162 L 665.1827605831305,637.3809222539478 A 283.6,283.6 0 0,1 653.9133415934516,637.9598954731312 L 651.36460983034,556.9057552737426 A 202.5057975126308,202.5057975126308 0 0 0 659.4115868402445,556.4923369610162 Z "/><path class="wedge" fill="rgb(223,159,159)" d=" M 645,557.0057975126308 L 645,638.1 A 283.6,283.6 0 1,1 886.4536142899597,503.25856999284247 L 817.4109898592927,460.721695533283 A 202.5057975126308,202.5057975126308 0 1 0 645,557.0057975126308 Z "/><path class="wedge" fill="rgb(223,159,159)" d=" M 827.3762457233979,465.06192073005036 L 887.5159122228627,501.52038062361555 A 283.6,283.6 0 0,1 886.4536142899597,503.25856999284247 L 826.5773789312489,466.36906980992023 A 213.27220475176588,213.27220475176588 0 0 0 827.3762457233979,465.06192073005036 Z "/><path class="wedge" fill="rgb(226,168,168)" d=" M 645,567.7722047517659 L 645,638.1 A 283.6,283.6 0 1,1 888.7980716548111,499.3842995544916 L 828.3404522427734,463.45555007017526 A 213.27220475176588,213.27220475176588 0 1 0 645,567.7722047517659 Z "/><path class="wedge" fill="rgb(226,168,168)" d=" M 836.3686191656761,467.22064687999506 L 889.3603106969715,498.4340076426678 A 283.6,283.6 0 0,1 888.7980716548111,499.3842995544916 L 835.928306625426,467.96485959789237 A 222.0988352838036,222.0988352838036 0 0 0 836.3686191656761,467.22064687999506 Z "/><path class="wedge" fill="rgb(229,178,178)" d=" M 645,576.5988352838036 L 645,638.1 A 283.6,283.6 0 1,1 889.3969526499607,498.3717815814236 L 836.3973149875429,467.1719150897037 A 222.0988352838036,222.0988352838036 0 1 0 645,576.5988352838036 Z "/><path class="wedge" fill="rgb(229,178,178)" d=" M 844.6200580321752,467.66465847045947 L 891.7135707253683,494.36198203921856 A 283.6,283.6 0 0,1 889.3969526499607,498.3717815814236 L 842.7456437740068,470.909054046102 A 229.4654821438395,229.4654821438395 0 0 0 844.6200580321752,467.66465847045947 Z "/><path class="wedge" fill="rgb(229,178,178)" d=" M 645,583.9654821438395 L 645,638.1 A 283.6,283.6 0 1,1 891.9292521986824,493.98083885824417 L 844.7945695034853,467.3562691764252 A 229.4654821438395,229.4654821438395 0 1 0 645,583.9654821438395 Z "/><path class="wedge" fill="rgb(229,178,178)" d=" M 417.5415010033415,416.3059343187012 L 371.3234008838764,428.8645015866615 A 283.6,283.6 0 1,1 891.9292521986824,493.98083885824417 L 850.2282045482734,470.42552066181344 A 235.70605058593745,235.70605058593745 0 1 0 417.5415010033415,416.3059343187012 Z "/><path class="wedge" fill="rgb(229,178,178)" d=" M 645,590.2060505859374 L 645,638.1 A 283.6,283.6 0 0,1 502.2362922788299,599.5458809237657 L 526.3460165234059,558.1628942344595 A 235.70605058593745,235.70605058593745 0 0 0 645,590.2060505859374 Z "/><path class="wedge" fill="rgb(229,180,178)" d=" M 526.3460165234059,558.1628942344595 L 502.2362922788299,599.5458809237657 A 283.6,283.6 0 0,1 438.5004460160771,548.8885135609636 L 473.3737859051197,516.0604683029819 A 235.70605058593745,235.70605058593745 0 0 0 526.3460165234059,558.1628942344595 Z "/><path class="wedge" fill="rgb(229,181,178)" d=" M 473.3737859051197,516.0604683029819 L 438.5004460160771,548.8885135609636 A 283.6,283.6 0 0,1 397.42894277540734,492.8384676245096 L 439.2383775113052,469.4760713959229 A 235.70605058593745,235.70605058593745 0 0 0 473.3737859051197,516.0604683029819 Z "/><path class="wedge" fill="rgb(229,182,178)" d=" M 439.2383775113052,469.4760713959229 L 397.42894277540734,492.8384676245096 A 283.6,283.6 0 0,1 371.3234008838764,428.8645015866615 L 417.5415010033415,416.3059343187012 A 235.70605058593745,235.70605058593745 0 0 0 439.2383775113052,469.4760713959229 Z "/><path class="wedge" fill="rgb(229,198,178)" d=" M 844.7945695034853,467.3562691764252 L 891.9292521986824,493.98083885824417 A 283.6,283.6 0 0,1 891.7135707253683,494.36198203921856 L 844.6200580321752,467.66465847045947 A 229.4654821438395,229.4654821438395 0 0 0 844.7945695034853,467.3562691764252 Z "/><path class="wedge" fill="url(#hiddenPattern)" d=" M 844.7945695034853,467.3562691764252 L 891.9292521986824,493.98083885824417 A 283.6,283.6 0 0,1 891.7135707253683,494.36198203921856 L 844.6200580321752,467.66465847045947 A 229.4654821438395,229.4654821438395 0 0 0 844.7945695034853,467.3562691764252 Z "/><path class="wedge" fill="rgb(226,191,168)" d=" M 836.3973149875429,467.1719150897037 L 889.3969526499607,498.3717815814236 A 283.6,283.6 0 0,1 889.3603106969715,498.4340076426678 L 836.3686191656761,467.22064687999506 A 222.0988352838036,222.0988352838036 0 0 0 836.3973149875429,467.1719150897037 Z "/><path class="wedge" fill="url(#hiddenPattern)" d=" M 836.3973149875429,467.1719150897037 L 889.3969526499607,498.3717815814236 A 283.6,283.6 0 0,1 889.3603106969715,498.4340076426678 L 836.3686191656761,467.22064687999506 A 222.0988352838036,222.0988352838036 0 0 0 836.3973149875429,467.1719150897037 Z "/><path class="wedge" fill="rgb(223,184,159)" d=" M 828.3404522427734,463.45555007017526 L 888.7980716548111,499.3842995544916 A 283.6,283.6 0 0,1 887.5159122228627,501.52038062361555 L 827.3762457233979,465.06192073005036 A 213.27220475176588,213.27220475176588 0 0 0 828.3404522427734,463.45555007017526 Z "/><path class="wedge" fill="url(#hiddenPattern)" d=" M 828.3404522427734,463.45555007017526 L 888.7980716548111,499.3842995544916 A 283.6,283.6 0 0,1 887.5159122228627,501.52038062361555 L 827.3762457233979,465.06192073005036 A 213.27220475176588,213.27220475176588 0 0 0 828.3404522427734,463.45555007017526 Z "/><path class="wedge" fill="rgb(223,185,159)" d=" M 817.4109898592927,460.721695533283 L 886.4536142899597,503.25856999284247 A 283.6,283.6 0 0,1 665.1827605831305,637.3809222539478 L 659.4115868402445,556.4923369610162 A 202.5057975126308,202.5057975126308 0 0 0 817.4109898592927,460.721695533283 Z "/><path class="wedge" fill="rgb(223,185,159)" d=" M 660.3219447331488,567.221111620999 L 665.3744483786747,637.3671805870464 A 283.6,283.6 0 0,1 665.1827605831305,637.3809222539478 L 660.1777921281428,567.231445597011 A 213.27220475176588,213.27220475176588 0 0 0 660.3219447331488,567.221111620999 Z "/><path class="wedge" fill="rgb(226,192,168)" d=" M 826.5773789312489,466.36906980992023 L 886.4536142899597,503.25856999284247 A 283.6,283.6 0 0,1 665.8379454814709,637.3334139172939 L 660.6705027338871,567.1957184894571 A 213.27220475176588,213.27220475176588 0 0 0 826.5773789312489,466.36906980992023 Z "/><path class="wedge" fill="rgb(226,192,168)" d=" M 661.5964921810131,575.9778749259341 L 666.1922101100661,637.3070901350438 A 283.6,283.6 0 0,1 665.8379454814709,637.3334139172939 L 661.3190529659453,575.998490163515 A 222.0988352838036,222.0988352838036 0 0 0 661.5964921810131,575.9778749259341 Z "/><path class="wedge" fill="rgb(229,199,178)" d=" M 834.0922655460677,470.9989602746632 L 886.4536142899597,503.25856999284247 A 283.6,283.6 0 0,1 666.1980174514256,637.3066549007096 L 661.6010401491092,575.9775340760091 A 222.0988352838036,222.0988352838036 0 0 0 834.0922655460677,470.9989602746632 Z "/><path class="wedge" fill="rgb(229,199,178)" d=" M 669.1362828617358,582.692566366924 L 674.8304117710284,636.5267833620965 A 283.6,283.6 0 0,1 666.1980174514256,637.3066549007096 L 662.1516688821752,583.3235734142374 A 229.4654821438395,229.4654821438395 0 0 0 669.1362828617358,582.692566366924 Z "/><path class="wedge" fill="rgb(229,199,178)" d=" M 840.3641396982307,474.86303591832046 L 886.4536142899597,503.25856999284247 A 283.6,283.6 0 0,1 678.3572159658538,636.1314189557113 L 671.9898788595939,582.3726704426163 A 229.4654821438395,229.4654821438395 0 0 0 840.3641396982307,474.86303591832046 Z "/><path class="wedge" fill="rgb(229,199,178)" d=" M 815.7325037844261,517.0046289627512 L 850.4242475019096,550.0245215779192 A 283.6,283.6 0 0,1 678.3572159658538,636.1314189557113 L 672.7238985678899,588.5699206028357 A 235.70605058593745,235.70605058593745 0 0 0 815.7325037844261,517.0046289627512 Z "/><path class="wedge" fill="rgb(229,199,178)" d=" M 845.6772842876821,478.13644225608124 L 886.4536142899597,503.25856999284247 A 283.6,283.6 0 0,1 866.6592334135611,531.407162778991 L 829.2257492377184,501.5313422390675 A 235.70605058593745,235.70605058593745 0 0 0 845.6772842876821,478.13644225608124 Z "/><path class="wedge" fill="rgb(229,199,178)" d=" M 829.2257492377184,501.5313422390675 L 866.6592334135611,531.407162778991 A 283.6,283.6 0 0,1 850.4242475019096,550.0245215779192 L 815.7325037844261,517.0046289627512 A 235.70605058593745,235.70605058593745 0 0 0 829.2257492377184,501.5313422390675 Z "/><path class="wedge" fill="rgb(229,202,178)" d=" M 671.9898788595939,582.3726704426163 L 678.3572159658538,636.1314189557113 A 283.6,283.6 0 0,1 674.8304117710284,636.5267833620965 L 669.1362828617358,582.692566366924 A 229.4654821438395,229.4654821438395 0 0 0 671.9898788595939,582.3726704426163 Z "/><path class="wedge" fill="url(#hiddenPattern)" d=" M 671.9898788595939,582.3726704426163 L 678.3572159658538,636.1314189557113 A 283.6,283.6 0 0,1 674.8304117710284,636.5267833620965 L 669.1362828617358,582.692566366924 A 229.4654821438395,229.4654821438395 0 0 0 671.9898788595939,582.3726704426163 Z "/><path class="wedge" fill="rgb(226,196,168)" d=" M 661.6010401491092,575.9775340760091 L 666.1980174514256,637.3066549007096 A 283.6,283.6 0 0,1 666.1922101100661,637.3070901350438 L 661.5964921810131,575.9778749259341 A 222.0988352838036,222.0988352838036 0 0 0 661.6010401491092,575.9775340760091 Z "/><path class="wedge" fill="url(#hiddenPattern)" d=" M 661.6010401491092,575.9775340760091 L 666.1980174514256,637.3066549007096 A 283.6,283.6 0 0,1 666.1922101100661,637.3070901350438 L 661.5964921810131,575.9778749259341 A 222.0988352838036,222.0988352838036 0 0 0 661.6010401491092,575.9775340760091 Z "/><path class="wedge" fill="rgb(223,189,159)" d=" M 660.6705027338871,567.1957184894571 L 665.8379454814709,637.3334139172939 A 283.6,283.6 0 0,1 665.3744483786747,637.3671805870464 L 660.3219447331488,567.221111620999 A 213.27220475176588,213.27220475176588 0 0 0 660.6705027338871,567.1957184894571 Z "/><path class="wedge" fill="url(#hiddenPattern)" d=" M 660.6705027338871,567.1957184894571 L 665.8379454814709,637.3334139172939 A 283.6,283.6 0 0,1 665.3744483786747,637.3671805870464 L 660.3219447331488,567.221111620999 A 213.27220475176588,213.27220475176588 0 0 0 660.6705027338871,567.1957184894571 Z "/><path class="wedge" fill="rgb(216,177,140)" d=" M 650.9428026419014,543.4915468883638 L 653.9133415934516,637.9598954731312 A 283.6,283.6 0 0,1 653.7422099012744,637.965224967794 L 650.8287038090763,543.4951002285595 A 189.08495894305614,189.08495894305614 0 0 0 650.9428026419014,543.4915468883638 Z "/><path class="wedge" fill="url(#hiddenPattern)" d=" M 650.9428026419014,543.4915468883638 L 653.9133415934516,637.9598954731312 A 283.6,283.6 0 0,1 653.7422099012744,637.965224967794 L 650.8287038090763,543.4951002285595 A 189.08495894305614,189.08495894305614 0 0 0 650.9428026419014,543.4915468883638 Z "/><path class="wedge" fill="rgb(213,171,130)" d=" M 649.4337144619464,526.3403671685345 L 652.3148301452243,638.0056494321525 A 283.6,283.6 0 0,1 651.95853700398,638.0146182523297 L 649.2177556465447,526.3458034106532 A 171.8975555746702,171.8975555746702 0 0 0 649.4337144619464,526.3403671685345 Z "/><path class="wedge" fill="url(#hiddenPattern)" d=" M 649.4337144619464,526.3403671685345 L 652.3148301452243,638.0056494321525 A 283.6,283.6 0 0,1 651.95853700398,638.0146182523297 L 649.2177556465447,526.3458034106532 A 171.8975555746702,171.8975555746702 0 0 0 649.4337144619464,526.3403671685345 Z "/><path class="wedge" fill="rgb(210,165,121)" d=" M 648.5455150814367,503.57386594951083 L 651.7431256533205,638.0198233923397 A 283.6,283.6 0 0,1 650.9513108948917,638.0375493627473 L 648.1291812754174,503.58318621115865 A 149.11602256741367,149.11602256741367 0 0 0 648.5455150814367,503.57386594951083 Z "/><path class="wedge" fill="url(#hiddenPattern)" d=" M 648.5455150814367,503.57386594951083 L 651.7431256533205,638.0198233923397 A 283.6,283.6 0 0,1 650.9513108948917,638.0375493627473 L 648.1291812754174,503.58318621115865 A 149.11602256741367,149.11602256741367 0 0 0 648.5455150814367,503.57386594951083 Z "/><path class="wedge" fill="rgb(207,159,111)" d=" M 647.2104112217735,472.00030239605815 L 650.334128654964,638.0498317253818 A 283.6,283.6 0 0,1 650.301522072257,638.0504432437328 L 647.1968993698888,472.0005558033367 A 117.52109164288107,117.52109164288107 0 0 0 647.2104112217735,472.00030239605815 Z "/><path class="wedge" fill="url(#hiddenPattern)" d=" M 647.2104112217735,472.00030239605815 L 650.334128654964,638.0498317253818 A 283.6,283.6 0 0,1 650.301522072257,638.0504432437328 L 647.1968993698888,472.0005558033367 A 117.52109164288107,117.52109164288107 0 0 0 647.2104112217735,472.00030239605815 Z "/><path class="wedge" fill="rgb(101,204,204)" d=" M 646.3247982569868,425.3876216950342 L 650.2991930279472,638.0504867801369 A 283.6,283.6 0 0,1 647.2735200021835,638.0908868542847 L 645.5683800005459,425.3977217135712 A 70.9,70.9 0 0 0 646.3247982569868,425.3876216950342 Z "/><path class="wedge" fill="url(#hiddenPattern)" d=" M 646.3247982569868,425.3876216950342 L 650.2991930279472,638.0504867801369 A 283.6,283.6 0 0,1 647.2735200021835,638.0908868542847 L 645.5683800005459,425.3977217135712 A 70.9,70.9 0 0 0 646.3247982569868,425.3876216950342 Z "/><rect fill="rgb(101,204,204)" x="1407.365" y="647.0316666666668" width="22" height="22"/><rect fill="url(#hiddenPattern)" style="stroke:none" x="1407.365" y="647.0316666666668" width="22" height="22"/><path class="line" d="M 648.7864103978142,638.0747222449479 L 649.4174787974499,685.3371759524391 A 330.8666666666667,330.8666666666667 0 0,0 776.6862879789184,658.0316666666668 L 987.6833333333333,658.0316666666668 L 1323.8051041666668,658.0316666666668"/><text x="1400.0316666666668" y="658.0316666666668" style="font-color:black;font-weight:normal" text-anchor="end">Viruses&#160;&#160;&#160;0.2%</text><circle cx="645" cy="354.5" r="70.9"/><circle cx="645" cy="354.5" r="283.6"/><text x="645" y="354.5" text-anchor="middle" style="font-color:black;font-weight:bold" transform="rotate(360,645,354.5)">root</text><rect fill="rgb(220,220,220)" x="1407.365" y="676.365" width="22" height="22"/><path class="line" d="M 646.1367691333064,638.0977217044199 L 646.3735960360787,697.1805803928406 A 342.68333333333334,342.68333333333334 0 0,0 726.4417504689361,687.365 L 976.6833333333333,687.365 L 1307.0956315104168,687.365"/><text x="1400.0316666666668" y="687.365" style="font-color:black;font-weight:normal" text-anchor="end">[other root]&#160;&#160;&#160;0.1%</text><path class="line" d=" M 646.3247982569868,425.3876216950342 A 70.9,70.9 0 1 0 645,425.4"/><line x1="650.2991930279472" y1="638.0504867801369" x2="646.3247982569868" y2="425.3876216950342"/><text x="645" y="269.6136725071357" text-anchor="middle" style="font-color:black;font-weight:normal" transform="rotate(359.4646701936992,645,354.5)">cellular organisms</text><path class="line" d=" M 647.2104112217735,472.00030239605815 A 117.52109164288107,117.52109164288107 0 1 0 645,472.02109164288106"/><line x1="650.334128654964" y1="638.0498317253818" x2="647.2104112217735" y2="472.00030239605815"/><text x="645" y="227.50042907975913" text-anchor="middle" style="font-color:black;font-weight:normal" transform="rotate(359.46114054662473,645,354.5)">Bacteria</text><path class="line" d=" M 648.5455150814367,503.57386594951083 A 149.11602256741367,149.11602256741367 0 1 0 645,503.61602256741367"/><line x1="651.7431256533205" y1="638.0198233923397" x2="648.5455150814367" y2="503.57386594951083"/><text x="645" y="193.99321092895806" text-anchor="middle" style="font-color:black;font-weight:normal" transform="rotate(359.3187781146194,645,354.5)">Terrabacteria group</text><path class="line" d=" M 649.4337144619464,526.3403671685345 A 171.8975555746702,171.8975555746702 0 1 0 645,526.3975555746702"/><line x1="652.3148301452243" y1="638.0056494321525" x2="649.4337144619464" y2="526.3403671685345"/><text x="645" y="174.0087427411368" text-anchor="middle" style="font-color:black;font-weight:normal" transform="rotate(359.26100955749996,645,354.5)">Firmicutes</text><path class="line" d=" M 650.9428026419014,543.4915468883638 A 189.08495894305614,189.08495894305614 0 1 0 645,543.5849589430561"/><line x1="653.9133415934516" y1="637.9598954731312" x2="650.9428026419014" y2="543.4915468883638"/><text x="645" y="158.70462177215654" text-anchor="middle" style="font-color:black;font-weight:normal" transform="rotate(359.0994693763898,645,354.5)">Bacilli</text><path class="line" d=" M 817.4109898592927,460.721695533283 A 202.5057975126308,202.5057975126308 0 1 0 645,557.0057975126308"/><line x1="886.4536142899597" y1="503.25856999284247" x2="817.4109898592927" y2="460.721695533283"/><path class="line" d=" M 828.3404522427734,463.45555007017526 A 213.27220475176588,213.27220475176588 0 1 0 645,567.7722047517659"/><line x1="888.7980716548111" y1="499.3842995544916" x2="828.3404522427734" y2="463.45555007017526"/><path class="line" d=" M 836.3973149875429,467.1719150897037 A 222.0988352838036,222.0988352838036 0 1 0 645,576.5988352838036"/><line x1="889.3969526499607" y1="498.3717815814236" x2="836.3973149875429" y2="467.1719150897037"/><path class="line" d=" M 844.7945695034853,467.3562691764252 A 229.4654821438395,229.4654821438395 0 1 0 645,583.9654821438395"/><line x1="891.9292521986824" y1="493.98083885824417" x2="844.7945695034853" y2="467.3562691764252"/><text x="388.46725892808024" y="354.5" text-anchor="end" style="font-color:black;font-weight:normal" transform="rotate(59.730217308604914,645,354.5)">Enterococcus faecalis&#160;&#160;&#160;83%</text><path class="line" d=" M 526.3460165234059,558.1628942344595 A 235.70605058593745,235.70605058593745 0 0 0 645,590.2060505859374"/><line x1="502.2362922788299" y1="599.5458809237657" x2="526.3460165234059" y2="558.1628942344595"/><text x="385.3469747070313" y="354.5" text-anchor="end" style="font-color:black;font-weight:normal" transform="rotate(-74.88746308577436,645,354.5)">Enterococcus faecalis V583&#160;&#160;&#160;8%</text><path class="line" d=" M 473.3737859051197,516.0604683029819 A 235.70605058593745,235.70605058593745 0 0 0 526.3460165234059,558.1628942344595"/><line x1="438.5004460160771" y1="548.8885135609636" x2="473.3737859051197" y2="516.0604683029819"/><text x="385.3469747070313" y="354.5" text-anchor="end" style="font-color:black;font-weight:normal" transform="rotate(-51.522258346634885,645,354.5)">Enterococcus faecalis str. Symbioflor 1&#160;&#160;&#160;5%</text><path class="line" d=" M 439.2383775113052,469.4760713959229 A 235.70605058593745,235.70605058593745 0 0 0 473.3737859051197,516.0604683029819"/><line x1="397.42894277540734" y1="492.8384676245096" x2="439.2383775113052" y2="469.4760713959229"/><text x="385.3469747070313" y="354.5" text-anchor="end" style="font-color:black;font-weight:normal" transform="rotate(-36.23265080417125,645,354.5)">Enterococcus faecalis OG1RF&#160;&#160;&#160;4%</text><path class="line" d=" M 417.5415010033415,416.3059343187012 A 235.70605058593745,235.70605058593745 0 0 0 439.2383775113052,469.4760713959229"/><line x1="371.3234008838764" y1="428.8645015866615" x2="417.5415010033415" y2="416.3059343187012"/><text x="385.3469747070313" y="354.5" text-anchor="end" style="font-color:black;font-weight:normal" transform="rotate(-22.198656381013627,645,354.5)">Enterococcus faecalis D32&#160;&#160;&#160;4%</text><path class="line" d=" M 844.6200580321752,467.66465847045947 A 229.4654821438395,229.4654821438395 0 0 0 844.7945695034853,467.3562691764252"/><line x1="891.7135707253683" y1="494.36198203921856" x2="844.6200580321752" y2="467.66465847045947"/><path class="line" d=" M 836.3686191656761,467.22064687999506 A 222.0988352838036,222.0988352838036 0 0 0 836.3973149875429,467.1719150897037"/><line x1="889.3603106969715" y1="498.4340076426678" x2="836.3686191656761" y2="467.22064687999506"/><path class="line" d=" M 827.3762457233979,465.06192073005036 A 213.27220475176588,213.27220475176588 0 0 0 828.3404522427734,463.45555007017526"/><line x1="887.5159122228627" y1="501.52038062361555" x2="827.3762457233979" y2="465.06192073005036"/><path class="line" d=" M 659.4115868402445,556.4923369610162 A 202.5057975126308,202.5057975126308 0 0 0 817.4109898592927,460.721695533283"/><line x1="665.1827605831305" y1="637.3809222539478" x2="659.4115868402445" y2="556.4923369610162"/><path class="line" d=" M 660.6705027338871,567.1957184894571 A 213.27220475176588,213.27220475176588 0 0 0 826.5773789312489,466.36906980992023"/><line x1="665.8379454814709" y1="637.3334139172939" x2="660.6705027338871" y2="567.1957184894571"/><path class="line" d=" M 661.6010401491092,575.9775340760091 A 222.0988352838036,222.0988352838036 0 0 0 834.0922655460677,470.9989602746632"/><line x1="666.1980174514256" y1="637.3066549007096" x2="661.6010401491092" y2="575.9775340760091"/><path class="line" d=" M 671.9898788595939,582.3726704426163 A 229.4654821438395,229.4654821438395 0 0 0 840.3641396982307,474.86303591832046"/><line x1="678.3572159658538" y1="636.1314189557113" x2="671.9898788595939" y2="582.3726704426163"/><text x="901.5327410719198" y="354.5" text-anchor="start" style="font-color:black;font-weight:normal" transform="rotate(417.4411235258822,645,354.5)">14%&#160;&#160;&#160;Staphylococcus epidermidis</text><path class="line" d=" M 829.2257492377184,501.5313422390675 A 235.70605058593745,235.70605058593745 0 0 0 845.6772842876821,478.13644225608124"/><line x1="866.6592334135611" y1="531.407162778991" x2="829.2257492377184" y2="501.5313422390675"/><text x="904.6530252929688" y="354.5" text-anchor="start" style="font-color:black;font-weight:normal" transform="rotate(395.1152821952836,645,354.5)">2%&#160;&#160;&#160;Staphylococcus epidermidis RP62A</text><path class="line" d=" M 815.7325037844261,517.0046289627512 A 235.70605058593745,235.70605058593745 0 0 0 829.2257492377184,501.5313422390675"/><line x1="850.4242475019096" y1="550.0245215779192" x2="815.7325037844261" y2="517.0046289627512"/><text x="904.6530252929688" y="354.5" text-anchor="start" style="font-color:black;font-weight:normal" transform="rotate(401.08956283360067,645,354.5)">1%&#160;&#160;&#160;Staphylococcus epidermidis ATCC 12228</text><path class="line" d=" M 669.1362828617358,582.692566366924 A 229.4654821438395,229.4654821438395 0 0 0 671.9898788595939,582.3726704426163"/><line x1="674.8304117710284" y1="636.5267833620965" x2="669.1362828617358" y2="582.692566366924"/><path class="line" d=" M 661.5964921810131,575.9778749259341 A 222.0988352838036,222.0988352838036 0 0 0 661.6010401491092,575.9775340760091"/><line x1="666.1922101100661" y1="637.3070901350438" x2="661.5964921810131" y2="575.9778749259341"/><path class="line" d=" M 660.3219447331488,567.221111620999 A 213.27220475176588,213.27220475176588 0 0 0 660.6705027338871,567.1957184894571"/><line x1="665.3744483786747" y1="637.3671805870464" x2="660.3219447331488" y2="567.221111620999"/><path class="line" d=" M 650.8287038090763,543.4951002285595 A 189.08495894305614,189.08495894305614 0 0 0 650.9428026419014,543.4915468883638"/><line x1="653.7422099012744" y1="637.965224967794" x2="650.8287038090763" y2="543.4951002285595"/><path class="line" d=" M 649.2177556465447,526.3458034106532 A 171.8975555746702,171.8975555746702 0 0 0 649.4337144619464,526.3403671685345"/><line x1="651.95853700398" y1="638.0146182523297" x2="649.2177556465447" y2="526.3458034106532"/><path class="line" d=" M 648.1291812754174,503.58318621115865 A 149.11602256741367,149.11602256741367 0 0 0 648.5455150814367,503.57386594951083"/><line x1="650.9513108948917" y1="638.0375493627473" x2="648.1291812754174" y2="503.58318621115865"/><path class="line" d=" M 647.1968993698888,472.0005558033367 A 117.52109164288107,117.52109164288107 0 0 0 647.2104112217735,472.00030239605815"/><line x1="650.301522072257" y1="638.0504432437328" x2="647.1968993698888" y2="472.0005558033367"/><path class="line" d=" M 645.5683800005459,425.3977217135712 A 70.9,70.9 0 0 0 646.3247982569868,425.3876216950342"/><line x1="647.2735200021835" y1="638.0908868542847" x2="645.5683800005459" y2="425.3977217135712"/></svg>